<?xml version="1.0"?>
<svg width="250mm" height="200mm" viewBox="0 0   2500    1500"
     xmlns="http://www.w3.org/2000/svg"
     xmlns:xlink="http://www.w3.org/1999/xlink"
     xmlns:ev="http://www.w3.org/2001/xml-events">
<g font-family="Verdana" font-size="8" >
  <line x1="   300" y1="   350" x2="   300" y2="   430" style = "stroke:silver  ;"/>
  <line x1="   300" y1="   350" x2="   300" y2="   510" style = "stroke:silver  ;"/>
  <line x1="   300" y1="   350" x2="   300" y2="   590" style = "stroke:silver  ;"/>
  <line x1="   300" y1="   430" x2="   300" y2="   510" style = "stroke:silver  ;"/>
  <line x1="   300" y1="   430" x2="   300" y2="   590" style = "stroke:silver  ;"/>
  <line x1="   300" y1="   510" x2="   300" y2="   590" style = "stroke:silver  ;"/>
  <rect x="   200" y="   340" width="   200" height="    20" style = "fill:snow; stroke: Black;"/>     1
  <text x="   202" y="   353">OutdoorAir:NodeList</text>
  <rect x="   200" y="   420" width="   200" height="    20" style = "fill:snow; stroke: Black;"/>     2
  <text x="   202" y="   433">OutdoorAir:NodeList</text>
  <rect x="   200" y="   500" width="   200" height="    20" style = "fill:snow; stroke: Black;"/>     3
  <text x="   202" y="   513">OutdoorAir:NodeList</text>
  <rect x="   200" y="   580" width="   200" height="    20" style = "fill:snow; stroke: Black;"/>     4
  <text x="   202" y="   593">OutdoorAir:NodeList</text>
  <rect x="  1450" y="    20" width="   200" height="    20" style = "fill:chartreuse; stroke: Black;"/>    13
  <text x="  1452" y="    33">ZSF1</text>
  <rect x="  1200" y="    20" width="   200" height="    20" style = "fill:wheat; stroke: Black;"/>    17
  <text x="  1202" y="    33">ZONE SUPPLY AIR SPLITTER 1</text>
  <rect x="  1200" y="   100" width="   200" height="    20" style = "fill:wheat; stroke: Black;"/>    18
  <text x="  1202" y="   113">ZONE SUPPLY AIR SPLITTER 2</text>
  <rect x="  1200" y="   180" width="   200" height="    20" style = "fill:wheat; stroke: Black;"/>    19
  <text x="  1202" y="   193">ZONE SUPPLY AIR SPLITTER 3</text>
  <rect x="  1200" y="   260" width="   200" height="    20" style = "fill:wheat; stroke: Black;"/>    20
  <text x="  1202" y="   273">ZONE SUPPLY AIR SPLITTER 4</text>
  <rect x="  1700" y="    20" width="   200" height="    20" style = "fill:wheat; stroke: Black;"/>    21
  <text x="  1702" y="    33">ZONE RETURN AIR MIXER 1</text>
  <rect x="  1700" y="   100" width="   200" height="    20" style = "fill:wheat; stroke: Black;"/>    22
  <text x="  1702" y="   113">ZONE RETURN AIR MIXER 2</text>
  <rect x="  1700" y="   180" width="   200" height="    20" style = "fill:wheat; stroke: Black;"/>    23
  <text x="  1702" y="   193">ZONE RETURN AIR MIXER 3</text>
  <rect x="  1700" y="   260" width="   200" height="    20" style = "fill:wheat; stroke: Black;"/>    24
  <text x="  1702" y="   273">ZONE RETURN AIR MIXER 4</text>
  <rect x="   200" y="    20" width="   200" height="    20" style = "fill:lawngreen; stroke: Black;"/>    25
  <text x="   202" y="    33">OA MIXING BOX 1</text>
  <rect x="   200" y="   100" width="   200" height="    20" style = "fill:lawngreen; stroke: Black;"/>    26
  <text x="   202" y="   113">OA MIXING BOX 2</text>
  <rect x="   200" y="   180" width="   200" height="    20" style = "fill:lawngreen; stroke: Black;"/>    27
  <text x="   202" y="   193">OA MIXING BOX 3</text>
  <rect x="   200" y="   260" width="   200" height="    20" style = "fill:lawngreen; stroke: Black;"/>    28
  <text x="   202" y="   273">OA MIXING BOX 4</text>
  <rect x="   450" y="    20" width="   200" height="    20" style = "fill:skyblue; stroke: Black;"/>    33
  <text x="   452" y="    33">ACDXCOIL 1</text>
  <rect x="   450" y="   100" width="   200" height="    20" style = "fill:skyblue; stroke: Black;"/>    34
  <text x="   452" y="   113">ACDXCOIL 2</text>
  <rect x="   450" y="   180" width="   200" height="    20" style = "fill:skyblue; stroke: Black;"/>    35
  <text x="   452" y="   193">ACDXCOIL 3</text>
  <rect x="   450" y="   260" width="   200" height="    20" style = "fill:skyblue; stroke: Black;"/>    36
  <text x="   452" y="   273">ACDXCOIL 4</text>
  <rect x="   700" y="    20" width="   200" height="    20" style = "fill:salmon; stroke: Black;"/>    37
  <text x="   702" y="    33">MAIN HEATING COIL 1</text>
  <rect x="   700" y="   100" width="   200" height="    20" style = "fill:salmon; stroke: Black;"/>    38
  <text x="   702" y="   113">MAIN HEATING COIL 2</text>
  <rect x="   700" y="   180" width="   200" height="    20" style = "fill:salmon; stroke: Black;"/>    39
  <text x="   702" y="   193">MAIN HEATING COIL 3</text>
  <rect x="   700" y="   260" width="   200" height="    20" style = "fill:salmon; stroke: Black;"/>    40
  <text x="   702" y="   273">MAIN HEATING COIL 4</text>
  <rect x="   950" y="    20" width="   200" height="    20" style = "fill:silver; stroke: Black;"/>    41
  <text x="   952" y="    33">SUPPLY FAN 1</text>
  <rect x="   950" y="   100" width="   200" height="    20" style = "fill:silver; stroke: Black;"/>    42
  <text x="   952" y="   113">SUPPLY FAN 2</text>
  <rect x="   950" y="   180" width="   200" height="    20" style = "fill:silver; stroke: Black;"/>    43
  <text x="   952" y="   193">SUPPLY FAN 3</text>
  <rect x="   950" y="   260" width="   200" height="    20" style = "fill:silver; stroke: Black;"/>    44
  <text x="   952" y="   273">SUPPLY FAN 4</text>
  <rect x="  1450" y="   100" width="   200" height="    20" style = "fill:chartreuse; stroke: Black;"/>    45
  <text x="  1452" y="   113">ZNF1</text>
  <rect x="  1450" y="   180" width="   200" height="    20" style = "fill:chartreuse; stroke: Black;"/>    46
  <text x="  1452" y="   193">ZSF2</text>
  <rect x="  1450" y="   260" width="   200" height="    20" style = "fill:chartreuse; stroke: Black;"/>    47
  <text x="  1452" y="   273">ZNF2</text>
  <line x1="  1400" y1="    30" x2="  1450" y2="    30" style = "stroke: Black;"/>
  <line x1="  1400" y1="   110" x2="  1450" y2="   110" style = "stroke: Black;"/>
  <line x1="  1400" y1="   190" x2="  1450" y2="   190" style = "stroke: Black;"/>
  <line x1="  1400" y1="   270" x2="  1450" y2="   270" style = "stroke: Black;"/>
  <line x1="   400" y1="    30" x2="   450" y2="    30" style = "stroke: Black;"/>
  <line x1="   400" y1="   110" x2="   450" y2="   110" style = "stroke: Black;"/>
  <line x1="   400" y1="   190" x2="   450" y2="   190" style = "stroke: Black;"/>
  <line x1="   400" y1="   270" x2="   450" y2="   270" style = "stroke: Black;"/>
  <line x1="   650" y1="    30" x2="   700" y2="    30" style = "stroke: Black;"/>
  <line x1="   650" y1="   110" x2="   700" y2="   110" style = "stroke: Black;"/>
  <line x1="   650" y1="   190" x2="   700" y2="   190" style = "stroke: Black;"/>
  <line x1="   650" y1="   270" x2="   700" y2="   270" style = "stroke: Black;"/>
  <line x1="   900" y1="    30" x2="   950" y2="    30" style = "stroke: Black;"/>
  <line x1="   900" y1="   110" x2="   950" y2="   110" style = "stroke: Black;"/>
  <line x1="   900" y1="   190" x2="   950" y2="   190" style = "stroke: Black;"/>
  <line x1="   900" y1="   270" x2="   950" y2="   270" style = "stroke: Black;"/>
  <line x1="  1150" y1="    30" x2="  1200" y2="    30" style = "stroke: Black;"/>
  <line x1="  1150" y1="   110" x2="  1200" y2="   110" style = "stroke: Black;"/>
  <line x1="  1150" y1="   190" x2="  1200" y2="   190" style = "stroke: Black;"/>
  <line x1="  1150" y1="   270" x2="  1200" y2="   270" style = "stroke: Black;"/>
  <line x1="  1650" y1="    30" x2="  1700" y2="    30" style = "stroke: Black;"/>
  <line x1="  1650" y1="   110" x2="  1700" y2="   110" style = "stroke: Black;"/>
  <line x1="  1650" y1="   190" x2="  1700" y2="   190" style = "stroke: Black;"/>
  <line x1="  1650" y1="   270" x2="  1700" y2="   270" style = "stroke: Black;"/>
  <line x1="   200" y1="    30" x2="   175" y2="    30" style = "stroke: Black;"/>
  <line x1="   175" y1="    30" x2="   175" y2="     0" style = "stroke: Black;"/>
  <line x1="   175" y1="     0" x2="  1925" y2="     0" style = "stroke: Black;"/>
  <line x1="  1925" y1="     0" x2="  1925" y2="    30" style = "stroke: Black;"/>
  <line x1="  1925" y1="    30" x2="  1900" y2="    30" style = "stroke: Black;"/>
  <line x1="   200" y1="   110" x2="   175" y2="   110" style = "stroke: Black;"/>
  <line x1="   175" y1="   110" x2="   175" y2="    80" style = "stroke: Black;"/>
  <line x1="   175" y1="    80" x2="  1925" y2="    80" style = "stroke: Black;"/>
  <line x1="  1925" y1="    80" x2="  1925" y2="   110" style = "stroke: Black;"/>
  <line x1="  1925" y1="   110" x2="  1900" y2="   110" style = "stroke: Black;"/>
  <line x1="   200" y1="   190" x2="   175" y2="   190" style = "stroke: Black;"/>
  <line x1="   175" y1="   190" x2="   175" y2="   160" style = "stroke: Black;"/>
  <line x1="   175" y1="   160" x2="  1925" y2="   160" style = "stroke: Black;"/>
  <line x1="  1925" y1="   160" x2="  1925" y2="   190" style = "stroke: Black;"/>
  <line x1="  1925" y1="   190" x2="  1900" y2="   190" style = "stroke: Black;"/>
  <line x1="   200" y1="   270" x2="   175" y2="   270" style = "stroke: Black;"/>
  <line x1="   175" y1="   270" x2="   175" y2="   240" style = "stroke: Black;"/>
  <line x1="   175" y1="   240" x2="  1925" y2="   240" style = "stroke: Black;"/>
  <line x1="  1925" y1="   240" x2="  1925" y2="   270" style = "stroke: Black;"/>
  <line x1="  1925" y1="   270" x2="  1900" y2="   270" style = "stroke: Black;"/>
  <text x="   200" y="   640">Unused Non-Parent Objects:</text>
  <text x="   220" y="   660">SUPPLY AIR TEMP MANAGER 1</text>
  <text x="   220" y="   680">SUPPLY AIR TEMP MANAGER 2</text>
  <text x="   220" y="   700">SUPPLY AIR TEMP MANAGER 3</text>
  <text x="   220" y="   720">SUPPLY AIR TEMP MANAGER 4</text>
  <text x="   220" y="   740">MIXED AIR TEMP MANAGER 1</text>
  <text x="   220" y="   760">MIXED AIR TEMP MANAGER 2</text>
  <text x="   220" y="   780">MIXED AIR TEMP MANAGER 3</text>
  <text x="   220" y="   800">MIXED AIR TEMP MANAGER 4</text>
  <text x="   220" y="   820">OA CONTROLLER 1</text>
  <text x="   220" y="   840">OA CONTROLLER 2</text>
  <text x="   220" y="   860">OA CONTROLLER 3</text>
  <text x="   220" y="   880">OA CONTROLLER 4</text>
  <text x="   200" y="   920">
The following are not supported: objects related to controls, AirTerminal:SingleDuct:Uncontrolled, or ZoneHVAC:IdealLoadsAirSystem</text>
</g>
</svg>
