<?xml version="1.0"?>
<svg width="250mm" height="200mm" viewBox="0 0   4500    1500"
     xmlns="http://www.w3.org/2000/svg"
     xmlns:xlink="http://www.w3.org/1999/xlink"
     xmlns:ev="http://www.w3.org/2001/xml-events">
<g font-family="Verdana" font-size="8" >
  <rect x="   950" y="   100" width="   200" height="    20" style = "fill:wheat; stroke: Black;"/>     4
  <text x="   952" y="   113">FTLB LOAD DEMAND SPLITTER</text>
  <rect x="  1450" y="   100" width="   200" height="    20" style = "fill:wheat; stroke: Black;"/>     5
  <text x="  1452" y="   113">FTLB LOAD DEMAND MIXER</text>
  <rect x="   450" y="    20" width="   200" height="    20" style = "fill:wheat; stroke: Black;"/>     6
  <text x="   452" y="    33">FTLB LOAD SUPPLY SPLITTER</text>
  <rect x="   200" y="   100" width="   200" height="    20" style = "fill:wheat; stroke: Black;"/>     7
  <text x="   202" y="   113">FTLB LOAD SUPPLY MIXER</text>
  <rect x="   950" y="   180" width="   200" height="    20" style = "fill:wheat; stroke: Black;"/>     8
  <text x="   952" y="   193">TRANSFER DEMAND SPLITTER</text>
  <rect x="   950" y="    20" width="   200" height="    20" style = "fill:wheat; stroke: Black;"/>     9
  <text x="   952" y="    33">TRANSFER DEMAND MIXER</text>
  <rect x="  1700" y="    20" width="   200" height="    20" style = "fill:wheat; stroke: Black;"/>    10
  <text x="  1702" y="    33">TRANSFER SUPPLY SPLITTER</text>
  <rect x="   200" y="   180" width="   200" height="    20" style = "fill:wheat; stroke: Black;"/>    11
  <text x="   202" y="   193">TRANSFER SUPPLY MIXER</text>
  <rect x="  4200" y="    20" width="   200" height="    20" style = "fill:wheat; stroke: Black;"/>    12
  <text x="  4202" y="    33">FTLB DEMAND SPLITTER</text>
  <rect x="  2200" y="    20" width="   200" height="    20" style = "fill:wheat; stroke: Black;"/>    13
  <text x="  2202" y="    33">FTLB DEMAND MIXER</text>
  <rect x="  2950" y="    20" width="   200" height="    20" style = "fill:wheat; stroke: Black;"/>    14
  <text x="  2952" y="    33">FTLB SUPPLY SPLITTER</text>
  <rect x="  3450" y="    20" width="   200" height="    20" style = "fill:wheat; stroke: Black;"/>    15
  <text x="  3452" y="    33">FTLB SUPPLY MIXER</text>
  <rect x="   450" y="   100" width="   200" height="    20" style = "fill:wheat; stroke: Black;"/>    16
  <text x="   452" y="   113">FTLB LOAD SUPPLY OUTLET PIPE</text>
  <rect x="   700" y="   100" width="   200" height="    20" style = "fill:wheat; stroke: Black;"/>    17
  <text x="   702" y="   113">FTLB LOAD DEMAND INLET PIPE</text>
  <rect x="  1700" y="   100" width="   200" height="    20" style = "fill:wheat; stroke: Black;"/>    18
  <text x="  1702" y="   113">FTLB LOAD DEMAND OUTLET PIPE</text>
  <rect x="   450" y="   180" width="   200" height="    20" style = "fill:wheat; stroke: Black;"/>    19
  <text x="   452" y="   193">TRANSFER SUPPLY OUTLET PIPE</text>
  <rect x="   700" y="   180" width="   200" height="    20" style = "fill:wheat; stroke: Black;"/>    20
  <text x="   702" y="   193">TRANSFER DEMAND INLET PIPE</text>
  <rect x="  1200" y="    20" width="   200" height="    20" style = "fill:wheat; stroke: Black;"/>    21
  <text x="  1202" y="    33">TRANSFER DEMAND OUTLET PIPE</text>
  <rect x="  3700" y="    20" width="   200" height="    20" style = "fill:wheat; stroke: Black;"/>    22
  <text x="  3702" y="    33">FTLB SUPPLY OUTLET PIPE</text>
  <rect x="  3950" y="    20" width="   200" height="    20" style = "fill:wheat; stroke: Black;"/>    23
  <text x="  3952" y="    33">FTLB DEMAND INLET PIPE</text>
  <rect x="  2450" y="    20" width="   200" height="    20" style = "fill:wheat; stroke: Black;"/>    24
  <text x="  2452" y="    33">FTLB DEMAND OUTLET PIPE</text>
  <rect x="  1200" y="   100" width="   200" height="    20" style = "fill:snow; stroke: Black;"/>    25
  <text x="  1202" y="   113">LOAD PROFILE FTLB</text>
  <rect x="   700" y="    20" width="   200" height="    20" style = "fill:aliceblue; stroke: Black;"/>    26
  <text x="   702" y="    33">FTLB TRANSFER TO FTLB LOAD HX</text>
  <rect x="  1950" y="    20" width="   200" height="    20" style = "fill:aliceblue; stroke: Black;"/>    27
  <text x="  1952" y="    33">FTLB TO TRANSFER HX</text>
  <rect x="  3200" y="    20" width="   200" height="    20" style = "fill:indianred; stroke: Black;"/>    28
  <text x="  3202" y="    33">FTLB PURCHASED HEATING</text>
  <rect x="   200" y="    20" width="   200" height="    20" style = "fill:springgreen; stroke: Black;"/>    29
  <text x="   202" y="    33">FTLB LOAD PUMP</text>
  <rect x="  1450" y="    20" width="   200" height="    20" style = "fill:springgreen; stroke: Black;"/>    30
  <text x="  1452" y="    33">TRANSFER PUMP</text>
  <rect x="  2700" y="    20" width="   200" height="    20" style = "fill:springgreen; stroke: Black;"/>    31
  <text x="  2702" y="    33">FTLB PUMP</text>
  <line x1="  1150" y1="   110" x2="  1200" y2="   110" style = "stroke: Black;"/>
  <line x1="  1650" y1="   110" x2="  1700" y2="   110" style = "stroke: Black;"/>
  <line x1="   650" y1="    30" x2="   700" y2="    30" style = "stroke: Black;"/>
  <line x1="   400" y1="   110" x2="   450" y2="   110" style = "stroke: Black;"/>
  <line x1="  1150" y1="   190" x2="   700" y2="    30" style = "stroke: Black;"/>
  <line x1="  1150" y1="    30" x2="  1200" y2="    30" style = "stroke: Black;"/>
  <line x1="  1900" y1="    30" x2="  1950" y2="    30" style = "stroke: Black;"/>
  <line x1="   400" y1="   190" x2="   450" y2="   190" style = "stroke: Black;"/>
  <line x1="  4400" y1="    30" x2="  1950" y2="    30" style = "stroke: Black;"/>
  <line x1="  2400" y1="    30" x2="  2450" y2="    30" style = "stroke: Black;"/>
  <line x1="  3150" y1="    30" x2="  3200" y2="    30" style = "stroke: Black;"/>
  <line x1="  3650" y1="    30" x2="  3700" y2="    30" style = "stroke: Black;"/>
  <line x1="   650" y1="   110" x2="   700" y2="   110" style = "stroke: Black;"/>
  <line x1="   900" y1="   110" x2="   950" y2="   110" style = "stroke: Black;"/>
  <line x1="   650" y1="   190" x2="   700" y2="   190" style = "stroke: Black;"/>
  <line x1="   900" y1="   190" x2="   950" y2="   190" style = "stroke: Black;"/>
  <line x1="  1400" y1="    30" x2="  1450" y2="    30" style = "stroke: Black;"/>
  <line x1="  3900" y1="    30" x2="  3950" y2="    30" style = "stroke: Black;"/>
  <line x1="  4150" y1="    30" x2="  4200" y2="    30" style = "stroke: Black;"/>
  <line x1="  2650" y1="    30" x2="  2700" y2="    30" style = "stroke: Black;"/>
  <line x1="  1400" y1="   110" x2="  1450" y2="   110" style = "stroke: Black;"/>
  <line x1="   900" y1="    30" x2="   950" y2="    30" style = "stroke: Black;"/>
  <line x1="   900" y1="    30" x2="   200" y2="   110" style = "stroke: Black;"/>
  <line x1="  2150" y1="    30" x2="  2200" y2="    30" style = "stroke: Black;"/>
  <line x1="  2150" y1="    30" x2="   200" y2="   190" style = "stroke: Black;"/>
  <line x1="  3400" y1="    30" x2="  3450" y2="    30" style = "stroke: Black;"/>
  <line x1="   400" y1="    30" x2="   450" y2="    30" style = "stroke: Black;"/>
  <line x1="  1650" y1="    30" x2="  1700" y2="    30" style = "stroke: Black;"/>
  <line x1="  2900" y1="    30" x2="  2950" y2="    30" style = "stroke: Black;"/>
  <text x="   200" y="   240">Unused Non-Parent Objects:</text>
  <text x="   220" y="   260">FTLB LOAD LOOP SETPOINT MANAGER</text>
  <text x="   220" y="   280">TRANSFER LOOP SETPOINT MANAGER</text>
  <text x="   220" y="   300">FTLB LOOP SETPOINT MANAGER</text>
  <text x="   200" y="   340">
The following are not supported: objects related to controls, AirTerminal:SingleDuct:Uncontrolled, or ZoneHVAC:IdealLoadsAirSystem</text>
</g>
</svg>
