  0
SECTION
  2
ENTITIES
999
DXF created from EnergyPlus
999
Program Version,EnergyPlus-Windows-64 8.0.0.008, YMD=2013.06.10 17:07
999
Polygon Action,ThickPolyline
999
Color Scheme,Default
999
Text - True North
  0
TEXT
  8
1
  6
Continuous
 62
  3
 10
      -11.00000
 20
        3.00000
 30
        0.10000
 40
 .25
  1
True North
 41
 0.0
  7
MONOTXT
210
0.0
220
0.0
230
1.0
999
Text - Building Title
  0
TEXT
  8
1
  6
Continuous
 62
  3
 10
      -14.00000
 20
       -1.00000
 30
        0.10000
 40
 .4
  1
Building - Ref Bldg Secondary School New2004_v1.3_5.0
 41
 0.0
  7
MONOTXT
210
0.0
220
0.0
230
1.0
999
North Arrow Stem
  0
3DFACE
  8
1
 62
  3
 10
      -10.00000
 20
        3.00000
 30
        0.10000
 11
      -10.00000
 21
        3.00000
 31
        0.00000
 12
      -10.00000
 22
        0.00000
 32
        0.00000
 13
      -10.00000
 23
        0.00000
 33
        0.10000
999
North Arrow Head 1
  0
3DFACE
  8
1
 62
  3
 10
      -10.00000
 20
        3.00000
 30
        0.10000
 11
      -10.00000
 21
        3.00000
 31
        0.00000
 12
      -10.50000
 22
        2.13398
 32
        0.00000
 13
      -10.50000
 23
        2.13398
 33
        0.10000
999
North Arrow Head 2
  0
3DFACE
  8
1
 62
  3
 10
      -10.00000
 20
        3.00000
 30
        0.10000
 11
      -10.00000
 21
        3.00000
 31
        0.00000
 12
       -9.50000
 22
        2.13398
 32
        0.00000
 13
       -9.50000
 23
        2.13398
 33
        0.10000
999
North Arrow Side 1
  0
3DFACE
  8
1
 62
  3
 10
      -10.50000
 20
        4.50000
 30
        0.10000
 11
      -10.50000
 21
        4.50000
 31
        0.00000
 12
      -10.50000
 22
        3.50000
 32
        0.00000
 13
      -10.50000
 23
        3.50000
 33
        0.10000
999
North Arrow Side 2
  0
3DFACE
  8
1
 62
  3
 10
      -10.50000
 20
        4.50000
 30
        0.10000
 11
      -10.50000
 21
        4.50000
 31
        0.00000
 12
       -9.50000
 22
        3.50000
 32
        0.00000
 13
       -9.50000
 23
        3.50000
 33
        0.10000
999
North Arrow Side 3
  0
3DFACE
  8
1
 62
  3
 10
       -9.50000
 20
        4.50000
 30
        0.10000
 11
       -9.50000
 21
        4.50000
 31
        0.00000
 12
       -9.50000
 22
        3.50000
 32
        0.00000
 13
       -9.50000
 23
        3.50000
 33
        0.10000
999
Zone Names
999
Zone=1:AUDITORIUM_ZN_1_FLR_1
999
Zone=2:AUX_GYM_ZN_1_FLR_1
999
Zone=3:BATHROOMS_ZN_1_FLR_1
999
Zone=4:BATHROOMS_ZN_1_FLR_2
999
Zone=5:CAFETERIA_ZN_1_FLR_1
999
Zone=6:CORNER_CLASS_1_POD_1_ZN_1_FLR_1
999
Zone=7:CORNER_CLASS_1_POD_1_ZN_1_FLR_2
999
Zone=8:CORNER_CLASS_1_POD_2_ZN_1_FLR_1
999
Zone=9:CORNER_CLASS_1_POD_2_ZN_1_FLR_2
999
Zone=10:CORNER_CLASS_1_POD_3_ZN_1_FLR_1
999
Zone=11:CORNER_CLASS_1_POD_3_ZN_1_FLR_2
999
Zone=12:CORNER_CLASS_2_POD_1_ZN_1_FLR_1
999
Zone=13:CORNER_CLASS_2_POD_1_ZN_1_FLR_2
999
Zone=14:CORNER_CLASS_2_POD_2_ZN_1_FLR_1
999
Zone=15:CORNER_CLASS_2_POD_2_ZN_1_FLR_2
999
Zone=16:CORNER_CLASS_2_POD_3_ZN_1_FLR_1
999
Zone=17:CORNER_CLASS_2_POD_3_ZN_1_FLR_2
999
Zone=18:CORRIDOR_POD_1_ZN_1_FLR_1
999
Zone=19:CORRIDOR_POD_1_ZN_1_FLR_2
999
Zone=20:CORRIDOR_POD_2_ZN_1_FLR_1
999
Zone=21:CORRIDOR_POD_2_ZN_1_FLR_2
999
Zone=22:CORRIDOR_POD_3_ZN_1_FLR_1
999
Zone=23:CORRIDOR_POD_3_ZN_1_FLR_2
999
Zone=24:GYM_ZN_1_FLR_1
999
Zone=25:KITCHEN_ZN_1_FLR_1
999
Zone=26:LIBRARY_MEDIA_CENTER_ZN_1_FLR_2
999
Zone=27:LOBBY_ZN_1_FLR_1
999
Zone=28:LOBBY_ZN_1_FLR_2
999
Zone=29:MAIN_CORRIDOR_ZN_1_FLR_1
999
Zone=30:MAIN_CORRIDOR_ZN_1_FLR_2
999
Zone=31:MECH_ZN_1_FLR_1
999
Zone=32:MECH_ZN_1_FLR_2
999
Zone=33:MULT_CLASS_1_POD_1_ZN_1_FLR_1
999
Zone=34:MULT_CLASS_1_POD_1_ZN_1_FLR_2
999
Zone=35:MULT_CLASS_1_POD_2_ZN_1_FLR_1
999
Zone=36:MULT_CLASS_1_POD_2_ZN_1_FLR_2
999
Zone=37:MULT_CLASS_1_POD_3_ZN_1_FLR_1
999
Zone=38:MULT_CLASS_1_POD_3_ZN_1_FLR_2
999
Zone=39:MULT_CLASS_2_POD_1_ZN_1_FLR_1
999
Zone=40:MULT_CLASS_2_POD_1_ZN_1_FLR_2
999
Zone=41:MULT_CLASS_2_POD_2_ZN_1_FLR_1
999
Zone=42:MULT_CLASS_2_POD_2_ZN_1_FLR_2
999
Zone=43:MULT_CLASS_2_POD_3_ZN_1_FLR_1
999
Zone=44:MULT_CLASS_2_POD_3_ZN_1_FLR_2
999
Zone=45:OFFICES_ZN_1_FLR_1
999
Zone=46:OFFICES_ZN_1_FLR_2
999
AUDITORIUM_ZN_1_FLR_1:AUDITORIUM_ZN_1_FLR_1_WALL_1
  0
3DFACE
  8
AUDITORIUM_ZN_1_FLR_1
 62
 43
 10
       79.00000
 20
       75.00000
 30
        4.00000
 11
       79.00000
 21
       75.00000
 31
        0.00000
 12
      117.00000
 22
       75.00000
 32
        0.00000
 13
      117.00000
 23
       75.00000
 33
        4.00000
999
AUDITORIUM_ZN_1_FLR_1:AUDITORIUM_ZN_1_FLR_1_WALL_2
  0
3DFACE
  8
AUDITORIUM_ZN_1_FLR_1
 62
 43
 10
      117.00000
 20
       75.00000
 30
        4.00000
 11
      117.00000
 21
       75.00000
 31
        0.00000
 12
      117.00000
 22
      101.00000
 32
        0.00000
 13
      117.00000
 23
      101.00000
 33
        4.00000
999
AUDITORIUM_ZN_1_FLR_1:AUDITORIUM_ZN_1_FLR_1_WALL_3
  0
3DFACE
  8
AUDITORIUM_ZN_1_FLR_1
 62
 43
 10
      117.00000
 20
      101.00000
 30
        4.00000
 11
      117.00000
 21
      101.00000
 31
        0.00000
 12
       79.00000
 22
      101.00000
 32
        0.00000
 13
       79.00000
 23
      101.00000
 33
        4.00000
999
AUDITORIUM_ZN_1_FLR_1:AUDITORIUM_ZN_1_FLR_1_WALL_3_WINDOW_1
  0
3DFACE
  8
AUDITORIUM_ZN_1_FLR_1
 62
143
 10
      116.95000
 20
      101.00000
 30
        2.50370
 11
      116.95000
 21
      101.00000
 31
        1.10000
 12
       79.05000
 22
      101.00000
 32
        1.10000
 13
       79.05000
 23
      101.00000
 33
        2.50370
999
AUDITORIUM_ZN_1_FLR_1:AUDITORIUM_ZN_1_FLR_1_WALL_4
  0
3DFACE
  8
AUDITORIUM_ZN_1_FLR_1
 62
 43
 10
       79.00000
 20
      101.00000
 30
        4.00000
 11
       79.00000
 21
      101.00000
 31
        0.00000
 12
       79.00000
 22
       75.00000
 32
        0.00000
 13
       79.00000
 23
       75.00000
 33
        4.00000
999
AUDITORIUM_ZN_1_FLR_1:AUDITORIUM_ZN_1_FLR_2_WALL_1
  0
3DFACE
  8
AUDITORIUM_ZN_1_FLR_1
 62
 43
 10
       79.00000
 20
       75.00000
 30
        8.00000
 11
       79.00000
 21
       75.00000
 31
        4.00000
 12
      117.00000
 22
       75.00000
 32
        4.00000
 13
      117.00000
 23
       75.00000
 33
        8.00000
999
AUDITORIUM_ZN_1_FLR_1:AUDITORIUM_ZN_1_FLR_2_WALL_2
  0
3DFACE
  8
AUDITORIUM_ZN_1_FLR_1
 62
 43
 10
      117.00000
 20
       75.00000
 30
        8.00000
 11
      117.00000
 21
       75.00000
 31
        4.00000
 12
      117.00000
 22
      101.00000
 32
        4.00000
 13
      117.00000
 23
      101.00000
 33
        8.00000
999
AUDITORIUM_ZN_1_FLR_1:AUDITORIUM_ZN_1_FLR_2_WALL_3
  0
3DFACE
  8
AUDITORIUM_ZN_1_FLR_1
 62
 43
 10
      117.00000
 20
      101.00000
 30
        8.00000
 11
      117.00000
 21
      101.00000
 31
        4.00000
 12
       79.00000
 22
      101.00000
 32
        4.00000
 13
       79.00000
 23
      101.00000
 33
        8.00000
999
AUDITORIUM_ZN_1_FLR_1:AUDITORIUM_ZN_1_FLR_2_WALL_3_WINDOW_1
  0
3DFACE
  8
AUDITORIUM_ZN_1_FLR_1
 62
143
 10
      116.95000
 20
      101.00000
 30
        6.50370
 11
      116.95000
 21
      101.00000
 31
        5.10000
 12
       79.05000
 22
      101.00000
 32
        5.10000
 13
       79.05000
 23
      101.00000
 33
        6.50370
999
AUDITORIUM_ZN_1_FLR_1:AUDITORIUM_ZN_1_FLR_2_WALL_4
  0
3DFACE
  8
AUDITORIUM_ZN_1_FLR_1
 62
 43
 10
       79.00000
 20
      101.00000
 30
        8.00000
 11
       79.00000
 21
      101.00000
 31
        4.00000
 12
       79.00000
 22
       75.00000
 32
        4.00000
 13
       79.00000
 23
       75.00000
 33
        8.00000
999
AUDITORIUM_ZN_1_FLR_1:AUDITORIUM_ZN_1_FLR_1_FLOOR
  0
3DFACE
  8
AUDITORIUM_ZN_1_FLR_1
 62
  8
 10
       79.00000
 20
      101.00000
 30
        0.00000
 11
      117.00000
 21
      101.00000
 31
        0.00000
 12
      117.00000
 22
       75.00000
 32
        0.00000
 13
       79.00000
 23
       75.00000
 33
        0.00000
999
AUDITORIUM_ZN_1_FLR_1:AUDITORIUM_ZN_1_FLR_2_CEILING
  0
3DFACE
  8
AUDITORIUM_ZN_1_FLR_1
 62
 15
 10
       79.00000
 20
       75.00000
 30
        8.00000
 11
      117.00000
 21
       75.00000
 31
        8.00000
 12
      117.00000
 22
      101.00000
 32
        8.00000
 13
       79.00000
 23
      101.00000
 33
        8.00000
999
AUX_GYM_ZN_1_FLR_1:AUX_GYM_ZN_1_FLR_1_WALL_1
  0
3DFACE
  8
AUX_GYM_ZN_1_FLR_1
 62
 43
 10
      117.00000
 20
       14.00000
 30
        4.00000
 11
      117.00000
 21
       14.00000
 31
        0.00000
 12
      141.00000
 22
       14.00000
 32
        0.00000
 13
      141.00000
 23
       14.00000
 33
        4.00000
999
AUX_GYM_ZN_1_FLR_1:AUX_GYM_ZN_1_FLR_1_WALL_1_WINDOW_1
  0
3DFACE
  8
AUX_GYM_ZN_1_FLR_1
 62
143
 10
      117.05000
 20
       14.00000
 30
        2.50590
 11
      117.05000
 21
       14.00000
 31
        1.10000
 12
      140.95000
 22
       14.00000
 32
        1.10000
 13
      140.95000
 23
       14.00000
 33
        2.50590
999
AUX_GYM_ZN_1_FLR_1:AUX_GYM_ZN_1_FLR_1_WALL_2
  0
3DFACE
  8
AUX_GYM_ZN_1_FLR_1
 62
 43
 10
      141.00000
 20
       14.00000
 30
        4.00000
 11
      141.00000
 21
       14.00000
 31
        0.00000
 12
      141.00000
 22
       66.00000
 32
        0.00000
 13
      141.00000
 23
       66.00000
 33
        4.00000
999
AUX_GYM_ZN_1_FLR_1:AUX_GYM_ZN_1_FLR_1_WALL_2_WINDOW_1
  0
3DFACE
  8
AUX_GYM_ZN_1_FLR_1
 62
143
 10
      141.00000
 20
       14.05000
 30
        2.50270
 11
      141.00000
 21
       14.05000
 31
        1.10000
 12
      141.00000
 22
       65.95000
 32
        1.10000
 13
      141.00000
 23
       65.95000
 33
        2.50270
999
AUX_GYM_ZN_1_FLR_1:AUX_GYM_ZN_1_FLR_1_WALL_3
  0
3DFACE
  8
AUX_GYM_ZN_1_FLR_1
 62
 43
 10
      141.00000
 20
       66.00000
 30
        4.00000
 11
      141.00000
 21
       66.00000
 31
        0.00000
 12
      117.00000
 22
       66.00000
 32
        0.00000
 13
      117.00000
 23
       66.00000
 33
        4.00000
999
AUX_GYM_ZN_1_FLR_1:AUX_GYM_ZN_1_FLR_1_WALL_4
  0
3DFACE
  8
AUX_GYM_ZN_1_FLR_1
 62
 43
 10
      117.00000
 20
       66.00000
 30
        4.00000
 11
      117.00000
 21
       66.00000
 31
        0.00000
 12
      117.00000
 22
       14.00000
 32
        0.00000
 13
      117.00000
 23
       14.00000
 33
        4.00000
999
AUX_GYM_ZN_1_FLR_1:AUX_GYM_ZN_1_FLR_2_WALL_1
  0
3DFACE
  8
AUX_GYM_ZN_1_FLR_1
 62
 43
 10
      117.00000
 20
       14.00000
 30
        8.00000
 11
      117.00000
 21
       14.00000
 31
        4.00000
 12
      141.00000
 22
       14.00000
 32
        4.00000
 13
      141.00000
 23
       14.00000
 33
        8.00000
999
AUX_GYM_ZN_1_FLR_1:AUX_GYM_ZN_1_FLR_2_WALL_1_WINDOW_1
  0
3DFACE
  8
AUX_GYM_ZN_1_FLR_1
 62
143
 10
      117.05000
 20
       14.00000
 30
        6.50590
 11
      117.05000
 21
       14.00000
 31
        5.10000
 12
      140.95000
 22
       14.00000
 32
        5.10000
 13
      140.95000
 23
       14.00000
 33
        6.50590
999
AUX_GYM_ZN_1_FLR_1:AUX_GYM_ZN_1_FLR_2_WALL_2
  0
3DFACE
  8
AUX_GYM_ZN_1_FLR_1
 62
 43
 10
      141.00000
 20
       14.00000
 30
        8.00000
 11
      141.00000
 21
       14.00000
 31
        4.00000
 12
      141.00000
 22
       66.00000
 32
        4.00000
 13
      141.00000
 23
       66.00000
 33
        8.00000
999
AUX_GYM_ZN_1_FLR_1:AUX_GYM_ZN_1_FLR_2_WALL_2_WINDOW_1
  0
3DFACE
  8
AUX_GYM_ZN_1_FLR_1
 62
143
 10
      141.00000
 20
       14.05000
 30
        6.50270
 11
      141.00000
 21
       14.05000
 31
        5.10000
 12
      141.00000
 22
       65.95000
 32
        5.10000
 13
      141.00000
 23
       65.95000
 33
        6.50270
999
AUX_GYM_ZN_1_FLR_1:AUX_GYM_ZN_1_FLR_2_WALL_3
  0
3DFACE
  8
AUX_GYM_ZN_1_FLR_1
 62
 43
 10
      141.00000
 20
       66.00000
 30
        8.00000
 11
      141.00000
 21
       66.00000
 31
        4.00000
 12
      117.00000
 22
       66.00000
 32
        4.00000
 13
      117.00000
 23
       66.00000
 33
        8.00000
999
AUX_GYM_ZN_1_FLR_1:AUX_GYM_ZN_1_FLR_2_WALL_4
  0
3DFACE
  8
AUX_GYM_ZN_1_FLR_1
 62
 43
 10
      117.00000
 20
       66.00000
 30
        8.00000
 11
      117.00000
 21
       66.00000
 31
        4.00000
 12
      117.00000
 22
       14.00000
 32
        4.00000
 13
      117.00000
 23
       14.00000
 33
        8.00000
999
AUX_GYM_ZN_1_FLR_1:AUX_GYM_ZN_1_FLR_1_FLOOR
  0
3DFACE
  8
AUX_GYM_ZN_1_FLR_1
 62
  8
 10
      117.00000
 20
       66.00000
 30
        0.00000
 11
      141.00000
 21
       66.00000
 31
        0.00000
 12
      141.00000
 22
       14.00000
 32
        0.00000
 13
      117.00000
 23
       14.00000
 33
        0.00000
999
AUX_GYM_ZN_1_FLR_1:AUX_GYM_ZN_1_FLR_2_CEILING
  0
3DFACE
  8
AUX_GYM_ZN_1_FLR_1
 62
 15
 10
      117.00000
 20
       14.00000
 30
        8.00000
 11
      141.00000
 21
       14.00000
 31
        8.00000
 12
      141.00000
 22
       66.00000
 32
        8.00000
 13
      117.00000
 23
       66.00000
 33
        8.00000
999
AUX_GYM_ZN_1_FLR_1:AUX_GYM_ZN_1_FLR_2_SKYLIGHT_1
  0
3DFACE
  8
AUX_GYM_ZN_1_FLR_1
 62
143
 10
      119.39000
 20
       16.27930
 30
        8.00000
 11
      120.61000
 21
       16.27930
 31
        8.00000
 12
      120.61000
 22
       17.49850
 32
        8.00000
 13
      119.39000
 23
       17.49850
 33
        8.00000
999
AUX_GYM_ZN_1_FLR_1:AUX_GYM_ZN_1_FLR_2_SKYLIGHT_10
  0
3DFACE
  8
AUX_GYM_ZN_1_FLR_1
 62
143
 10
      125.39000
 20
       27.83480
 30
        8.00000
 11
      126.61000
 21
       27.83480
 31
        8.00000
 12
      126.61000
 22
       29.05400
 32
        8.00000
 13
      125.39000
 23
       29.05400
 33
        8.00000
999
AUX_GYM_ZN_1_FLR_1:AUX_GYM_ZN_1_FLR_2_SKYLIGHT_11
  0
3DFACE
  8
AUX_GYM_ZN_1_FLR_1
 62
143
 10
      131.39000
 20
       27.83480
 30
        8.00000
 11
      132.61000
 21
       27.83480
 31
        8.00000
 12
      132.61000
 22
       29.05400
 32
        8.00000
 13
      131.39000
 23
       29.05400
 33
        8.00000
999
AUX_GYM_ZN_1_FLR_1:AUX_GYM_ZN_1_FLR_2_SKYLIGHT_12
  0
3DFACE
  8
AUX_GYM_ZN_1_FLR_1
 62
143
 10
      137.39000
 20
       27.83480
 30
        8.00000
 11
      138.61000
 21
       27.83480
 31
        8.00000
 12
      138.61000
 22
       29.05400
 32
        8.00000
 13
      137.39000
 23
       29.05400
 33
        8.00000
999
AUX_GYM_ZN_1_FLR_1:AUX_GYM_ZN_1_FLR_2_SKYLIGHT_13
  0
3DFACE
  8
AUX_GYM_ZN_1_FLR_1
 62
143
 10
      119.39000
 20
       33.61260
 30
        8.00000
 11
      120.61000
 21
       33.61260
 31
        8.00000
 12
      120.61000
 22
       34.83180
 32
        8.00000
 13
      119.39000
 23
       34.83180
 33
        8.00000
999
AUX_GYM_ZN_1_FLR_1:AUX_GYM_ZN_1_FLR_2_SKYLIGHT_14
  0
3DFACE
  8
AUX_GYM_ZN_1_FLR_1
 62
143
 10
      125.39000
 20
       33.61260
 30
        8.00000
 11
      126.61000
 21
       33.61260
 31
        8.00000
 12
      126.61000
 22
       34.83180
 32
        8.00000
 13
      125.39000
 23
       34.83180
 33
        8.00000
999
AUX_GYM_ZN_1_FLR_1:AUX_GYM_ZN_1_FLR_2_SKYLIGHT_15
  0
3DFACE
  8
AUX_GYM_ZN_1_FLR_1
 62
143
 10
      131.39000
 20
       33.61260
 30
        8.00000
 11
      132.61000
 21
       33.61260
 31
        8.00000
 12
      132.61000
 22
       34.83180
 32
        8.00000
 13
      131.39000
 23
       34.83180
 33
        8.00000
999
AUX_GYM_ZN_1_FLR_1:AUX_GYM_ZN_1_FLR_2_SKYLIGHT_16
  0
3DFACE
  8
AUX_GYM_ZN_1_FLR_1
 62
143
 10
      137.39000
 20
       33.61260
 30
        8.00000
 11
      138.61000
 21
       33.61260
 31
        8.00000
 12
      138.61000
 22
       34.83180
 32
        8.00000
 13
      137.39000
 23
       34.83180
 33
        8.00000
999
AUX_GYM_ZN_1_FLR_1:AUX_GYM_ZN_1_FLR_2_SKYLIGHT_17
  0
3DFACE
  8
AUX_GYM_ZN_1_FLR_1
 62
143
 10
      119.39000
 20
       39.39040
 30
        8.00000
 11
      120.61000
 21
       39.39040
 31
        8.00000
 12
      120.61000
 22
       40.60960
 32
        8.00000
 13
      119.39000
 23
       40.60960
 33
        8.00000
999
AUX_GYM_ZN_1_FLR_1:AUX_GYM_ZN_1_FLR_2_SKYLIGHT_18
  0
3DFACE
  8
AUX_GYM_ZN_1_FLR_1
 62
143
 10
      125.39000
 20
       39.39040
 30
        8.00000
 11
      126.61000
 21
       39.39040
 31
        8.00000
 12
      126.61000
 22
       40.60960
 32
        8.00000
 13
      125.39000
 23
       40.60960
 33
        8.00000
999
AUX_GYM_ZN_1_FLR_1:AUX_GYM_ZN_1_FLR_2_SKYLIGHT_19
  0
3DFACE
  8
AUX_GYM_ZN_1_FLR_1
 62
143
 10
      131.39000
 20
       39.39040
 30
        8.00000
 11
      132.61000
 21
       39.39040
 31
        8.00000
 12
      132.61000
 22
       40.60960
 32
        8.00000
 13
      131.39000
 23
       40.60960
 33
        8.00000
999
AUX_GYM_ZN_1_FLR_1:AUX_GYM_ZN_1_FLR_2_SKYLIGHT_2
  0
3DFACE
  8
AUX_GYM_ZN_1_FLR_1
 62
143
 10
      125.39000
 20
       16.27930
 30
        8.00000
 11
      126.61000
 21
       16.27930
 31
        8.00000
 12
      126.61000
 22
       17.49850
 32
        8.00000
 13
      125.39000
 23
       17.49850
 33
        8.00000
999
AUX_GYM_ZN_1_FLR_1:AUX_GYM_ZN_1_FLR_2_SKYLIGHT_20
  0
3DFACE
  8
AUX_GYM_ZN_1_FLR_1
 62
143
 10
      137.39000
 20
       39.39040
 30
        8.00000
 11
      138.61000
 21
       39.39040
 31
        8.00000
 12
      138.61000
 22
       40.60960
 32
        8.00000
 13
      137.39000
 23
       40.60960
 33
        8.00000
999
AUX_GYM_ZN_1_FLR_1:AUX_GYM_ZN_1_FLR_2_SKYLIGHT_21
  0
3DFACE
  8
AUX_GYM_ZN_1_FLR_1
 62
143
 10
      119.39000
 20
       45.16820
 30
        8.00000
 11
      120.61000
 21
       45.16820
 31
        8.00000
 12
      120.61000
 22
       46.38740
 32
        8.00000
 13
      119.39000
 23
       46.38740
 33
        8.00000
999
AUX_GYM_ZN_1_FLR_1:AUX_GYM_ZN_1_FLR_2_SKYLIGHT_22
  0
3DFACE
  8
AUX_GYM_ZN_1_FLR_1
 62
143
 10
      125.39000
 20
       45.16820
 30
        8.00000
 11
      126.61000
 21
       45.16820
 31
        8.00000
 12
      126.61000
 22
       46.38740
 32
        8.00000
 13
      125.39000
 23
       46.38740
 33
        8.00000
999
AUX_GYM_ZN_1_FLR_1:AUX_GYM_ZN_1_FLR_2_SKYLIGHT_23
  0
3DFACE
  8
AUX_GYM_ZN_1_FLR_1
 62
143
 10
      131.39000
 20
       45.16820
 30
        8.00000
 11
      132.61000
 21
       45.16820
 31
        8.00000
 12
      132.61000
 22
       46.38740
 32
        8.00000
 13
      131.39000
 23
       46.38740
 33
        8.00000
999
AUX_GYM_ZN_1_FLR_1:AUX_GYM_ZN_1_FLR_2_SKYLIGHT_24
  0
3DFACE
  8
AUX_GYM_ZN_1_FLR_1
 62
143
 10
      137.39000
 20
       45.16820
 30
        8.00000
 11
      138.61000
 21
       45.16820
 31
        8.00000
 12
      138.61000
 22
       46.38740
 32
        8.00000
 13
      137.39000
 23
       46.38740
 33
        8.00000
999
AUX_GYM_ZN_1_FLR_1:AUX_GYM_ZN_1_FLR_2_SKYLIGHT_25
  0
3DFACE
  8
AUX_GYM_ZN_1_FLR_1
 62
143
 10
      119.39000
 20
       50.94600
 30
        8.00000
 11
      120.61000
 21
       50.94600
 31
        8.00000
 12
      120.61000
 22
       52.16520
 32
        8.00000
 13
      119.39000
 23
       52.16520
 33
        8.00000
999
AUX_GYM_ZN_1_FLR_1:AUX_GYM_ZN_1_FLR_2_SKYLIGHT_26
  0
3DFACE
  8
AUX_GYM_ZN_1_FLR_1
 62
143
 10
      125.39000
 20
       50.94600
 30
        8.00000
 11
      126.61000
 21
       50.94600
 31
        8.00000
 12
      126.61000
 22
       52.16520
 32
        8.00000
 13
      125.39000
 23
       52.16520
 33
        8.00000
999
AUX_GYM_ZN_1_FLR_1:AUX_GYM_ZN_1_FLR_2_SKYLIGHT_27
  0
3DFACE
  8
AUX_GYM_ZN_1_FLR_1
 62
143
 10
      131.39000
 20
       50.94600
 30
        8.00000
 11
      132.61000
 21
       50.94600
 31
        8.00000
 12
      132.61000
 22
       52.16520
 32
        8.00000
 13
      131.39000
 23
       52.16520
 33
        8.00000
999
AUX_GYM_ZN_1_FLR_1:AUX_GYM_ZN_1_FLR_2_SKYLIGHT_28
  0
3DFACE
  8
AUX_GYM_ZN_1_FLR_1
 62
143
 10
      137.39000
 20
       50.94600
 30
        8.00000
 11
      138.61000
 21
       50.94600
 31
        8.00000
 12
      138.61000
 22
       52.16520
 32
        8.00000
 13
      137.39000
 23
       52.16520
 33
        8.00000
999
AUX_GYM_ZN_1_FLR_1:AUX_GYM_ZN_1_FLR_2_SKYLIGHT_29
  0
3DFACE
  8
AUX_GYM_ZN_1_FLR_1
 62
143
 10
      119.39000
 20
       56.72370
 30
        8.00000
 11
      120.61000
 21
       56.72370
 31
        8.00000
 12
      120.61000
 22
       57.94290
 32
        8.00000
 13
      119.39000
 23
       57.94290
 33
        8.00000
999
AUX_GYM_ZN_1_FLR_1:AUX_GYM_ZN_1_FLR_2_SKYLIGHT_3
  0
3DFACE
  8
AUX_GYM_ZN_1_FLR_1
 62
143
 10
      131.39000
 20
       16.27930
 30
        8.00000
 11
      132.61000
 21
       16.27930
 31
        8.00000
 12
      132.61000
 22
       17.49850
 32
        8.00000
 13
      131.39000
 23
       17.49850
 33
        8.00000
999
AUX_GYM_ZN_1_FLR_1:AUX_GYM_ZN_1_FLR_2_SKYLIGHT_30
  0
3DFACE
  8
AUX_GYM_ZN_1_FLR_1
 62
143
 10
      125.39000
 20
       56.72370
 30
        8.00000
 11
      126.61000
 21
       56.72370
 31
        8.00000
 12
      126.61000
 22
       57.94290
 32
        8.00000
 13
      125.39000
 23
       57.94290
 33
        8.00000
999
AUX_GYM_ZN_1_FLR_1:AUX_GYM_ZN_1_FLR_2_SKYLIGHT_31
  0
3DFACE
  8
AUX_GYM_ZN_1_FLR_1
 62
143
 10
      131.39000
 20
       56.72370
 30
        8.00000
 11
      132.61000
 21
       56.72370
 31
        8.00000
 12
      132.61000
 22
       57.94290
 32
        8.00000
 13
      131.39000
 23
       57.94290
 33
        8.00000
999
AUX_GYM_ZN_1_FLR_1:AUX_GYM_ZN_1_FLR_2_SKYLIGHT_32
  0
3DFACE
  8
AUX_GYM_ZN_1_FLR_1
 62
143
 10
      137.39000
 20
       56.72370
 30
        8.00000
 11
      138.61000
 21
       56.72370
 31
        8.00000
 12
      138.61000
 22
       57.94290
 32
        8.00000
 13
      137.39000
 23
       57.94290
 33
        8.00000
999
AUX_GYM_ZN_1_FLR_1:AUX_GYM_ZN_1_FLR_2_SKYLIGHT_33
  0
3DFACE
  8
AUX_GYM_ZN_1_FLR_1
 62
143
 10
      119.39000
 20
       62.50150
 30
        8.00000
 11
      120.61000
 21
       62.50150
 31
        8.00000
 12
      120.61000
 22
       63.72070
 32
        8.00000
 13
      119.39000
 23
       63.72070
 33
        8.00000
999
AUX_GYM_ZN_1_FLR_1:AUX_GYM_ZN_1_FLR_2_SKYLIGHT_34
  0
3DFACE
  8
AUX_GYM_ZN_1_FLR_1
 62
143
 10
      125.39000
 20
       62.50150
 30
        8.00000
 11
      126.61000
 21
       62.50150
 31
        8.00000
 12
      126.61000
 22
       63.72070
 32
        8.00000
 13
      125.39000
 23
       63.72070
 33
        8.00000
999
AUX_GYM_ZN_1_FLR_1:AUX_GYM_ZN_1_FLR_2_SKYLIGHT_35
  0
3DFACE
  8
AUX_GYM_ZN_1_FLR_1
 62
143
 10
      131.39000
 20
       62.50150
 30
        8.00000
 11
      132.61000
 21
       62.50150
 31
        8.00000
 12
      132.61000
 22
       63.72070
 32
        8.00000
 13
      131.39000
 23
       63.72070
 33
        8.00000
999
AUX_GYM_ZN_1_FLR_1:AUX_GYM_ZN_1_FLR_2_SKYLIGHT_36
  0
3DFACE
  8
AUX_GYM_ZN_1_FLR_1
 62
143
 10
      137.39000
 20
       62.50150
 30
        8.00000
 11
      138.61000
 21
       62.50150
 31
        8.00000
 12
      138.61000
 22
       63.72070
 32
        8.00000
 13
      137.39000
 23
       63.72070
 33
        8.00000
999
AUX_GYM_ZN_1_FLR_1:AUX_GYM_ZN_1_FLR_2_SKYLIGHT_4
  0
3DFACE
  8
AUX_GYM_ZN_1_FLR_1
 62
143
 10
      137.39000
 20
       16.27930
 30
        8.00000
 11
      138.61000
 21
       16.27930
 31
        8.00000
 12
      138.61000
 22
       17.49850
 32
        8.00000
 13
      137.39000
 23
       17.49850
 33
        8.00000
999
AUX_GYM_ZN_1_FLR_1:AUX_GYM_ZN_1_FLR_2_SKYLIGHT_5
  0
3DFACE
  8
AUX_GYM_ZN_1_FLR_1
 62
143
 10
      119.39000
 20
       22.05710
 30
        8.00000
 11
      120.61000
 21
       22.05710
 31
        8.00000
 12
      120.61000
 22
       23.27630
 32
        8.00000
 13
      119.39000
 23
       23.27630
 33
        8.00000
999
AUX_GYM_ZN_1_FLR_1:AUX_GYM_ZN_1_FLR_2_SKYLIGHT_6
  0
3DFACE
  8
AUX_GYM_ZN_1_FLR_1
 62
143
 10
      125.39000
 20
       22.05710
 30
        8.00000
 11
      126.61000
 21
       22.05710
 31
        8.00000
 12
      126.61000
 22
       23.27630
 32
        8.00000
 13
      125.39000
 23
       23.27630
 33
        8.00000
999
AUX_GYM_ZN_1_FLR_1:AUX_GYM_ZN_1_FLR_2_SKYLIGHT_7
  0
3DFACE
  8
AUX_GYM_ZN_1_FLR_1
 62
143
 10
      131.39000
 20
       22.05710
 30
        8.00000
 11
      132.61000
 21
       22.05710
 31
        8.00000
 12
      132.61000
 22
       23.27630
 32
        8.00000
 13
      131.39000
 23
       23.27630
 33
        8.00000
999
AUX_GYM_ZN_1_FLR_1:AUX_GYM_ZN_1_FLR_2_SKYLIGHT_8
  0
3DFACE
  8
AUX_GYM_ZN_1_FLR_1
 62
143
 10
      137.39000
 20
       22.05710
 30
        8.00000
 11
      138.61000
 21
       22.05710
 31
        8.00000
 12
      138.61000
 22
       23.27630
 32
        8.00000
 13
      137.39000
 23
       23.27630
 33
        8.00000
999
AUX_GYM_ZN_1_FLR_1:AUX_GYM_ZN_1_FLR_2_SKYLIGHT_9
  0
3DFACE
  8
AUX_GYM_ZN_1_FLR_1
 62
143
 10
      119.39000
 20
       27.83480
 30
        8.00000
 11
      120.61000
 21
       27.83480
 31
        8.00000
 12
      120.61000
 22
       29.05400
 32
        8.00000
 13
      119.39000
 23
       29.05400
 33
        8.00000
999
BATHROOMS_ZN_1_FLR_1:BATHROOMS_ZN_1_FLR_1_WALL_1
  0
3DFACE
  8
BATHROOMS_ZN_1_FLR_1
 62
 43
 10
       64.00000
 20
       90.00000
 30
        4.00000
 11
       64.00000
 21
       90.00000
 31
        0.00000
 12
       79.00000
 22
       90.00000
 32
        0.00000
 13
       79.00000
 23
       90.00000
 33
        4.00000
999
BATHROOMS_ZN_1_FLR_1:BATHROOMS_ZN_1_FLR_1_WALL_2
  0
3DFACE
  8
BATHROOMS_ZN_1_FLR_1
 62
 43
 10
       79.00000
 20
       90.00000
 30
        4.00000
 11
       79.00000
 21
       90.00000
 31
        0.00000
 12
       79.00000
 22
      101.00000
 32
        0.00000
 13
       79.00000
 23
      101.00000
 33
        4.00000
999
BATHROOMS_ZN_1_FLR_1:BATHROOMS_ZN_1_FLR_1_WALL_3
  0
3DFACE
  8
BATHROOMS_ZN_1_FLR_1
 62
 43
 10
       79.00000
 20
      101.00000
 30
        4.00000
 11
       79.00000
 21
      101.00000
 31
        0.00000
 12
       79.00000
 22
      104.00000
 32
        0.00000
 13
       79.00000
 23
      104.00000
 33
        4.00000
999
BATHROOMS_ZN_1_FLR_1:BATHROOMS_ZN_1_FLR_1_WALL_3_WINDOW_1
  0
3DFACE
  8
BATHROOMS_ZN_1_FLR_1
 62
143
 10
       79.00000
 20
      101.05000
 30
        2.54830
 11
       79.00000
 21
      101.05000
 31
        1.10000
 12
       79.00000
 22
      103.95000
 32
        1.10000
 13
       79.00000
 23
      103.95000
 33
        2.54830
999
BATHROOMS_ZN_1_FLR_1:BATHROOMS_ZN_1_FLR_1_WALL_4
  0
3DFACE
  8
BATHROOMS_ZN_1_FLR_1
 62
 43
 10
       79.00000
 20
      104.00000
 30
        4.00000
 11
       79.00000
 21
      104.00000
 31
        0.00000
 12
       64.00000
 22
      104.00000
 32
        0.00000
 13
       64.00000
 23
      104.00000
 33
        4.00000
999
BATHROOMS_ZN_1_FLR_1:BATHROOMS_ZN_1_FLR_1_WALL_4_WINDOW_1
  0
3DFACE
  8
BATHROOMS_ZN_1_FLR_1
 62
143
 10
       78.95000
 20
      104.00000
 30
        2.50940
 11
       78.95000
 21
      104.00000
 31
        1.10000
 12
       64.05000
 22
      104.00000
 32
        1.10000
 13
       64.05000
 23
      104.00000
 33
        2.50940
999
BATHROOMS_ZN_1_FLR_1:BATHROOMS_ZN_1_FLR_1_WALL_5
  0
3DFACE
  8
BATHROOMS_ZN_1_FLR_1
 62
 43
 10
       64.00000
 20
      104.00000
 30
        4.00000
 11
       64.00000
 21
      104.00000
 31
        0.00000
 12
       64.00000
 22
       95.00000
 32
        0.00000
 13
       64.00000
 23
       95.00000
 33
        4.00000
999
BATHROOMS_ZN_1_FLR_1:BATHROOMS_ZN_1_FLR_1_WALL_6
  0
3DFACE
  8
BATHROOMS_ZN_1_FLR_1
 62
 43
 10
       64.00000
 20
       95.00000
 30
        4.00000
 11
       64.00000
 21
       95.00000
 31
        0.00000
 12
       64.00000
 22
       90.00000
 32
        0.00000
 13
       64.00000
 23
       90.00000
 33
        4.00000
999
BATHROOMS_ZN_1_FLR_1:BATHROOMS_ZN_1_FLR_1_FLOOR
  0
3DFACE
  8
BATHROOMS_ZN_1_FLR_1
 62
  8
 10
       64.00000
 20
      104.00000
 30
        0.00000
 11
       79.00000
 21
      104.00000
 31
        0.00000
 12
       79.00000
 22
       90.00000
 32
        0.00000
 13
       64.00000
 23
       90.00000
 33
        0.00000
999
BATHROOMS_ZN_1_FLR_1:BATHROOMS_ZN_1_FLR_1_CEILING
  0
3DFACE
  8
BATHROOMS_ZN_1_FLR_1
 62
 15
 10
       64.00000
 20
       90.00000
 30
        4.00000
 11
       79.00000
 21
       90.00000
 31
        4.00000
 12
       79.00000
 22
      104.00000
 32
        4.00000
 13
       64.00000
 23
      104.00000
 33
        4.00000
999
BATHROOMS_ZN_1_FLR_2:BATHROOMS_ZN_1_FLR_2_WALL_1
  0
3DFACE
  8
BATHROOMS_ZN_1_FLR_2
 62
 43
 10
       64.00000
 20
       90.00000
 30
        8.00000
 11
       64.00000
 21
       90.00000
 31
        4.00000
 12
       79.00000
 22
       90.00000
 32
        4.00000
 13
       79.00000
 23
       90.00000
 33
        8.00000
999
BATHROOMS_ZN_1_FLR_2:BATHROOMS_ZN_1_FLR_2_WALL_2
  0
3DFACE
  8
BATHROOMS_ZN_1_FLR_2
 62
 43
 10
       79.00000
 20
       90.00000
 30
        8.00000
 11
       79.00000
 21
       90.00000
 31
        4.00000
 12
       79.00000
 22
      101.00000
 32
        4.00000
 13
       79.00000
 23
      101.00000
 33
        8.00000
999
BATHROOMS_ZN_1_FLR_2:BATHROOMS_ZN_1_FLR_2_WALL_3
  0
3DFACE
  8
BATHROOMS_ZN_1_FLR_2
 62
 43
 10
       79.00000
 20
      101.00000
 30
        8.00000
 11
       79.00000
 21
      101.00000
 31
        4.00000
 12
       79.00000
 22
      104.00000
 32
        4.00000
 13
       79.00000
 23
      104.00000
 33
        8.00000
999
BATHROOMS_ZN_1_FLR_2:BATHROOMS_ZN_1_FLR_2_WALL_3_WINDOW_1
  0
3DFACE
  8
BATHROOMS_ZN_1_FLR_2
 62
143
 10
       79.00000
 20
      101.05000
 30
        6.54830
 11
       79.00000
 21
      101.05000
 31
        5.10000
 12
       79.00000
 22
      103.95000
 32
        5.10000
 13
       79.00000
 23
      103.95000
 33
        6.54830
999
BATHROOMS_ZN_1_FLR_2:BATHROOMS_ZN_1_FLR_2_WALL_4
  0
3DFACE
  8
BATHROOMS_ZN_1_FLR_2
 62
 43
 10
       79.00000
 20
      104.00000
 30
        8.00000
 11
       79.00000
 21
      104.00000
 31
        4.00000
 12
       64.00000
 22
      104.00000
 32
        4.00000
 13
       64.00000
 23
      104.00000
 33
        8.00000
999
BATHROOMS_ZN_1_FLR_2:BATHROOMS_ZN_1_FLR_2_WALL_4_WINDOW_1
  0
3DFACE
  8
BATHROOMS_ZN_1_FLR_2
 62
143
 10
       78.95000
 20
      104.00000
 30
        6.50940
 11
       78.95000
 21
      104.00000
 31
        5.10000
 12
       64.05000
 22
      104.00000
 32
        5.10000
 13
       64.05000
 23
      104.00000
 33
        6.50940
999
BATHROOMS_ZN_1_FLR_2:BATHROOMS_ZN_1_FLR_2_WALL_5
  0
3DFACE
  8
BATHROOMS_ZN_1_FLR_2
 62
 43
 10
       64.00000
 20
      104.00000
 30
        8.00000
 11
       64.00000
 21
      104.00000
 31
        4.00000
 12
       64.00000
 22
       95.00000
 32
        4.00000
 13
       64.00000
 23
       95.00000
 33
        8.00000
999
BATHROOMS_ZN_1_FLR_2:BATHROOMS_ZN_1_FLR_2_WALL_6
  0
3DFACE
  8
BATHROOMS_ZN_1_FLR_2
 62
 43
 10
       64.00000
 20
       95.00000
 30
        8.00000
 11
       64.00000
 21
       95.00000
 31
        4.00000
 12
       64.00000
 22
       90.00000
 32
        4.00000
 13
       64.00000
 23
       90.00000
 33
        8.00000
999
BATHROOMS_ZN_1_FLR_2:BATHROOMS_ZN_1_FLR_2_FLOOR
  0
3DFACE
  8
BATHROOMS_ZN_1_FLR_2
 62
  8
 10
       64.00000
 20
      104.00000
 30
        4.00000
 11
       79.00000
 21
      104.00000
 31
        4.00000
 12
       79.00000
 22
       90.00000
 32
        4.00000
 13
       64.00000
 23
       90.00000
 33
        4.00000
999
BATHROOMS_ZN_1_FLR_2:BATHROOMS_ZN_1_FLR_2_CEILING
  0
3DFACE
  8
BATHROOMS_ZN_1_FLR_2
 62
 15
 10
       64.00000
 20
       90.00000
 30
        8.00000
 11
       79.00000
 21
       90.00000
 31
        8.00000
 12
       79.00000
 22
      104.00000
 32
        8.00000
 13
       64.00000
 23
      104.00000
 33
        8.00000
999
CAFETERIA_ZN_1_FLR_1:CAFETERIA_ZN_1_FLR_1_WALL_1
  0
3DFACE
  8
CAFETERIA_ZN_1_FLR_1
 62
 43
 10
      117.00000
 20
       75.00000
 30
        4.00000
 11
      117.00000
 21
       75.00000
 31
        0.00000
 12
      141.00000
 22
       75.00000
 32
        0.00000
 13
      141.00000
 23
       75.00000
 33
        4.00000
999
CAFETERIA_ZN_1_FLR_1:CAFETERIA_ZN_1_FLR_1_WALL_2
  0
3DFACE
  8
CAFETERIA_ZN_1_FLR_1
 62
 43
 10
      141.00000
 20
       75.00000
 30
        4.00000
 11
      141.00000
 21
       75.00000
 31
        0.00000
 12
      141.00000
 22
      101.00000
 32
        0.00000
 13
      141.00000
 23
      101.00000
 33
        4.00000
999
CAFETERIA_ZN_1_FLR_1:CAFETERIA_ZN_1_FLR_1_WALL_2_WINDOW_1
  0
3DFACE
  8
CAFETERIA_ZN_1_FLR_1
 62
143
 10
      141.00000
 20
       75.05000
 30
        2.50540
 11
      141.00000
 21
       75.05000
 31
        1.10000
 12
      141.00000
 22
      100.95000
 32
        1.10000
 13
      141.00000
 23
      100.95000
 33
        2.50540
999
CAFETERIA_ZN_1_FLR_1:CAFETERIA_ZN_1_FLR_1_WALL_3
  0
3DFACE
  8
CAFETERIA_ZN_1_FLR_1
 62
 43
 10
      141.00000
 20
      101.00000
 30
        4.00000
 11
      141.00000
 21
      101.00000
 31
        0.00000
 12
      117.00000
 22
      101.00000
 32
        0.00000
 13
      117.00000
 23
      101.00000
 33
        4.00000
999
CAFETERIA_ZN_1_FLR_1:CAFETERIA_ZN_1_FLR_1_WALL_3_WINDOW_1
  0
3DFACE
  8
CAFETERIA_ZN_1_FLR_1
 62
143
 10
      140.95000
 20
      101.00000
 30
        2.50590
 11
      140.95000
 21
      101.00000
 31
        1.10000
 12
      117.05000
 22
      101.00000
 32
        1.10000
 13
      117.05000
 23
      101.00000
 33
        2.50590
999
CAFETERIA_ZN_1_FLR_1:CAFETERIA_ZN_1_FLR_1_WALL_4
  0
3DFACE
  8
CAFETERIA_ZN_1_FLR_1
 62
 43
 10
      117.00000
 20
      101.00000
 30
        4.00000
 11
      117.00000
 21
      101.00000
 31
        0.00000
 12
      117.00000
 22
       75.00000
 32
        0.00000
 13
      117.00000
 23
       75.00000
 33
        4.00000
999
CAFETERIA_ZN_1_FLR_1:CAFETERIA_ZN_1_FLR_1_FLOOR
  0
3DFACE
  8
CAFETERIA_ZN_1_FLR_1
 62
  8
 10
      117.00000
 20
      101.00000
 30
        0.00000
 11
      141.00000
 21
      101.00000
 31
        0.00000
 12
      141.00000
 22
       75.00000
 32
        0.00000
 13
      117.00000
 23
       75.00000
 33
        0.00000
999
CAFETERIA_ZN_1_FLR_1:CAFETERIA_ZN_1_FLR_1_CEILING
  0
3DFACE
  8
CAFETERIA_ZN_1_FLR_1
 62
 15
 10
      117.00000
 20
       75.00000
 30
        4.00000
 11
      141.00000
 21
       75.00000
 31
        4.00000
 12
      141.00000
 22
      101.00000
 32
        4.00000
 13
      117.00000
 23
      101.00000
 33
        4.00000
999
CORNER_CLASS_1_POD_1_ZN_1_FLR_1:CORNER_CLASS_1_POD_1_ZN_1_FLR_1_WALL_1
  0
3DFACE
  8
CORNER_CLASS_1_POD_1_ZN_1_FLR_1
 62
 43
 10
        0.00000
 20
        0.00000
 30
        4.00000
 11
        0.00000
 21
        0.00000
 31
        0.00000
 12
       11.00000
 22
        0.00000
 32
        0.00000
 13
       11.00000
 23
        0.00000
 33
        4.00000
999
CORNER_CLASS_1_POD_1_ZN_1_FLR_1:CORNER_CLASS_1_POD_1_ZN_1_FLR_1_WALL_1_WINDOW_1
  0
3DFACE
  8
CORNER_CLASS_1_POD_1_ZN_1_FLR_1
 62
143
 10
        0.05000
 20
        0.00000
 30
        2.51280
 11
        0.05000
 21
        0.00000
 31
        1.10000
 12
       10.95000
 22
        0.00000
 32
        1.10000
 13
       10.95000
 23
        0.00000
 33
        2.51280
999
CORNER_CLASS_1_POD_1_ZN_1_FLR_1:CORNER_CLASS_1_POD_1_ZN_1_FLR_1_WALL_2
  0
3DFACE
  8
CORNER_CLASS_1_POD_1_ZN_1_FLR_1
 62
 43
 10
       11.00000
 20
        0.00000
 30
        4.00000
 11
       11.00000
 21
        0.00000
 31
        0.00000
 12
       11.00000
 22
        9.00000
 32
        0.00000
 13
       11.00000
 23
        9.00000
 33
        4.00000
999
CORNER_CLASS_1_POD_1_ZN_1_FLR_1:CORNER_CLASS_1_POD_1_ZN_1_FLR_1_WALL_3
  0
3DFACE
  8
CORNER_CLASS_1_POD_1_ZN_1_FLR_1
 62
 43
 10
       11.00000
 20
        9.00000
 30
        4.00000
 11
       11.00000
 21
        9.00000
 31
        0.00000
 12
        0.00000
 22
        9.00000
 32
        0.00000
 13
        0.00000
 23
        9.00000
 33
        4.00000
999
CORNER_CLASS_1_POD_1_ZN_1_FLR_1:CORNER_CLASS_1_POD_1_ZN_1_FLR_1_WALL_4
  0
3DFACE
  8
CORNER_CLASS_1_POD_1_ZN_1_FLR_1
 62
 43
 10
        0.00000
 20
        9.00000
 30
        4.00000
 11
        0.00000
 21
        9.00000
 31
        0.00000
 12
        0.00000
 22
        0.00000
 32
        0.00000
 13
        0.00000
 23
        0.00000
 33
        4.00000
999
CORNER_CLASS_1_POD_1_ZN_1_FLR_1:CORNER_CLASS_1_POD_1_ZN_1_FLR_1_WALL_4_WINDOW_1
  0
3DFACE
  8
CORNER_CLASS_1_POD_1_ZN_1_FLR_1
 62
143
 10
        0.00000
 20
        8.95000
 30
        2.51570
 11
        0.00000
 21
        8.95000
 31
        1.10000
 12
        0.00000
 22
        0.05000
 32
        1.10000
 13
        0.00000
 23
        0.05000
 33
        2.51570
999
CORNER_CLASS_1_POD_1_ZN_1_FLR_1:CORNER_CLASS_1_POD_1_ZN_1_FLR_1_FLOOR
  0
3DFACE
  8
CORNER_CLASS_1_POD_1_ZN_1_FLR_1
 62
  8
 10
        0.00000
 20
        9.00000
 30
        0.00000
 11
       11.00000
 21
        9.00000
 31
        0.00000
 12
       11.00000
 22
        0.00000
 32
        0.00000
 13
        0.00000
 23
        0.00000
 33
        0.00000
999
CORNER_CLASS_1_POD_1_ZN_1_FLR_1:CORNER_CLASS_1_POD_1_ZN_1_FLR_1_CEILING
  0
3DFACE
  8
CORNER_CLASS_1_POD_1_ZN_1_FLR_1
 62
 15
 10
        0.00000
 20
        0.00000
 30
        4.00000
 11
       11.00000
 21
        0.00000
 31
        4.00000
 12
       11.00000
 22
        9.00000
 32
        4.00000
 13
        0.00000
 23
        9.00000
 33
        4.00000
999
CORNER_CLASS_1_POD_1_ZN_1_FLR_2:CORNER_CLASS_1_POD_1_ZN_1_FLR_2_WALL_1
  0
3DFACE
  8
CORNER_CLASS_1_POD_1_ZN_1_FLR_2
 62
 43
 10
        0.00000
 20
        0.00000
 30
        8.00000
 11
        0.00000
 21
        0.00000
 31
        4.00000
 12
       11.00000
 22
        0.00000
 32
        4.00000
 13
       11.00000
 23
        0.00000
 33
        8.00000
999
CORNER_CLASS_1_POD_1_ZN_1_FLR_2:CORNER_CLASS_1_POD_1_ZN_1_FLR_2_WALL_1_WINDOW_1
  0
3DFACE
  8
CORNER_CLASS_1_POD_1_ZN_1_FLR_2
 62
143
 10
        0.05000
 20
        0.00000
 30
        6.51280
 11
        0.05000
 21
        0.00000
 31
        5.10000
 12
       10.95000
 22
        0.00000
 32
        5.10000
 13
       10.95000
 23
        0.00000
 33
        6.51280
999
CORNER_CLASS_1_POD_1_ZN_1_FLR_2:CORNER_CLASS_1_POD_1_ZN_1_FLR_2_WALL_2
  0
3DFACE
  8
CORNER_CLASS_1_POD_1_ZN_1_FLR_2
 62
 43
 10
       11.00000
 20
        0.00000
 30
        8.00000
 11
       11.00000
 21
        0.00000
 31
        4.00000
 12
       11.00000
 22
        9.00000
 32
        4.00000
 13
       11.00000
 23
        9.00000
 33
        8.00000
999
CORNER_CLASS_1_POD_1_ZN_1_FLR_2:CORNER_CLASS_1_POD_1_ZN_1_FLR_2_WALL_3
  0
3DFACE
  8
CORNER_CLASS_1_POD_1_ZN_1_FLR_2
 62
 43
 10
       11.00000
 20
        9.00000
 30
        8.00000
 11
       11.00000
 21
        9.00000
 31
        4.00000
 12
        0.00000
 22
        9.00000
 32
        4.00000
 13
        0.00000
 23
        9.00000
 33
        8.00000
999
CORNER_CLASS_1_POD_1_ZN_1_FLR_2:CORNER_CLASS_1_POD_1_ZN_1_FLR_2_WALL_4
  0
3DFACE
  8
CORNER_CLASS_1_POD_1_ZN_1_FLR_2
 62
 43
 10
        0.00000
 20
        9.00000
 30
        8.00000
 11
        0.00000
 21
        9.00000
 31
        4.00000
 12
        0.00000
 22
        0.00000
 32
        4.00000
 13
        0.00000
 23
        0.00000
 33
        8.00000
999
CORNER_CLASS_1_POD_1_ZN_1_FLR_2:CORNER_CLASS_1_POD_1_ZN_1_FLR_2_WALL_4_WINDOW_1
  0
3DFACE
  8
CORNER_CLASS_1_POD_1_ZN_1_FLR_2
 62
143
 10
        0.00000
 20
        8.95000
 30
        6.51570
 11
        0.00000
 21
        8.95000
 31
        5.10000
 12
        0.00000
 22
        0.05000
 32
        5.10000
 13
        0.00000
 23
        0.05000
 33
        6.51570
999
CORNER_CLASS_1_POD_1_ZN_1_FLR_2:CORNER_CLASS_1_POD_1_ZN_1_FLR_2_FLOOR
  0
3DFACE
  8
CORNER_CLASS_1_POD_1_ZN_1_FLR_2
 62
  8
 10
        0.00000
 20
        9.00000
 30
        4.00000
 11
       11.00000
 21
        9.00000
 31
        4.00000
 12
       11.00000
 22
        0.00000
 32
        4.00000
 13
        0.00000
 23
        0.00000
 33
        4.00000
999
CORNER_CLASS_1_POD_1_ZN_1_FLR_2:CORNER_CLASS_1_POD_1_ZN_1_FLR_2_CEILING
  0
3DFACE
  8
CORNER_CLASS_1_POD_1_ZN_1_FLR_2
 62
 15
 10
        0.00000
 20
        0.00000
 30
        8.00000
 11
       11.00000
 21
        0.00000
 31
        8.00000
 12
       11.00000
 22
        9.00000
 32
        8.00000
 13
        0.00000
 23
        9.00000
 33
        8.00000
999
CORNER_CLASS_1_POD_2_ZN_1_FLR_1:CORNER_CLASS_1_POD_2_ZN_1_FLR_1_WALL_1
  0
3DFACE
  8
CORNER_CLASS_1_POD_2_ZN_1_FLR_1
 62
 43
 10
        0.00000
 20
       40.00000
 30
        4.00000
 11
        0.00000
 21
       40.00000
 31
        0.00000
 12
       11.00000
 22
       40.00000
 32
        0.00000
 13
       11.00000
 23
       40.00000
 33
        4.00000
999
CORNER_CLASS_1_POD_2_ZN_1_FLR_1:CORNER_CLASS_1_POD_2_ZN_1_FLR_1_WALL_1_WINDOW_1
  0
3DFACE
  8
CORNER_CLASS_1_POD_2_ZN_1_FLR_1
 62
143
 10
        0.05000
 20
       40.00000
 30
        2.51280
 11
        0.05000
 21
       40.00000
 31
        1.10000
 12
       10.95000
 22
       40.00000
 32
        1.10000
 13
       10.95000
 23
       40.00000
 33
        2.51280
999
CORNER_CLASS_1_POD_2_ZN_1_FLR_1:CORNER_CLASS_1_POD_2_ZN_1_FLR_1_WALL_2
  0
3DFACE
  8
CORNER_CLASS_1_POD_2_ZN_1_FLR_1
 62
 43
 10
       11.00000
 20
       40.00000
 30
        4.00000
 11
       11.00000
 21
       40.00000
 31
        0.00000
 12
       11.00000
 22
       49.00000
 32
        0.00000
 13
       11.00000
 23
       49.00000
 33
        4.00000
999
CORNER_CLASS_1_POD_2_ZN_1_FLR_1:CORNER_CLASS_1_POD_2_ZN_1_FLR_1_WALL_3
  0
3DFACE
  8
CORNER_CLASS_1_POD_2_ZN_1_FLR_1
 62
 43
 10
       11.00000
 20
       49.00000
 30
        4.00000
 11
       11.00000
 21
       49.00000
 31
        0.00000
 12
        0.00000
 22
       49.00000
 32
        0.00000
 13
        0.00000
 23
       49.00000
 33
        4.00000
999
CORNER_CLASS_1_POD_2_ZN_1_FLR_1:CORNER_CLASS_1_POD_2_ZN_1_FLR_1_WALL_4
  0
3DFACE
  8
CORNER_CLASS_1_POD_2_ZN_1_FLR_1
 62
 43
 10
        0.00000
 20
       49.00000
 30
        4.00000
 11
        0.00000
 21
       49.00000
 31
        0.00000
 12
        0.00000
 22
       40.00000
 32
        0.00000
 13
        0.00000
 23
       40.00000
 33
        4.00000
999
CORNER_CLASS_1_POD_2_ZN_1_FLR_1:CORNER_CLASS_1_POD_2_ZN_1_FLR_1_WALL_4_WINDOW_1
  0
3DFACE
  8
CORNER_CLASS_1_POD_2_ZN_1_FLR_1
 62
143
 10
        0.00000
 20
       48.95000
 30
        2.51570
 11
        0.00000
 21
       48.95000
 31
        1.10000
 12
        0.00000
 22
       40.05000
 32
        1.10000
 13
        0.00000
 23
       40.05000
 33
        2.51570
999
CORNER_CLASS_1_POD_2_ZN_1_FLR_1:CORNER_CLASS_1_POD_2_ZN_1_FLR_1_FLOOR
  0
3DFACE
  8
CORNER_CLASS_1_POD_2_ZN_1_FLR_1
 62
  8
 10
        0.00000
 20
       49.00000
 30
        0.00000
 11
       11.00000
 21
       49.00000
 31
        0.00000
 12
       11.00000
 22
       40.00000
 32
        0.00000
 13
        0.00000
 23
       40.00000
 33
        0.00000
999
CORNER_CLASS_1_POD_2_ZN_1_FLR_1:CORNER_CLASS_1_POD_2_ZN_1_FLR_1_CEILING
  0
3DFACE
  8
CORNER_CLASS_1_POD_2_ZN_1_FLR_1
 62
 15
 10
        0.00000
 20
       40.00000
 30
        4.00000
 11
       11.00000
 21
       40.00000
 31
        4.00000
 12
       11.00000
 22
       49.00000
 32
        4.00000
 13
        0.00000
 23
       49.00000
 33
        4.00000
999
CORNER_CLASS_1_POD_2_ZN_1_FLR_2:CORNER_CLASS_1_POD_2_ZN_1_FLR_2_WALL_1
  0
3DFACE
  8
CORNER_CLASS_1_POD_2_ZN_1_FLR_2
 62
 43
 10
        0.00000
 20
       40.00000
 30
        8.00000
 11
        0.00000
 21
       40.00000
 31
        4.00000
 12
       11.00000
 22
       40.00000
 32
        4.00000
 13
       11.00000
 23
       40.00000
 33
        8.00000
999
CORNER_CLASS_1_POD_2_ZN_1_FLR_2:CORNER_CLASS_1_POD_2_ZN_1_FLR_2_WALL_1_WINDOW_1
  0
3DFACE
  8
CORNER_CLASS_1_POD_2_ZN_1_FLR_2
 62
143
 10
        0.05000
 20
       40.00000
 30
        6.51280
 11
        0.05000
 21
       40.00000
 31
        5.10000
 12
       10.95000
 22
       40.00000
 32
        5.10000
 13
       10.95000
 23
       40.00000
 33
        6.51280
999
CORNER_CLASS_1_POD_2_ZN_1_FLR_2:CORNER_CLASS_1_POD_2_ZN_1_FLR_2_WALL_2
  0
3DFACE
  8
CORNER_CLASS_1_POD_2_ZN_1_FLR_2
 62
 43
 10
       11.00000
 20
       40.00000
 30
        8.00000
 11
       11.00000
 21
       40.00000
 31
        4.00000
 12
       11.00000
 22
       49.00000
 32
        4.00000
 13
       11.00000
 23
       49.00000
 33
        8.00000
999
CORNER_CLASS_1_POD_2_ZN_1_FLR_2:CORNER_CLASS_1_POD_2_ZN_1_FLR_2_WALL_3
  0
3DFACE
  8
CORNER_CLASS_1_POD_2_ZN_1_FLR_2
 62
 43
 10
       11.00000
 20
       49.00000
 30
        8.00000
 11
       11.00000
 21
       49.00000
 31
        4.00000
 12
        0.00000
 22
       49.00000
 32
        4.00000
 13
        0.00000
 23
       49.00000
 33
        8.00000
999
CORNER_CLASS_1_POD_2_ZN_1_FLR_2:CORNER_CLASS_1_POD_2_ZN_1_FLR_2_WALL_4
  0
3DFACE
  8
CORNER_CLASS_1_POD_2_ZN_1_FLR_2
 62
 43
 10
        0.00000
 20
       49.00000
 30
        8.00000
 11
        0.00000
 21
       49.00000
 31
        4.00000
 12
        0.00000
 22
       40.00000
 32
        4.00000
 13
        0.00000
 23
       40.00000
 33
        8.00000
999
CORNER_CLASS_1_POD_2_ZN_1_FLR_2:CORNER_CLASS_1_POD_2_ZN_1_FLR_2_WALL_4_WINDOW_1
  0
3DFACE
  8
CORNER_CLASS_1_POD_2_ZN_1_FLR_2
 62
143
 10
        0.00000
 20
       48.95000
 30
        6.51570
 11
        0.00000
 21
       48.95000
 31
        5.10000
 12
        0.00000
 22
       40.05000
 32
        5.10000
 13
        0.00000
 23
       40.05000
 33
        6.51570
999
CORNER_CLASS_1_POD_2_ZN_1_FLR_2:CORNER_CLASS_1_POD_2_ZN_1_FLR_2_FLOOR
  0
3DFACE
  8
CORNER_CLASS_1_POD_2_ZN_1_FLR_2
 62
  8
 10
        0.00000
 20
       49.00000
 30
        4.00000
 11
       11.00000
 21
       49.00000
 31
        4.00000
 12
       11.00000
 22
       40.00000
 32
        4.00000
 13
        0.00000
 23
       40.00000
 33
        4.00000
999
CORNER_CLASS_1_POD_2_ZN_1_FLR_2:CORNER_CLASS_1_POD_2_ZN_1_FLR_2_CEILING
  0
3DFACE
  8
CORNER_CLASS_1_POD_2_ZN_1_FLR_2
 62
 15
 10
        0.00000
 20
       40.00000
 30
        8.00000
 11
       11.00000
 21
       40.00000
 31
        8.00000
 12
       11.00000
 22
       49.00000
 32
        8.00000
 13
        0.00000
 23
       49.00000
 33
        8.00000
999
CORNER_CLASS_1_POD_3_ZN_1_FLR_1:CORNER_CLASS_1_POD_3_ZN_1_FLR_1_WALL_1
  0
3DFACE
  8
CORNER_CLASS_1_POD_3_ZN_1_FLR_1
 62
 43
 10
        0.00000
 20
       81.00000
 30
        4.00000
 11
        0.00000
 21
       81.00000
 31
        0.00000
 12
       11.00000
 22
       81.00000
 32
        0.00000
 13
       11.00000
 23
       81.00000
 33
        4.00000
999
CORNER_CLASS_1_POD_3_ZN_1_FLR_1:CORNER_CLASS_1_POD_3_ZN_1_FLR_1_WALL_1_WINDOW_1
  0
3DFACE
  8
CORNER_CLASS_1_POD_3_ZN_1_FLR_1
 62
143
 10
        0.05000
 20
       81.00000
 30
        2.51280
 11
        0.05000
 21
       81.00000
 31
        1.10000
 12
       10.95000
 22
       81.00000
 32
        1.10000
 13
       10.95000
 23
       81.00000
 33
        2.51280
999
CORNER_CLASS_1_POD_3_ZN_1_FLR_1:CORNER_CLASS_1_POD_3_ZN_1_FLR_1_WALL_2
  0
3DFACE
  8
CORNER_CLASS_1_POD_3_ZN_1_FLR_1
 62
 43
 10
       11.00000
 20
       81.00000
 30
        4.00000
 11
       11.00000
 21
       81.00000
 31
        0.00000
 12
       11.00000
 22
       90.00000
 32
        0.00000
 13
       11.00000
 23
       90.00000
 33
        4.00000
999
CORNER_CLASS_1_POD_3_ZN_1_FLR_1:CORNER_CLASS_1_POD_3_ZN_1_FLR_1_WALL_3
  0
3DFACE
  8
CORNER_CLASS_1_POD_3_ZN_1_FLR_1
 62
 43
 10
       11.00000
 20
       90.00000
 30
        4.00000
 11
       11.00000
 21
       90.00000
 31
        0.00000
 12
        0.00000
 22
       90.00000
 32
        0.00000
 13
        0.00000
 23
       90.00000
 33
        4.00000
999
CORNER_CLASS_1_POD_3_ZN_1_FLR_1:CORNER_CLASS_1_POD_3_ZN_1_FLR_1_WALL_4
  0
3DFACE
  8
CORNER_CLASS_1_POD_3_ZN_1_FLR_1
 62
 43
 10
        0.00000
 20
       90.00000
 30
        4.00000
 11
        0.00000
 21
       90.00000
 31
        0.00000
 12
        0.00000
 22
       81.00000
 32
        0.00000
 13
        0.00000
 23
       81.00000
 33
        4.00000
999
CORNER_CLASS_1_POD_3_ZN_1_FLR_1:CORNER_CLASS_1_POD_3_ZN_1_FLR_1_WALL_4_WINDOW_1
  0
3DFACE
  8
CORNER_CLASS_1_POD_3_ZN_1_FLR_1
 62
143
 10
        0.00000
 20
       89.95000
 30
        2.51570
 11
        0.00000
 21
       89.95000
 31
        1.10000
 12
        0.00000
 22
       81.05000
 32
        1.10000
 13
        0.00000
 23
       81.05000
 33
        2.51570
999
CORNER_CLASS_1_POD_3_ZN_1_FLR_1:CORNER_CLASS_1_POD_3_ZN_1_FLR_1_FLOOR
  0
3DFACE
  8
CORNER_CLASS_1_POD_3_ZN_1_FLR_1
 62
  8
 10
        0.00000
 20
       90.00000
 30
        0.00000
 11
       11.00000
 21
       90.00000
 31
        0.00000
 12
       11.00000
 22
       81.00000
 32
        0.00000
 13
        0.00000
 23
       81.00000
 33
        0.00000
999
CORNER_CLASS_1_POD_3_ZN_1_FLR_1:CORNER_CLASS_1_POD_3_ZN_1_FLR_1_CEILING
  0
3DFACE
  8
CORNER_CLASS_1_POD_3_ZN_1_FLR_1
 62
 15
 10
        0.00000
 20
       81.00000
 30
        4.00000
 11
       11.00000
 21
       81.00000
 31
        4.00000
 12
       11.00000
 22
       90.00000
 32
        4.00000
 13
        0.00000
 23
       90.00000
 33
        4.00000
999
CORNER_CLASS_1_POD_3_ZN_1_FLR_2:CORNER_CLASS_1_POD_3_ZN_1_FLR_2_WALL_1
  0
3DFACE
  8
CORNER_CLASS_1_POD_3_ZN_1_FLR_2
 62
 43
 10
        0.00000
 20
       81.00000
 30
        8.00000
 11
        0.00000
 21
       81.00000
 31
        4.00000
 12
       11.00000
 22
       81.00000
 32
        4.00000
 13
       11.00000
 23
       81.00000
 33
        8.00000
999
CORNER_CLASS_1_POD_3_ZN_1_FLR_2:CORNER_CLASS_1_POD_3_ZN_1_FLR_2_WALL_1_WINDOW_1
  0
3DFACE
  8
CORNER_CLASS_1_POD_3_ZN_1_FLR_2
 62
143
 10
        0.05000
 20
       81.00000
 30
        6.51280
 11
        0.05000
 21
       81.00000
 31
        5.10000
 12
       10.95000
 22
       81.00000
 32
        5.10000
 13
       10.95000
 23
       81.00000
 33
        6.51280
999
CORNER_CLASS_1_POD_3_ZN_1_FLR_2:CORNER_CLASS_1_POD_3_ZN_1_FLR_2_WALL_2
  0
3DFACE
  8
CORNER_CLASS_1_POD_3_ZN_1_FLR_2
 62
 43
 10
       11.00000
 20
       81.00000
 30
        8.00000
 11
       11.00000
 21
       81.00000
 31
        4.00000
 12
       11.00000
 22
       90.00000
 32
        4.00000
 13
       11.00000
 23
       90.00000
 33
        8.00000
999
CORNER_CLASS_1_POD_3_ZN_1_FLR_2:CORNER_CLASS_1_POD_3_ZN_1_FLR_2_WALL_3
  0
3DFACE
  8
CORNER_CLASS_1_POD_3_ZN_1_FLR_2
 62
 43
 10
       11.00000
 20
       90.00000
 30
        8.00000
 11
       11.00000
 21
       90.00000
 31
        4.00000
 12
        0.00000
 22
       90.00000
 32
        4.00000
 13
        0.00000
 23
       90.00000
 33
        8.00000
999
CORNER_CLASS_1_POD_3_ZN_1_FLR_2:CORNER_CLASS_1_POD_3_ZN_1_FLR_2_WALL_4
  0
3DFACE
  8
CORNER_CLASS_1_POD_3_ZN_1_FLR_2
 62
 43
 10
        0.00000
 20
       90.00000
 30
        8.00000
 11
        0.00000
 21
       90.00000
 31
        4.00000
 12
        0.00000
 22
       81.00000
 32
        4.00000
 13
        0.00000
 23
       81.00000
 33
        8.00000
999
CORNER_CLASS_1_POD_3_ZN_1_FLR_2:CORNER_CLASS_1_POD_3_ZN_1_FLR_2_WALL_4_WINDOW_1
  0
3DFACE
  8
CORNER_CLASS_1_POD_3_ZN_1_FLR_2
 62
143
 10
        0.00000
 20
       89.95000
 30
        6.51570
 11
        0.00000
 21
       89.95000
 31
        5.10000
 12
        0.00000
 22
       81.05000
 32
        5.10000
 13
        0.00000
 23
       81.05000
 33
        6.51570
999
CORNER_CLASS_1_POD_3_ZN_1_FLR_2:CORNER_CLASS_1_POD_3_ZN_1_FLR_2_FLOOR
  0
3DFACE
  8
CORNER_CLASS_1_POD_3_ZN_1_FLR_2
 62
  8
 10
        0.00000
 20
       90.00000
 30
        4.00000
 11
       11.00000
 21
       90.00000
 31
        4.00000
 12
       11.00000
 22
       81.00000
 32
        4.00000
 13
        0.00000
 23
       81.00000
 33
        4.00000
999
CORNER_CLASS_1_POD_3_ZN_1_FLR_2:CORNER_CLASS_1_POD_3_ZN_1_FLR_2_CEILING
  0
3DFACE
  8
CORNER_CLASS_1_POD_3_ZN_1_FLR_2
 62
 15
 10
        0.00000
 20
       81.00000
 30
        8.00000
 11
       11.00000
 21
       81.00000
 31
        8.00000
 12
       11.00000
 22
       90.00000
 32
        8.00000
 13
        0.00000
 23
       90.00000
 33
        8.00000
999
CORNER_CLASS_2_POD_1_ZN_1_FLR_1:CORNER_CLASS_2_POD_1_ZN_1_FLR_1_WALL_1
  0
3DFACE
  8
CORNER_CLASS_2_POD_1_ZN_1_FLR_1
 62
 43
 10
        0.00000
 20
       14.00000
 30
        4.00000
 11
        0.00000
 21
       14.00000
 31
        0.00000
 12
       11.00000
 22
       14.00000
 32
        0.00000
 13
       11.00000
 23
       14.00000
 33
        4.00000
999
CORNER_CLASS_2_POD_1_ZN_1_FLR_1:CORNER_CLASS_2_POD_1_ZN_1_FLR_1_WALL_2
  0
3DFACE
  8
CORNER_CLASS_2_POD_1_ZN_1_FLR_1
 62
 43
 10
       11.00000
 20
       14.00000
 30
        4.00000
 11
       11.00000
 21
       14.00000
 31
        0.00000
 12
       11.00000
 22
       23.00000
 32
        0.00000
 13
       11.00000
 23
       23.00000
 33
        4.00000
999
CORNER_CLASS_2_POD_1_ZN_1_FLR_1:CORNER_CLASS_2_POD_1_ZN_1_FLR_1_WALL_3
  0
3DFACE
  8
CORNER_CLASS_2_POD_1_ZN_1_FLR_1
 62
 43
 10
       11.00000
 20
       23.00000
 30
        4.00000
 11
       11.00000
 21
       23.00000
 31
        0.00000
 12
        0.00000
 22
       23.00000
 32
        0.00000
 13
        0.00000
 23
       23.00000
 33
        4.00000
999
CORNER_CLASS_2_POD_1_ZN_1_FLR_1:CORNER_CLASS_2_POD_1_ZN_1_FLR_1_WALL_3_WINDOW_1
  0
3DFACE
  8
CORNER_CLASS_2_POD_1_ZN_1_FLR_1
 62
143
 10
       10.95000
 20
       23.00000
 30
        2.51280
 11
       10.95000
 21
       23.00000
 31
        1.10000
 12
        0.05000
 22
       23.00000
 32
        1.10000
 13
        0.05000
 23
       23.00000
 33
        2.51280
999
CORNER_CLASS_2_POD_1_ZN_1_FLR_1:CORNER_CLASS_2_POD_1_ZN_1_FLR_1_WALL_4
  0
3DFACE
  8
CORNER_CLASS_2_POD_1_ZN_1_FLR_1
 62
 43
 10
        0.00000
 20
       23.00000
 30
        4.00000
 11
        0.00000
 21
       23.00000
 31
        0.00000
 12
        0.00000
 22
       14.00000
 32
        0.00000
 13
        0.00000
 23
       14.00000
 33
        4.00000
999
CORNER_CLASS_2_POD_1_ZN_1_FLR_1:CORNER_CLASS_2_POD_1_ZN_1_FLR_1_WALL_4_WINDOW_1
  0
3DFACE
  8
CORNER_CLASS_2_POD_1_ZN_1_FLR_1
 62
143
 10
        0.00000
 20
       22.95000
 30
        2.51570
 11
        0.00000
 21
       22.95000
 31
        1.10000
 12
        0.00000
 22
       14.05000
 32
        1.10000
 13
        0.00000
 23
       14.05000
 33
        2.51570
999
CORNER_CLASS_2_POD_1_ZN_1_FLR_1:CORNER_CLASS_2_POD_1_ZN_1_FLR_1_FLOOR
  0
3DFACE
  8
CORNER_CLASS_2_POD_1_ZN_1_FLR_1
 62
  8
 10
        0.00000
 20
       23.00000
 30
        0.00000
 11
       11.00000
 21
       23.00000
 31
        0.00000
 12
       11.00000
 22
       14.00000
 32
        0.00000
 13
        0.00000
 23
       14.00000
 33
        0.00000
999
CORNER_CLASS_2_POD_1_ZN_1_FLR_1:CORNER_CLASS_2_POD_1_ZN_1_FLR_1_CEILING
  0
3DFACE
  8
CORNER_CLASS_2_POD_1_ZN_1_FLR_1
 62
 15
 10
        0.00000
 20
       14.00000
 30
        4.00000
 11
       11.00000
 21
       14.00000
 31
        4.00000
 12
       11.00000
 22
       23.00000
 32
        4.00000
 13
        0.00000
 23
       23.00000
 33
        4.00000
999
CORNER_CLASS_2_POD_1_ZN_1_FLR_2:CORNER_CLASS_2_POD_1_ZN_1_FLR_2_WALL_1
  0
3DFACE
  8
CORNER_CLASS_2_POD_1_ZN_1_FLR_2
 62
 43
 10
        0.00000
 20
       14.00000
 30
        8.00000
 11
        0.00000
 21
       14.00000
 31
        4.00000
 12
       11.00000
 22
       14.00000
 32
        4.00000
 13
       11.00000
 23
       14.00000
 33
        8.00000
999
CORNER_CLASS_2_POD_1_ZN_1_FLR_2:CORNER_CLASS_2_POD_1_ZN_1_FLR_2_WALL_2
  0
3DFACE
  8
CORNER_CLASS_2_POD_1_ZN_1_FLR_2
 62
 43
 10
       11.00000
 20
       14.00000
 30
        8.00000
 11
       11.00000
 21
       14.00000
 31
        4.00000
 12
       11.00000
 22
       23.00000
 32
        4.00000
 13
       11.00000
 23
       23.00000
 33
        8.00000
999
CORNER_CLASS_2_POD_1_ZN_1_FLR_2:CORNER_CLASS_2_POD_1_ZN_1_FLR_2_WALL_3
  0
3DFACE
  8
CORNER_CLASS_2_POD_1_ZN_1_FLR_2
 62
 43
 10
       11.00000
 20
       23.00000
 30
        8.00000
 11
       11.00000
 21
       23.00000
 31
        4.00000
 12
        0.00000
 22
       23.00000
 32
        4.00000
 13
        0.00000
 23
       23.00000
 33
        8.00000
999
CORNER_CLASS_2_POD_1_ZN_1_FLR_2:CORNER_CLASS_2_POD_1_ZN_1_FLR_2_WALL_3_WINDOW_1
  0
3DFACE
  8
CORNER_CLASS_2_POD_1_ZN_1_FLR_2
 62
143
 10
       10.95000
 20
       23.00000
 30
        6.51280
 11
       10.95000
 21
       23.00000
 31
        5.10000
 12
        0.05000
 22
       23.00000
 32
        5.10000
 13
        0.05000
 23
       23.00000
 33
        6.51280
999
CORNER_CLASS_2_POD_1_ZN_1_FLR_2:CORNER_CLASS_2_POD_1_ZN_1_FLR_2_WALL_4
  0
3DFACE
  8
CORNER_CLASS_2_POD_1_ZN_1_FLR_2
 62
 43
 10
        0.00000
 20
       23.00000
 30
        8.00000
 11
        0.00000
 21
       23.00000
 31
        4.00000
 12
        0.00000
 22
       14.00000
 32
        4.00000
 13
        0.00000
 23
       14.00000
 33
        8.00000
999
CORNER_CLASS_2_POD_1_ZN_1_FLR_2:CORNER_CLASS_2_POD_1_ZN_1_FLR_2_WALL_4_WINDOW_1
  0
3DFACE
  8
CORNER_CLASS_2_POD_1_ZN_1_FLR_2
 62
143
 10
        0.00000
 20
       22.95000
 30
        6.51570
 11
        0.00000
 21
       22.95000
 31
        5.10000
 12
        0.00000
 22
       14.05000
 32
        5.10000
 13
        0.00000
 23
       14.05000
 33
        6.51570
999
CORNER_CLASS_2_POD_1_ZN_1_FLR_2:CORNER_CLASS_2_POD_1_ZN_1_FLR_2_FLOOR
  0
3DFACE
  8
CORNER_CLASS_2_POD_1_ZN_1_FLR_2
 62
  8
 10
        0.00000
 20
       23.00000
 30
        4.00000
 11
       11.00000
 21
       23.00000
 31
        4.00000
 12
       11.00000
 22
       14.00000
 32
        4.00000
 13
        0.00000
 23
       14.00000
 33
        4.00000
999
CORNER_CLASS_2_POD_1_ZN_1_FLR_2:CORNER_CLASS_2_POD_1_ZN_1_FLR_2_CEILING
  0
3DFACE
  8
CORNER_CLASS_2_POD_1_ZN_1_FLR_2
 62
 15
 10
        0.00000
 20
       14.00000
 30
        8.00000
 11
       11.00000
 21
       14.00000
 31
        8.00000
 12
       11.00000
 22
       23.00000
 32
        8.00000
 13
        0.00000
 23
       23.00000
 33
        8.00000
999
CORNER_CLASS_2_POD_2_ZN_1_FLR_1:CORNER_CLASS_2_POD_2_ZN_1_FLR_1_WALL_1
  0
3DFACE
  8
CORNER_CLASS_2_POD_2_ZN_1_FLR_1
 62
 43
 10
        0.00000
 20
       54.00000
 30
        4.00000
 11
        0.00000
 21
       54.00000
 31
        0.00000
 12
       11.00000
 22
       54.00000
 32
        0.00000
 13
       11.00000
 23
       54.00000
 33
        4.00000
999
CORNER_CLASS_2_POD_2_ZN_1_FLR_1:CORNER_CLASS_2_POD_2_ZN_1_FLR_1_WALL_2
  0
3DFACE
  8
CORNER_CLASS_2_POD_2_ZN_1_FLR_1
 62
 43
 10
       11.00000
 20
       54.00000
 30
        4.00000
 11
       11.00000
 21
       54.00000
 31
        0.00000
 12
       11.00000
 22
       63.00000
 32
        0.00000
 13
       11.00000
 23
       63.00000
 33
        4.00000
999
CORNER_CLASS_2_POD_2_ZN_1_FLR_1:CORNER_CLASS_2_POD_2_ZN_1_FLR_1_WALL_3
  0
3DFACE
  8
CORNER_CLASS_2_POD_2_ZN_1_FLR_1
 62
 43
 10
       11.00000
 20
       63.00000
 30
        4.00000
 11
       11.00000
 21
       63.00000
 31
        0.00000
 12
        0.00000
 22
       63.00000
 32
        0.00000
 13
        0.00000
 23
       63.00000
 33
        4.00000
999
CORNER_CLASS_2_POD_2_ZN_1_FLR_1:CORNER_CLASS_2_POD_2_ZN_1_FLR_1_WALL_3_WINDOW_1
  0
3DFACE
  8
CORNER_CLASS_2_POD_2_ZN_1_FLR_1
 62
143
 10
       10.95000
 20
       63.00000
 30
        2.51280
 11
       10.95000
 21
       63.00000
 31
        1.10000
 12
        0.05000
 22
       63.00000
 32
        1.10000
 13
        0.05000
 23
       63.00000
 33
        2.51280
999
CORNER_CLASS_2_POD_2_ZN_1_FLR_1:CORNER_CLASS_2_POD_2_ZN_1_FLR_1_WALL_4
  0
3DFACE
  8
CORNER_CLASS_2_POD_2_ZN_1_FLR_1
 62
 43
 10
        0.00000
 20
       63.00000
 30
        4.00000
 11
        0.00000
 21
       63.00000
 31
        0.00000
 12
        0.00000
 22
       54.00000
 32
        0.00000
 13
        0.00000
 23
       54.00000
 33
        4.00000
999
CORNER_CLASS_2_POD_2_ZN_1_FLR_1:CORNER_CLASS_2_POD_2_ZN_1_FLR_1_WALL_4_WINDOW_1
  0
3DFACE
  8
CORNER_CLASS_2_POD_2_ZN_1_FLR_1
 62
143
 10
        0.00000
 20
       62.95000
 30
        2.51570
 11
        0.00000
 21
       62.95000
 31
        1.10000
 12
        0.00000
 22
       54.05000
 32
        1.10000
 13
        0.00000
 23
       54.05000
 33
        2.51570
999
CORNER_CLASS_2_POD_2_ZN_1_FLR_1:CORNER_CLASS_2_POD_2_ZN_1_FLR_1_FLOOR
  0
3DFACE
  8
CORNER_CLASS_2_POD_2_ZN_1_FLR_1
 62
  8
 10
        0.00000
 20
       63.00000
 30
        0.00000
 11
       11.00000
 21
       63.00000
 31
        0.00000
 12
       11.00000
 22
       54.00000
 32
        0.00000
 13
        0.00000
 23
       54.00000
 33
        0.00000
999
CORNER_CLASS_2_POD_2_ZN_1_FLR_1:CORNER_CLASS_2_POD_2_ZN_1_FLR_1_CEILING
  0
3DFACE
  8
CORNER_CLASS_2_POD_2_ZN_1_FLR_1
 62
 15
 10
        0.00000
 20
       54.00000
 30
        4.00000
 11
       11.00000
 21
       54.00000
 31
        4.00000
 12
       11.00000
 22
       63.00000
 32
        4.00000
 13
        0.00000
 23
       63.00000
 33
        4.00000
999
CORNER_CLASS_2_POD_2_ZN_1_FLR_2:CORNER_CLASS_2_POD_2_ZN_1_FLR_2_WALL_1
  0
3DFACE
  8
CORNER_CLASS_2_POD_2_ZN_1_FLR_2
 62
 43
 10
        0.00000
 20
       54.00000
 30
        8.00000
 11
        0.00000
 21
       54.00000
 31
        4.00000
 12
       11.00000
 22
       54.00000
 32
        4.00000
 13
       11.00000
 23
       54.00000
 33
        8.00000
999
CORNER_CLASS_2_POD_2_ZN_1_FLR_2:CORNER_CLASS_2_POD_2_ZN_1_FLR_2_WALL_2
  0
3DFACE
  8
CORNER_CLASS_2_POD_2_ZN_1_FLR_2
 62
 43
 10
       11.00000
 20
       54.00000
 30
        8.00000
 11
       11.00000
 21
       54.00000
 31
        4.00000
 12
       11.00000
 22
       63.00000
 32
        4.00000
 13
       11.00000
 23
       63.00000
 33
        8.00000
999
CORNER_CLASS_2_POD_2_ZN_1_FLR_2:CORNER_CLASS_2_POD_2_ZN_1_FLR_2_WALL_3
  0
3DFACE
  8
CORNER_CLASS_2_POD_2_ZN_1_FLR_2
 62
 43
 10
       11.00000
 20
       63.00000
 30
        8.00000
 11
       11.00000
 21
       63.00000
 31
        4.00000
 12
        0.00000
 22
       63.00000
 32
        4.00000
 13
        0.00000
 23
       63.00000
 33
        8.00000
999
CORNER_CLASS_2_POD_2_ZN_1_FLR_2:CORNER_CLASS_2_POD_2_ZN_1_FLR_2_WALL_3_WINDOW_1
  0
3DFACE
  8
CORNER_CLASS_2_POD_2_ZN_1_FLR_2
 62
143
 10
       10.95000
 20
       63.00000
 30
        6.51280
 11
       10.95000
 21
       63.00000
 31
        5.10000
 12
        0.05000
 22
       63.00000
 32
        5.10000
 13
        0.05000
 23
       63.00000
 33
        6.51280
999
CORNER_CLASS_2_POD_2_ZN_1_FLR_2:CORNER_CLASS_2_POD_2_ZN_1_FLR_2_WALL_4
  0
3DFACE
  8
CORNER_CLASS_2_POD_2_ZN_1_FLR_2
 62
 43
 10
        0.00000
 20
       63.00000
 30
        8.00000
 11
        0.00000
 21
       63.00000
 31
        4.00000
 12
        0.00000
 22
       54.00000
 32
        4.00000
 13
        0.00000
 23
       54.00000
 33
        8.00000
999
CORNER_CLASS_2_POD_2_ZN_1_FLR_2:CORNER_CLASS_2_POD_2_ZN_1_FLR_2_WALL_4_WINDOW_1
  0
3DFACE
  8
CORNER_CLASS_2_POD_2_ZN_1_FLR_2
 62
143
 10
        0.00000
 20
       62.95000
 30
        6.51570
 11
        0.00000
 21
       62.95000
 31
        5.10000
 12
        0.00000
 22
       54.05000
 32
        5.10000
 13
        0.00000
 23
       54.05000
 33
        6.51570
999
CORNER_CLASS_2_POD_2_ZN_1_FLR_2:CORNER_CLASS_2_POD_2_ZN_1_FLR_2_FLOOR
  0
3DFACE
  8
CORNER_CLASS_2_POD_2_ZN_1_FLR_2
 62
  8
 10
        0.00000
 20
       63.00000
 30
        4.00000
 11
       11.00000
 21
       63.00000
 31
        4.00000
 12
       11.00000
 22
       54.00000
 32
        4.00000
 13
        0.00000
 23
       54.00000
 33
        4.00000
999
CORNER_CLASS_2_POD_2_ZN_1_FLR_2:CORNER_CLASS_2_POD_2_ZN_1_FLR_2_CEILING
  0
3DFACE
  8
CORNER_CLASS_2_POD_2_ZN_1_FLR_2
 62
 15
 10
        0.00000
 20
       54.00000
 30
        8.00000
 11
       11.00000
 21
       54.00000
 31
        8.00000
 12
       11.00000
 22
       63.00000
 32
        8.00000
 13
        0.00000
 23
       63.00000
 33
        8.00000
999
CORNER_CLASS_2_POD_3_ZN_1_FLR_1:CORNER_CLASS_2_POD_3_ZN_1_FLR_1_WALL_1
  0
3DFACE
  8
CORNER_CLASS_2_POD_3_ZN_1_FLR_1
 62
 43
 10
        0.00000
 20
       95.00000
 30
        4.00000
 11
        0.00000
 21
       95.00000
 31
        0.00000
 12
       11.00000
 22
       95.00000
 32
        0.00000
 13
       11.00000
 23
       95.00000
 33
        4.00000
999
CORNER_CLASS_2_POD_3_ZN_1_FLR_1:CORNER_CLASS_2_POD_3_ZN_1_FLR_1_WALL_2
  0
3DFACE
  8
CORNER_CLASS_2_POD_3_ZN_1_FLR_1
 62
 43
 10
       11.00000
 20
       95.00000
 30
        4.00000
 11
       11.00000
 21
       95.00000
 31
        0.00000
 12
       11.00000
 22
      104.00000
 32
        0.00000
 13
       11.00000
 23
      104.00000
 33
        4.00000
999
CORNER_CLASS_2_POD_3_ZN_1_FLR_1:CORNER_CLASS_2_POD_3_ZN_1_FLR_1_WALL_3
  0
3DFACE
  8
CORNER_CLASS_2_POD_3_ZN_1_FLR_1
 62
 43
 10
       11.00000
 20
      104.00000
 30
        4.00000
 11
       11.00000
 21
      104.00000
 31
        0.00000
 12
        0.00000
 22
      104.00000
 32
        0.00000
 13
        0.00000
 23
      104.00000
 33
        4.00000
999
CORNER_CLASS_2_POD_3_ZN_1_FLR_1:CORNER_CLASS_2_POD_3_ZN_1_FLR_1_WALL_3_WINDOW_1
  0
3DFACE
  8
CORNER_CLASS_2_POD_3_ZN_1_FLR_1
 62
143
 10
       10.95000
 20
      104.00000
 30
        2.51280
 11
       10.95000
 21
      104.00000
 31
        1.10000
 12
        0.05000
 22
      104.00000
 32
        1.10000
 13
        0.05000
 23
      104.00000
 33
        2.51280
999
CORNER_CLASS_2_POD_3_ZN_1_FLR_1:CORNER_CLASS_2_POD_3_ZN_1_FLR_1_WALL_4
  0
3DFACE
  8
CORNER_CLASS_2_POD_3_ZN_1_FLR_1
 62
 43
 10
        0.00000
 20
      104.00000
 30
        4.00000
 11
        0.00000
 21
      104.00000
 31
        0.00000
 12
        0.00000
 22
       95.00000
 32
        0.00000
 13
        0.00000
 23
       95.00000
 33
        4.00000
999
CORNER_CLASS_2_POD_3_ZN_1_FLR_1:CORNER_CLASS_2_POD_3_ZN_1_FLR_1_WALL_4_WINDOW_1
  0
3DFACE
  8
CORNER_CLASS_2_POD_3_ZN_1_FLR_1
 62
143
 10
        0.00000
 20
      103.95000
 30
        2.51570
 11
        0.00000
 21
      103.95000
 31
        1.10000
 12
        0.00000
 22
       95.05000
 32
        1.10000
 13
        0.00000
 23
       95.05000
 33
        2.51570
999
CORNER_CLASS_2_POD_3_ZN_1_FLR_1:CORNER_CLASS_2_POD_3_ZN_1_FLR_1_FLOOR
  0
3DFACE
  8
CORNER_CLASS_2_POD_3_ZN_1_FLR_1
 62
  8
 10
        0.00000
 20
      104.00000
 30
        0.00000
 11
       11.00000
 21
      104.00000
 31
        0.00000
 12
       11.00000
 22
       95.00000
 32
        0.00000
 13
        0.00000
 23
       95.00000
 33
        0.00000
999
CORNER_CLASS_2_POD_3_ZN_1_FLR_1:CORNER_CLASS_2_POD_3_ZN_1_FLR_1_CEILING
  0
3DFACE
  8
CORNER_CLASS_2_POD_3_ZN_1_FLR_1
 62
 15
 10
        0.00000
 20
       95.00000
 30
        4.00000
 11
       11.00000
 21
       95.00000
 31
        4.00000
 12
       11.00000
 22
      104.00000
 32
        4.00000
 13
        0.00000
 23
      104.00000
 33
        4.00000
999
CORNER_CLASS_2_POD_3_ZN_1_FLR_2:CORNER_CLASS_2_POD_3_ZN_1_FLR_2_WALL_1
  0
3DFACE
  8
CORNER_CLASS_2_POD_3_ZN_1_FLR_2
 62
 43
 10
        0.00000
 20
       95.00000
 30
        8.00000
 11
        0.00000
 21
       95.00000
 31
        4.00000
 12
       11.00000
 22
       95.00000
 32
        4.00000
 13
       11.00000
 23
       95.00000
 33
        8.00000
999
CORNER_CLASS_2_POD_3_ZN_1_FLR_2:CORNER_CLASS_2_POD_3_ZN_1_FLR_2_WALL_2
  0
3DFACE
  8
CORNER_CLASS_2_POD_3_ZN_1_FLR_2
 62
 43
 10
       11.00000
 20
       95.00000
 30
        8.00000
 11
       11.00000
 21
       95.00000
 31
        4.00000
 12
       11.00000
 22
      104.00000
 32
        4.00000
 13
       11.00000
 23
      104.00000
 33
        8.00000
999
CORNER_CLASS_2_POD_3_ZN_1_FLR_2:CORNER_CLASS_2_POD_3_ZN_1_FLR_2_WALL_3
  0
3DFACE
  8
CORNER_CLASS_2_POD_3_ZN_1_FLR_2
 62
 43
 10
       11.00000
 20
      104.00000
 30
        8.00000
 11
       11.00000
 21
      104.00000
 31
        4.00000
 12
        0.00000
 22
      104.00000
 32
        4.00000
 13
        0.00000
 23
      104.00000
 33
        8.00000
999
CORNER_CLASS_2_POD_3_ZN_1_FLR_2:CORNER_CLASS_2_POD_3_ZN_1_FLR_2_WALL_3_WINDOW_1
  0
3DFACE
  8
CORNER_CLASS_2_POD_3_ZN_1_FLR_2
 62
143
 10
       10.95000
 20
      104.00000
 30
        6.51280
 11
       10.95000
 21
      104.00000
 31
        5.10000
 12
        0.05000
 22
      104.00000
 32
        5.10000
 13
        0.05000
 23
      104.00000
 33
        6.51280
999
CORNER_CLASS_2_POD_3_ZN_1_FLR_2:CORNER_CLASS_2_POD_3_ZN_1_FLR_2_WALL_4
  0
3DFACE
  8
CORNER_CLASS_2_POD_3_ZN_1_FLR_2
 62
 43
 10
        0.00000
 20
      104.00000
 30
        8.00000
 11
        0.00000
 21
      104.00000
 31
        4.00000
 12
        0.00000
 22
       95.00000
 32
        4.00000
 13
        0.00000
 23
       95.00000
 33
        8.00000
999
CORNER_CLASS_2_POD_3_ZN_1_FLR_2:CORNER_CLASS_2_POD_3_ZN_1_FLR_2_WALL_4_WINDOW_1
  0
3DFACE
  8
CORNER_CLASS_2_POD_3_ZN_1_FLR_2
 62
143
 10
        0.00000
 20
      103.95000
 30
        6.51570
 11
        0.00000
 21
      103.95000
 31
        5.10000
 12
        0.00000
 22
       95.05000
 32
        5.10000
 13
        0.00000
 23
       95.05000
 33
        6.51570
999
CORNER_CLASS_2_POD_3_ZN_1_FLR_2:CORNER_CLASS_2_POD_3_ZN_1_FLR_2_FLOOR
  0
3DFACE
  8
CORNER_CLASS_2_POD_3_ZN_1_FLR_2
 62
  8
 10
        0.00000
 20
      104.00000
 30
        4.00000
 11
       11.00000
 21
      104.00000
 31
        4.00000
 12
       11.00000
 22
       95.00000
 32
        4.00000
 13
        0.00000
 23
       95.00000
 33
        4.00000
999
CORNER_CLASS_2_POD_3_ZN_1_FLR_2:CORNER_CLASS_2_POD_3_ZN_1_FLR_2_CEILING
  0
3DFACE
  8
CORNER_CLASS_2_POD_3_ZN_1_FLR_2
 62
 15
 10
        0.00000
 20
       95.00000
 30
        8.00000
 11
       11.00000
 21
       95.00000
 31
        8.00000
 12
       11.00000
 22
      104.00000
 32
        8.00000
 13
        0.00000
 23
      104.00000
 33
        8.00000
999
CORRIDOR_POD_1_ZN_1_FLR_1:CORRIDOR_POD_1_ZN_1_FLR_1_WALL_1
  0
3DFACE
  8
CORRIDOR_POD_1_ZN_1_FLR_1
 62
 43
 10
        0.00000
 20
        9.00000
 30
        4.00000
 11
        0.00000
 21
        9.00000
 31
        0.00000
 12
       11.00000
 22
        9.00000
 32
        0.00000
 13
       11.00000
 23
        9.00000
 33
        4.00000
999
CORRIDOR_POD_1_ZN_1_FLR_1:CORRIDOR_POD_1_ZN_1_FLR_1_WALL_2
  0
3DFACE
  8
CORRIDOR_POD_1_ZN_1_FLR_1
 62
 43
 10
       11.00000
 20
        9.00000
 30
        4.00000
 11
       11.00000
 21
        9.00000
 31
        0.00000
 12
       64.00000
 22
        9.00000
 32
        0.00000
 13
       64.00000
 23
        9.00000
 33
        4.00000
999
CORRIDOR_POD_1_ZN_1_FLR_1:CORRIDOR_POD_1_ZN_1_FLR_1_WALL_3
  0
3DFACE
  8
CORRIDOR_POD_1_ZN_1_FLR_1
 62
 43
 10
       64.00000
 20
        9.00000
 30
        4.00000
 11
       64.00000
 21
        9.00000
 31
        0.00000
 12
       64.00000
 22
       14.00000
 32
        0.00000
 13
       64.00000
 23
       14.00000
 33
        4.00000
999
CORRIDOR_POD_1_ZN_1_FLR_1:CORRIDOR_POD_1_ZN_1_FLR_1_WALL_4
  0
3DFACE
  8
CORRIDOR_POD_1_ZN_1_FLR_1
 62
 43
 10
       64.00000
 20
       14.00000
 30
        4.00000
 11
       64.00000
 21
       14.00000
 31
        0.00000
 12
       11.00000
 22
       14.00000
 32
        0.00000
 13
       11.00000
 23
       14.00000
 33
        4.00000
999
CORRIDOR_POD_1_ZN_1_FLR_1:CORRIDOR_POD_1_ZN_1_FLR_1_WALL_5
  0
3DFACE
  8
CORRIDOR_POD_1_ZN_1_FLR_1
 62
 43
 10
       11.00000
 20
       14.00000
 30
        4.00000
 11
       11.00000
 21
       14.00000
 31
        0.00000
 12
        0.00000
 22
       14.00000
 32
        0.00000
 13
        0.00000
 23
       14.00000
 33
        4.00000
999
CORRIDOR_POD_1_ZN_1_FLR_1:CORRIDOR_POD_1_ZN_1_FLR_1_WALL_6
  0
3DFACE
  8
CORRIDOR_POD_1_ZN_1_FLR_1
 62
 43
 10
        0.00000
 20
       14.00000
 30
        4.00000
 11
        0.00000
 21
       14.00000
 31
        0.00000
 12
        0.00000
 22
        9.00000
 32
        0.00000
 13
        0.00000
 23
        9.00000
 33
        4.00000
999
CORRIDOR_POD_1_ZN_1_FLR_1:CORRIDOR_POD_1_ZN_1_FLR_1_WALL_6_WINDOW_1
  0
3DFACE
  8
CORRIDOR_POD_1_ZN_1_FLR_1
 62
143
 10
        0.00000
 20
       13.95000
 30
        2.52860
 11
        0.00000
 21
       13.95000
 31
        1.10000
 12
        0.00000
 22
        9.05000
 32
        1.10000
 13
        0.00000
 23
        9.05000
 33
        2.52860
999
CORRIDOR_POD_1_ZN_1_FLR_1:CORRIDOR_POD_1_ZN_1_FLR_1_FLOOR
  0
3DFACE
  8
CORRIDOR_POD_1_ZN_1_FLR_1
 62
  8
 10
        0.00000
 20
       14.00000
 30
        0.00000
 11
       64.00000
 21
       14.00000
 31
        0.00000
 12
       64.00000
 22
        9.00000
 32
        0.00000
 13
        0.00000
 23
        9.00000
 33
        0.00000
999
CORRIDOR_POD_1_ZN_1_FLR_1:CORRIDOR_POD_1_ZN_1_FLR_1_CEILING
  0
3DFACE
  8
CORRIDOR_POD_1_ZN_1_FLR_1
 62
 15
 10
        0.00000
 20
        9.00000
 30
        4.00000
 11
       64.00000
 21
        9.00000
 31
        4.00000
 12
       64.00000
 22
       14.00000
 32
        4.00000
 13
        0.00000
 23
       14.00000
 33
        4.00000
999
CORRIDOR_POD_1_ZN_1_FLR_2:CORRIDOR_POD_1_ZN_1_FLR_2_WALL_1
  0
3DFACE
  8
CORRIDOR_POD_1_ZN_1_FLR_2
 62
 43
 10
        0.00000
 20
        9.00000
 30
        8.00000
 11
        0.00000
 21
        9.00000
 31
        4.00000
 12
       11.00000
 22
        9.00000
 32
        4.00000
 13
       11.00000
 23
        9.00000
 33
        8.00000
999
CORRIDOR_POD_1_ZN_1_FLR_2:CORRIDOR_POD_1_ZN_1_FLR_2_WALL_2
  0
3DFACE
  8
CORRIDOR_POD_1_ZN_1_FLR_2
 62
 43
 10
       11.00000
 20
        9.00000
 30
        8.00000
 11
       11.00000
 21
        9.00000
 31
        4.00000
 12
       64.00000
 22
        9.00000
 32
        4.00000
 13
       64.00000
 23
        9.00000
 33
        8.00000
999
CORRIDOR_POD_1_ZN_1_FLR_2:CORRIDOR_POD_1_ZN_1_FLR_2_WALL_3
  0
3DFACE
  8
CORRIDOR_POD_1_ZN_1_FLR_2
 62
 43
 10
       64.00000
 20
        9.00000
 30
        8.00000
 11
       64.00000
 21
        9.00000
 31
        4.00000
 12
       64.00000
 22
       14.00000
 32
        4.00000
 13
       64.00000
 23
       14.00000
 33
        8.00000
999
CORRIDOR_POD_1_ZN_1_FLR_2:CORRIDOR_POD_1_ZN_1_FLR_2_WALL_4
  0
3DFACE
  8
CORRIDOR_POD_1_ZN_1_FLR_2
 62
 43
 10
       64.00000
 20
       14.00000
 30
        8.00000
 11
       64.00000
 21
       14.00000
 31
        4.00000
 12
       11.00000
 22
       14.00000
 32
        4.00000
 13
       11.00000
 23
       14.00000
 33
        8.00000
999
CORRIDOR_POD_1_ZN_1_FLR_2:CORRIDOR_POD_1_ZN_1_FLR_2_WALL_5
  0
3DFACE
  8
CORRIDOR_POD_1_ZN_1_FLR_2
 62
 43
 10
       11.00000
 20
       14.00000
 30
        8.00000
 11
       11.00000
 21
       14.00000
 31
        4.00000
 12
        0.00000
 22
       14.00000
 32
        4.00000
 13
        0.00000
 23
       14.00000
 33
        8.00000
999
CORRIDOR_POD_1_ZN_1_FLR_2:CORRIDOR_POD_1_ZN_1_FLR_2_WALL_6
  0
3DFACE
  8
CORRIDOR_POD_1_ZN_1_FLR_2
 62
 43
 10
        0.00000
 20
       14.00000
 30
        8.00000
 11
        0.00000
 21
       14.00000
 31
        4.00000
 12
        0.00000
 22
        9.00000
 32
        4.00000
 13
        0.00000
 23
        9.00000
 33
        8.00000
999
CORRIDOR_POD_1_ZN_1_FLR_2:CORRIDOR_POD_1_ZN_1_FLR_2_WALL_6_WINDOW_1
  0
3DFACE
  8
CORRIDOR_POD_1_ZN_1_FLR_2
 62
143
 10
        0.00000
 20
       13.95000
 30
        6.52860
 11
        0.00000
 21
       13.95000
 31
        5.10000
 12
        0.00000
 22
        9.05000
 32
        5.10000
 13
        0.00000
 23
        9.05000
 33
        6.52860
999
CORRIDOR_POD_1_ZN_1_FLR_2:CORRIDOR_POD_1_ZN_1_FLR_2_FLOOR
  0
3DFACE
  8
CORRIDOR_POD_1_ZN_1_FLR_2
 62
  8
 10
        0.00000
 20
       14.00000
 30
        4.00000
 11
       64.00000
 21
       14.00000
 31
        4.00000
 12
       64.00000
 22
        9.00000
 32
        4.00000
 13
        0.00000
 23
        9.00000
 33
        4.00000
999
CORRIDOR_POD_1_ZN_1_FLR_2:CORRIDOR_POD_1_ZN_1_FLR_2_CEILING
  0
3DFACE
  8
CORRIDOR_POD_1_ZN_1_FLR_2
 62
 15
 10
        0.00000
 20
        9.00000
 30
        8.00000
 11
       64.00000
 21
        9.00000
 31
        8.00000
 12
       64.00000
 22
       14.00000
 32
        8.00000
 13
        0.00000
 23
       14.00000
 33
        8.00000
999
CORRIDOR_POD_2_ZN_1_FLR_1:CORRIDOR_POD_2_ZN_1_FLR_1_WALL_1
  0
3DFACE
  8
CORRIDOR_POD_2_ZN_1_FLR_1
 62
 43
 10
        0.00000
 20
       49.00000
 30
        4.00000
 11
        0.00000
 21
       49.00000
 31
        0.00000
 12
       11.00000
 22
       49.00000
 32
        0.00000
 13
       11.00000
 23
       49.00000
 33
        4.00000
999
CORRIDOR_POD_2_ZN_1_FLR_1:CORRIDOR_POD_2_ZN_1_FLR_1_WALL_2
  0
3DFACE
  8
CORRIDOR_POD_2_ZN_1_FLR_1
 62
 43
 10
       11.00000
 20
       49.00000
 30
        4.00000
 11
       11.00000
 21
       49.00000
 31
        0.00000
 12
       64.00000
 22
       49.00000
 32
        0.00000
 13
       64.00000
 23
       49.00000
 33
        4.00000
999
CORRIDOR_POD_2_ZN_1_FLR_1:CORRIDOR_POD_2_ZN_1_FLR_1_WALL_3
  0
3DFACE
  8
CORRIDOR_POD_2_ZN_1_FLR_1
 62
 43
 10
       64.00000
 20
       49.00000
 30
        4.00000
 11
       64.00000
 21
       49.00000
 31
        0.00000
 12
       64.00000
 22
       54.00000
 32
        0.00000
 13
       64.00000
 23
       54.00000
 33
        4.00000
999
CORRIDOR_POD_2_ZN_1_FLR_1:CORRIDOR_POD_2_ZN_1_FLR_1_WALL_4
  0
3DFACE
  8
CORRIDOR_POD_2_ZN_1_FLR_1
 62
 43
 10
       64.00000
 20
       54.00000
 30
        4.00000
 11
       64.00000
 21
       54.00000
 31
        0.00000
 12
       11.00000
 22
       54.00000
 32
        0.00000
 13
       11.00000
 23
       54.00000
 33
        4.00000
999
CORRIDOR_POD_2_ZN_1_FLR_1:CORRIDOR_POD_2_ZN_1_FLR_1_WALL_5
  0
3DFACE
  8
CORRIDOR_POD_2_ZN_1_FLR_1
 62
 43
 10
       11.00000
 20
       54.00000
 30
        4.00000
 11
       11.00000
 21
       54.00000
 31
        0.00000
 12
        0.00000
 22
       54.00000
 32
        0.00000
 13
        0.00000
 23
       54.00000
 33
        4.00000
999
CORRIDOR_POD_2_ZN_1_FLR_1:CORRIDOR_POD_2_ZN_1_FLR_1_WALL_6
  0
3DFACE
  8
CORRIDOR_POD_2_ZN_1_FLR_1
 62
 43
 10
        0.00000
 20
       54.00000
 30
        4.00000
 11
        0.00000
 21
       54.00000
 31
        0.00000
 12
        0.00000
 22
       49.00000
 32
        0.00000
 13
        0.00000
 23
       49.00000
 33
        4.00000
999
CORRIDOR_POD_2_ZN_1_FLR_1:CORRIDOR_POD_2_ZN_1_FLR_1_WALL_6_WINDOW_1
  0
3DFACE
  8
CORRIDOR_POD_2_ZN_1_FLR_1
 62
143
 10
        0.00000
 20
       53.95000
 30
        2.52860
 11
        0.00000
 21
       53.95000
 31
        1.10000
 12
        0.00000
 22
       49.05000
 32
        1.10000
 13
        0.00000
 23
       49.05000
 33
        2.52860
999
CORRIDOR_POD_2_ZN_1_FLR_1:CORRIDOR_POD_2_ZN_1_FLR_1_FLOOR
  0
3DFACE
  8
CORRIDOR_POD_2_ZN_1_FLR_1
 62
  8
 10
        0.00000
 20
       54.00000
 30
        0.00000
 11
       64.00000
 21
       54.00000
 31
        0.00000
 12
       64.00000
 22
       49.00000
 32
        0.00000
 13
        0.00000
 23
       49.00000
 33
        0.00000
999
CORRIDOR_POD_2_ZN_1_FLR_1:CORRIDOR_POD_2_ZN_1_FLR_1_CEILING
  0
3DFACE
  8
CORRIDOR_POD_2_ZN_1_FLR_1
 62
 15
 10
        0.00000
 20
       49.00000
 30
        4.00000
 11
       64.00000
 21
       49.00000
 31
        4.00000
 12
       64.00000
 22
       54.00000
 32
        4.00000
 13
        0.00000
 23
       54.00000
 33
        4.00000
999
CORRIDOR_POD_2_ZN_1_FLR_2:CORRIDOR_POD_2_ZN_1_FLR_2_WALL_1
  0
3DFACE
  8
CORRIDOR_POD_2_ZN_1_FLR_2
 62
 43
 10
        0.00000
 20
       49.00000
 30
        8.00000
 11
        0.00000
 21
       49.00000
 31
        4.00000
 12
       11.00000
 22
       49.00000
 32
        4.00000
 13
       11.00000
 23
       49.00000
 33
        8.00000
999
CORRIDOR_POD_2_ZN_1_FLR_2:CORRIDOR_POD_2_ZN_1_FLR_2_WALL_2
  0
3DFACE
  8
CORRIDOR_POD_2_ZN_1_FLR_2
 62
 43
 10
       11.00000
 20
       49.00000
 30
        8.00000
 11
       11.00000
 21
       49.00000
 31
        4.00000
 12
       64.00000
 22
       49.00000
 32
        4.00000
 13
       64.00000
 23
       49.00000
 33
        8.00000
999
CORRIDOR_POD_2_ZN_1_FLR_2:CORRIDOR_POD_2_ZN_1_FLR_2_WALL_3
  0
3DFACE
  8
CORRIDOR_POD_2_ZN_1_FLR_2
 62
 43
 10
       64.00000
 20
       49.00000
 30
        8.00000
 11
       64.00000
 21
       49.00000
 31
        4.00000
 12
       64.00000
 22
       54.00000
 32
        4.00000
 13
       64.00000
 23
       54.00000
 33
        8.00000
999
CORRIDOR_POD_2_ZN_1_FLR_2:CORRIDOR_POD_2_ZN_1_FLR_2_WALL_4
  0
3DFACE
  8
CORRIDOR_POD_2_ZN_1_FLR_2
 62
 43
 10
       64.00000
 20
       54.00000
 30
        8.00000
 11
       64.00000
 21
       54.00000
 31
        4.00000
 12
       11.00000
 22
       54.00000
 32
        4.00000
 13
       11.00000
 23
       54.00000
 33
        8.00000
999
CORRIDOR_POD_2_ZN_1_FLR_2:CORRIDOR_POD_2_ZN_1_FLR_2_WALL_5
  0
3DFACE
  8
CORRIDOR_POD_2_ZN_1_FLR_2
 62
 43
 10
       11.00000
 20
       54.00000
 30
        8.00000
 11
       11.00000
 21
       54.00000
 31
        4.00000
 12
        0.00000
 22
       54.00000
 32
        4.00000
 13
        0.00000
 23
       54.00000
 33
        8.00000
999
CORRIDOR_POD_2_ZN_1_FLR_2:CORRIDOR_POD_2_ZN_1_FLR_2_WALL_6
  0
3DFACE
  8
CORRIDOR_POD_2_ZN_1_FLR_2
 62
 43
 10
        0.00000
 20
       54.00000
 30
        8.00000
 11
        0.00000
 21
       54.00000
 31
        4.00000
 12
        0.00000
 22
       49.00000
 32
        4.00000
 13
        0.00000
 23
       49.00000
 33
        8.00000
999
CORRIDOR_POD_2_ZN_1_FLR_2:CORRIDOR_POD_2_ZN_1_FLR_2_WALL_6_WINDOW_1
  0
3DFACE
  8
CORRIDOR_POD_2_ZN_1_FLR_2
 62
143
 10
        0.00000
 20
       53.95000
 30
        6.52860
 11
        0.00000
 21
       53.95000
 31
        5.10000
 12
        0.00000
 22
       49.05000
 32
        5.10000
 13
        0.00000
 23
       49.05000
 33
        6.52860
999
CORRIDOR_POD_2_ZN_1_FLR_2:CORRIDOR_POD_2_ZN_1_FLR_2_FLOOR
  0
3DFACE
  8
CORRIDOR_POD_2_ZN_1_FLR_2
 62
  8
 10
        0.00000
 20
       54.00000
 30
        4.00000
 11
       64.00000
 21
       54.00000
 31
        4.00000
 12
       64.00000
 22
       49.00000
 32
        4.00000
 13
        0.00000
 23
       49.00000
 33
        4.00000
999
CORRIDOR_POD_2_ZN_1_FLR_2:CORRIDOR_POD_2_ZN_1_FLR_2_CEILING
  0
3DFACE
  8
CORRIDOR_POD_2_ZN_1_FLR_2
 62
 15
 10
        0.00000
 20
       49.00000
 30
        8.00000
 11
       64.00000
 21
       49.00000
 31
        8.00000
 12
       64.00000
 22
       54.00000
 32
        8.00000
 13
        0.00000
 23
       54.00000
 33
        8.00000
999
CORRIDOR_POD_3_ZN_1_FLR_1:CORRIDOR_POD_3_ZN_1_FLR_1_WALL_1
  0
3DFACE
  8
CORRIDOR_POD_3_ZN_1_FLR_1
 62
 43
 10
        0.00000
 20
       90.00000
 30
        4.00000
 11
        0.00000
 21
       90.00000
 31
        0.00000
 12
       11.00000
 22
       90.00000
 32
        0.00000
 13
       11.00000
 23
       90.00000
 33
        4.00000
999
CORRIDOR_POD_3_ZN_1_FLR_1:CORRIDOR_POD_3_ZN_1_FLR_1_WALL_2
  0
3DFACE
  8
CORRIDOR_POD_3_ZN_1_FLR_1
 62
 43
 10
       11.00000
 20
       90.00000
 30
        4.00000
 11
       11.00000
 21
       90.00000
 31
        0.00000
 12
       64.00000
 22
       90.00000
 32
        0.00000
 13
       64.00000
 23
       90.00000
 33
        4.00000
999
CORRIDOR_POD_3_ZN_1_FLR_1:CORRIDOR_POD_3_ZN_1_FLR_1_WALL_3
  0
3DFACE
  8
CORRIDOR_POD_3_ZN_1_FLR_1
 62
 43
 10
       64.00000
 20
       90.00000
 30
        4.00000
 11
       64.00000
 21
       90.00000
 31
        0.00000
 12
       64.00000
 22
       95.00000
 32
        0.00000
 13
       64.00000
 23
       95.00000
 33
        4.00000
999
CORRIDOR_POD_3_ZN_1_FLR_1:CORRIDOR_POD_3_ZN_1_FLR_1_WALL_4
  0
3DFACE
  8
CORRIDOR_POD_3_ZN_1_FLR_1
 62
 43
 10
       64.00000
 20
       95.00000
 30
        4.00000
 11
       64.00000
 21
       95.00000
 31
        0.00000
 12
       11.00000
 22
       95.00000
 32
        0.00000
 13
       11.00000
 23
       95.00000
 33
        4.00000
999
CORRIDOR_POD_3_ZN_1_FLR_1:CORRIDOR_POD_3_ZN_1_FLR_1_WALL_5
  0
3DFACE
  8
CORRIDOR_POD_3_ZN_1_FLR_1
 62
 43
 10
       11.00000
 20
       95.00000
 30
        4.00000
 11
       11.00000
 21
       95.00000
 31
        0.00000
 12
        0.00000
 22
       95.00000
 32
        0.00000
 13
        0.00000
 23
       95.00000
 33
        4.00000
999
CORRIDOR_POD_3_ZN_1_FLR_1:CORRIDOR_POD_3_ZN_1_FLR_1_WALL_6
  0
3DFACE
  8
CORRIDOR_POD_3_ZN_1_FLR_1
 62
 43
 10
        0.00000
 20
       95.00000
 30
        4.00000
 11
        0.00000
 21
       95.00000
 31
        0.00000
 12
        0.00000
 22
       90.00000
 32
        0.00000
 13
        0.00000
 23
       90.00000
 33
        4.00000
999
CORRIDOR_POD_3_ZN_1_FLR_1:CORRIDOR_POD_3_ZN_1_FLR_1_WALL_6_WINDOW_1
  0
3DFACE
  8
CORRIDOR_POD_3_ZN_1_FLR_1
 62
143
 10
        0.00000
 20
       94.95000
 30
        2.52860
 11
        0.00000
 21
       94.95000
 31
        1.10000
 12
        0.00000
 22
       90.05000
 32
        1.10000
 13
        0.00000
 23
       90.05000
 33
        2.52860
999
CORRIDOR_POD_3_ZN_1_FLR_1:CORRIDOR_POD_3_ZN_1_FLR_1_FLOOR
  0
3DFACE
  8
CORRIDOR_POD_3_ZN_1_FLR_1
 62
  8
 10
        0.00000
 20
       95.00000
 30
        0.00000
 11
       64.00000
 21
       95.00000
 31
        0.00000
 12
       64.00000
 22
       90.00000
 32
        0.00000
 13
        0.00000
 23
       90.00000
 33
        0.00000
999
CORRIDOR_POD_3_ZN_1_FLR_1:CORRIDOR_POD_3_ZN_1_FLR_1_CEILING
  0
3DFACE
  8
CORRIDOR_POD_3_ZN_1_FLR_1
 62
 15
 10
        0.00000
 20
       90.00000
 30
        4.00000
 11
       64.00000
 21
       90.00000
 31
        4.00000
 12
       64.00000
 22
       95.00000
 32
        4.00000
 13
        0.00000
 23
       95.00000
 33
        4.00000
999
CORRIDOR_POD_3_ZN_1_FLR_2:CORRIDOR_POD_3_ZN_1_FLR_2_WALL_1
  0
3DFACE
  8
CORRIDOR_POD_3_ZN_1_FLR_2
 62
 43
 10
        0.00000
 20
       90.00000
 30
        8.00000
 11
        0.00000
 21
       90.00000
 31
        4.00000
 12
       11.00000
 22
       90.00000
 32
        4.00000
 13
       11.00000
 23
       90.00000
 33
        8.00000
999
CORRIDOR_POD_3_ZN_1_FLR_2:CORRIDOR_POD_3_ZN_1_FLR_2_WALL_2
  0
3DFACE
  8
CORRIDOR_POD_3_ZN_1_FLR_2
 62
 43
 10
       11.00000
 20
       90.00000
 30
        8.00000
 11
       11.00000
 21
       90.00000
 31
        4.00000
 12
       64.00000
 22
       90.00000
 32
        4.00000
 13
       64.00000
 23
       90.00000
 33
        8.00000
999
CORRIDOR_POD_3_ZN_1_FLR_2:CORRIDOR_POD_3_ZN_1_FLR_2_WALL_3
  0
3DFACE
  8
CORRIDOR_POD_3_ZN_1_FLR_2
 62
 43
 10
       64.00000
 20
       90.00000
 30
        8.00000
 11
       64.00000
 21
       90.00000
 31
        4.00000
 12
       64.00000
 22
       95.00000
 32
        4.00000
 13
       64.00000
 23
       95.00000
 33
        8.00000
999
CORRIDOR_POD_3_ZN_1_FLR_2:CORRIDOR_POD_3_ZN_1_FLR_2_WALL_4
  0
3DFACE
  8
CORRIDOR_POD_3_ZN_1_FLR_2
 62
 43
 10
       64.00000
 20
       95.00000
 30
        8.00000
 11
       64.00000
 21
       95.00000
 31
        4.00000
 12
       11.00000
 22
       95.00000
 32
        4.00000
 13
       11.00000
 23
       95.00000
 33
        8.00000
999
CORRIDOR_POD_3_ZN_1_FLR_2:CORRIDOR_POD_3_ZN_1_FLR_2_WALL_5
  0
3DFACE
  8
CORRIDOR_POD_3_ZN_1_FLR_2
 62
 43
 10
       11.00000
 20
       95.00000
 30
        8.00000
 11
       11.00000
 21
       95.00000
 31
        4.00000
 12
        0.00000
 22
       95.00000
 32
        4.00000
 13
        0.00000
 23
       95.00000
 33
        8.00000
999
CORRIDOR_POD_3_ZN_1_FLR_2:CORRIDOR_POD_3_ZN_1_FLR_2_WALL_6
  0
3DFACE
  8
CORRIDOR_POD_3_ZN_1_FLR_2
 62
 43
 10
        0.00000
 20
       95.00000
 30
        8.00000
 11
        0.00000
 21
       95.00000
 31
        4.00000
 12
        0.00000
 22
       90.00000
 32
        4.00000
 13
        0.00000
 23
       90.00000
 33
        8.00000
999
CORRIDOR_POD_3_ZN_1_FLR_2:CORRIDOR_POD_3_ZN_1_FLR_2_WALL_6_WINDOW_1
  0
3DFACE
  8
CORRIDOR_POD_3_ZN_1_FLR_2
 62
143
 10
        0.00000
 20
       94.95000
 30
        6.52860
 11
        0.00000
 21
       94.95000
 31
        5.10000
 12
        0.00000
 22
       90.05000
 32
        5.10000
 13
        0.00000
 23
       90.05000
 33
        6.52860
999
CORRIDOR_POD_3_ZN_1_FLR_2:CORRIDOR_POD_3_ZN_1_FLR_2_FLOOR
  0
3DFACE
  8
CORRIDOR_POD_3_ZN_1_FLR_2
 62
  8
 10
        0.00000
 20
       95.00000
 30
        4.00000
 11
       64.00000
 21
       95.00000
 31
        4.00000
 12
       64.00000
 22
       90.00000
 32
        4.00000
 13
        0.00000
 23
       90.00000
 33
        4.00000
999
CORRIDOR_POD_3_ZN_1_FLR_2:CORRIDOR_POD_3_ZN_1_FLR_2_CEILING
  0
3DFACE
  8
CORRIDOR_POD_3_ZN_1_FLR_2
 62
 15
 10
        0.00000
 20
       90.00000
 30
        8.00000
 11
       64.00000
 21
       90.00000
 31
        8.00000
 12
       64.00000
 22
       95.00000
 32
        8.00000
 13
        0.00000
 23
       95.00000
 33
        8.00000
999
GYM_ZN_1_FLR_1:GYM_ZN_1_FLR_1_WALL_1
  0
3DFACE
  8
GYM_ZN_1_FLR_1
 62
 43
 10
       79.00000
 20
       14.00000
 30
        4.00000
 11
       79.00000
 21
       14.00000
 31
        0.00000
 12
      117.00000
 22
       14.00000
 32
        0.00000
 13
      117.00000
 23
       14.00000
 33
        4.00000
999
GYM_ZN_1_FLR_1:GYM_ZN_1_FLR_1_WALL_2
  0
3DFACE
  8
GYM_ZN_1_FLR_1
 62
 43
 10
      117.00000
 20
       14.00000
 30
        4.00000
 11
      117.00000
 21
       14.00000
 31
        0.00000
 12
      117.00000
 22
       66.00000
 32
        0.00000
 13
      117.00000
 23
       66.00000
 33
        4.00000
999
GYM_ZN_1_FLR_1:GYM_ZN_1_FLR_1_WALL_3
  0
3DFACE
  8
GYM_ZN_1_FLR_1
 62
 43
 10
      117.00000
 20
       66.00000
 30
        4.00000
 11
      117.00000
 21
       66.00000
 31
        0.00000
 12
       79.00000
 22
       66.00000
 32
        0.00000
 13
       79.00000
 23
       66.00000
 33
        4.00000
999
GYM_ZN_1_FLR_1:GYM_ZN_1_FLR_1_WALL_4
  0
3DFACE
  8
GYM_ZN_1_FLR_1
 62
 43
 10
       79.00000
 20
       66.00000
 30
        4.00000
 11
       79.00000
 21
       66.00000
 31
        0.00000
 12
       79.00000
 22
       14.00000
 32
        0.00000
 13
       79.00000
 23
       14.00000
 33
        4.00000
999
GYM_ZN_1_FLR_1:GYM_ZN_1_FLR_2_WALL_1
  0
3DFACE
  8
GYM_ZN_1_FLR_1
 62
 43
 10
       79.00000
 20
       14.00000
 30
        8.00000
 11
       79.00000
 21
       14.00000
 31
        4.00000
 12
      117.00000
 22
       14.00000
 32
        4.00000
 13
      117.00000
 23
       14.00000
 33
        8.00000
999
GYM_ZN_1_FLR_1:GYM_ZN_1_FLR_2_WALL_2
  0
3DFACE
  8
GYM_ZN_1_FLR_1
 62
 43
 10
      117.00000
 20
       14.00000
 30
        8.00000
 11
      117.00000
 21
       14.00000
 31
        4.00000
 12
      117.00000
 22
       66.00000
 32
        4.00000
 13
      117.00000
 23
       66.00000
 33
        8.00000
999
GYM_ZN_1_FLR_1:GYM_ZN_1_FLR_2_WALL_3
  0
3DFACE
  8
GYM_ZN_1_FLR_1
 62
 43
 10
      117.00000
 20
       66.00000
 30
        8.00000
 11
      117.00000
 21
       66.00000
 31
        4.00000
 12
       79.00000
 22
       66.00000
 32
        4.00000
 13
       79.00000
 23
       66.00000
 33
        8.00000
999
GYM_ZN_1_FLR_1:GYM_ZN_1_FLR_2_WALL_4
  0
3DFACE
  8
GYM_ZN_1_FLR_1
 62
 43
 10
       79.00000
 20
       66.00000
 30
        8.00000
 11
       79.00000
 21
       66.00000
 31
        4.00000
 12
       79.00000
 22
       14.00000
 32
        4.00000
 13
       79.00000
 23
       14.00000
 33
        8.00000
999
GYM_ZN_1_FLR_1:GYM_ZN_1_FLR_1_FLOOR
  0
3DFACE
  8
GYM_ZN_1_FLR_1
 62
  8
 10
       79.00000
 20
       66.00000
 30
        0.00000
 11
      117.00000
 21
       66.00000
 31
        0.00000
 12
      117.00000
 22
       14.00000
 32
        0.00000
 13
       79.00000
 23
       14.00000
 33
        0.00000
999
GYM_ZN_1_FLR_1:GYM_ZN_1_FLR_2_CEILING
  0
3DFACE
  8
GYM_ZN_1_FLR_1
 62
 15
 10
       79.00000
 20
       14.00000
 30
        8.00000
 11
      117.00000
 21
       14.00000
 31
        8.00000
 12
      117.00000
 22
       66.00000
 32
        8.00000
 13
       79.00000
 23
       66.00000
 33
        8.00000
999
GYM_ZN_1_FLR_1:GYM_ZN_1_FLR_2_SKYLIGHT_1
  0
3DFACE
  8
GYM_ZN_1_FLR_1
 62
143
 10
       81.55700
 20
       16.27930
 30
        8.00000
 11
       82.77600
 21
       16.27930
 31
        8.00000
 12
       82.77600
 22
       17.49850
 32
        8.00000
 13
       81.55700
 23
       17.49850
 33
        8.00000
999
GYM_ZN_1_FLR_1:GYM_ZN_1_FLR_2_SKYLIGHT_10
  0
3DFACE
  8
GYM_ZN_1_FLR_1
 62
143
 10
      100.55700
 20
       22.05710
 30
        8.00000
 11
      101.77600
 21
       22.05710
 31
        8.00000
 12
      101.77600
 22
       23.27630
 32
        8.00000
 13
      100.55700
 23
       23.27630
 33
        8.00000
999
GYM_ZN_1_FLR_1:GYM_ZN_1_FLR_2_SKYLIGHT_11
  0
3DFACE
  8
GYM_ZN_1_FLR_1
 62
143
 10
      106.89000
 20
       22.05710
 30
        8.00000
 11
      108.11000
 21
       22.05710
 31
        8.00000
 12
      108.11000
 22
       23.27630
 32
        8.00000
 13
      106.89000
 23
       23.27630
 33
        8.00000
999
GYM_ZN_1_FLR_1:GYM_ZN_1_FLR_2_SKYLIGHT_12
  0
3DFACE
  8
GYM_ZN_1_FLR_1
 62
143
 10
      113.22400
 20
       22.05710
 30
        8.00000
 11
      114.44300
 21
       22.05710
 31
        8.00000
 12
      114.44300
 22
       23.27630
 32
        8.00000
 13
      113.22400
 23
       23.27630
 33
        8.00000
999
GYM_ZN_1_FLR_1:GYM_ZN_1_FLR_2_SKYLIGHT_13
  0
3DFACE
  8
GYM_ZN_1_FLR_1
 62
143
 10
       81.55700
 20
       27.83480
 30
        8.00000
 11
       82.77600
 21
       27.83480
 31
        8.00000
 12
       82.77600
 22
       29.05400
 32
        8.00000
 13
       81.55700
 23
       29.05400
 33
        8.00000
999
GYM_ZN_1_FLR_1:GYM_ZN_1_FLR_2_SKYLIGHT_14
  0
3DFACE
  8
GYM_ZN_1_FLR_1
 62
143
 10
       87.89000
 20
       27.83480
 30
        8.00000
 11
       89.11000
 21
       27.83480
 31
        8.00000
 12
       89.11000
 22
       29.05400
 32
        8.00000
 13
       87.89000
 23
       29.05400
 33
        8.00000
999
GYM_ZN_1_FLR_1:GYM_ZN_1_FLR_2_SKYLIGHT_15
  0
3DFACE
  8
GYM_ZN_1_FLR_1
 62
143
 10
       94.22400
 20
       27.83480
 30
        8.00000
 11
       95.44300
 21
       27.83480
 31
        8.00000
 12
       95.44300
 22
       29.05400
 32
        8.00000
 13
       94.22400
 23
       29.05400
 33
        8.00000
999
GYM_ZN_1_FLR_1:GYM_ZN_1_FLR_2_SKYLIGHT_16
  0
3DFACE
  8
GYM_ZN_1_FLR_1
 62
143
 10
      100.55700
 20
       27.83480
 30
        8.00000
 11
      101.77600
 21
       27.83480
 31
        8.00000
 12
      101.77600
 22
       29.05400
 32
        8.00000
 13
      100.55700
 23
       29.05400
 33
        8.00000
999
GYM_ZN_1_FLR_1:GYM_ZN_1_FLR_2_SKYLIGHT_17
  0
3DFACE
  8
GYM_ZN_1_FLR_1
 62
143
 10
      106.89000
 20
       27.83480
 30
        8.00000
 11
      108.11000
 21
       27.83480
 31
        8.00000
 12
      108.11000
 22
       29.05400
 32
        8.00000
 13
      106.89000
 23
       29.05400
 33
        8.00000
999
GYM_ZN_1_FLR_1:GYM_ZN_1_FLR_2_SKYLIGHT_18
  0
3DFACE
  8
GYM_ZN_1_FLR_1
 62
143
 10
      113.22400
 20
       27.83480
 30
        8.00000
 11
      114.44300
 21
       27.83480
 31
        8.00000
 12
      114.44300
 22
       29.05400
 32
        8.00000
 13
      113.22400
 23
       29.05400
 33
        8.00000
999
GYM_ZN_1_FLR_1:GYM_ZN_1_FLR_2_SKYLIGHT_19
  0
3DFACE
  8
GYM_ZN_1_FLR_1
 62
143
 10
       81.55700
 20
       33.61260
 30
        8.00000
 11
       82.77600
 21
       33.61260
 31
        8.00000
 12
       82.77600
 22
       34.83180
 32
        8.00000
 13
       81.55700
 23
       34.83180
 33
        8.00000
999
GYM_ZN_1_FLR_1:GYM_ZN_1_FLR_2_SKYLIGHT_2
  0
3DFACE
  8
GYM_ZN_1_FLR_1
 62
143
 10
       87.89000
 20
       16.27930
 30
        8.00000
 11
       89.11000
 21
       16.27930
 31
        8.00000
 12
       89.11000
 22
       17.49850
 32
        8.00000
 13
       87.89000
 23
       17.49850
 33
        8.00000
999
GYM_ZN_1_FLR_1:GYM_ZN_1_FLR_2_SKYLIGHT_20
  0
3DFACE
  8
GYM_ZN_1_FLR_1
 62
143
 10
       87.89000
 20
       33.61260
 30
        8.00000
 11
       89.11000
 21
       33.61260
 31
        8.00000
 12
       89.11000
 22
       34.83180
 32
        8.00000
 13
       87.89000
 23
       34.83180
 33
        8.00000
999
GYM_ZN_1_FLR_1:GYM_ZN_1_FLR_2_SKYLIGHT_21
  0
3DFACE
  8
GYM_ZN_1_FLR_1
 62
143
 10
       94.22400
 20
       33.61260
 30
        8.00000
 11
       95.44300
 21
       33.61260
 31
        8.00000
 12
       95.44300
 22
       34.83180
 32
        8.00000
 13
       94.22400
 23
       34.83180
 33
        8.00000
999
GYM_ZN_1_FLR_1:GYM_ZN_1_FLR_2_SKYLIGHT_22
  0
3DFACE
  8
GYM_ZN_1_FLR_1
 62
143
 10
      100.55700
 20
       33.61260
 30
        8.00000
 11
      101.77600
 21
       33.61260
 31
        8.00000
 12
      101.77600
 22
       34.83180
 32
        8.00000
 13
      100.55700
 23
       34.83180
 33
        8.00000
999
GYM_ZN_1_FLR_1:GYM_ZN_1_FLR_2_SKYLIGHT_23
  0
3DFACE
  8
GYM_ZN_1_FLR_1
 62
143
 10
      106.89000
 20
       33.61260
 30
        8.00000
 11
      108.11000
 21
       33.61260
 31
        8.00000
 12
      108.11000
 22
       34.83180
 32
        8.00000
 13
      106.89000
 23
       34.83180
 33
        8.00000
999
GYM_ZN_1_FLR_1:GYM_ZN_1_FLR_2_SKYLIGHT_24
  0
3DFACE
  8
GYM_ZN_1_FLR_1
 62
143
 10
      113.22400
 20
       33.61260
 30
        8.00000
 11
      114.44300
 21
       33.61260
 31
        8.00000
 12
      114.44300
 22
       34.83180
 32
        8.00000
 13
      113.22400
 23
       34.83180
 33
        8.00000
999
GYM_ZN_1_FLR_1:GYM_ZN_1_FLR_2_SKYLIGHT_25
  0
3DFACE
  8
GYM_ZN_1_FLR_1
 62
143
 10
       81.55700
 20
       39.39040
 30
        8.00000
 11
       82.77600
 21
       39.39040
 31
        8.00000
 12
       82.77600
 22
       40.60960
 32
        8.00000
 13
       81.55700
 23
       40.60960
 33
        8.00000
999
GYM_ZN_1_FLR_1:GYM_ZN_1_FLR_2_SKYLIGHT_26
  0
3DFACE
  8
GYM_ZN_1_FLR_1
 62
143
 10
       87.89000
 20
       39.39040
 30
        8.00000
 11
       89.11000
 21
       39.39040
 31
        8.00000
 12
       89.11000
 22
       40.60960
 32
        8.00000
 13
       87.89000
 23
       40.60960
 33
        8.00000
999
GYM_ZN_1_FLR_1:GYM_ZN_1_FLR_2_SKYLIGHT_27
  0
3DFACE
  8
GYM_ZN_1_FLR_1
 62
143
 10
       94.22400
 20
       39.39040
 30
        8.00000
 11
       95.44300
 21
       39.39040
 31
        8.00000
 12
       95.44300
 22
       40.60960
 32
        8.00000
 13
       94.22400
 23
       40.60960
 33
        8.00000
999
GYM_ZN_1_FLR_1:GYM_ZN_1_FLR_2_SKYLIGHT_28
  0
3DFACE
  8
GYM_ZN_1_FLR_1
 62
143
 10
      100.55700
 20
       39.39040
 30
        8.00000
 11
      101.77600
 21
       39.39040
 31
        8.00000
 12
      101.77600
 22
       40.60960
 32
        8.00000
 13
      100.55700
 23
       40.60960
 33
        8.00000
999
GYM_ZN_1_FLR_1:GYM_ZN_1_FLR_2_SKYLIGHT_29
  0
3DFACE
  8
GYM_ZN_1_FLR_1
 62
143
 10
      106.89000
 20
       39.39040
 30
        8.00000
 11
      108.11000
 21
       39.39040
 31
        8.00000
 12
      108.11000
 22
       40.60960
 32
        8.00000
 13
      106.89000
 23
       40.60960
 33
        8.00000
999
GYM_ZN_1_FLR_1:GYM_ZN_1_FLR_2_SKYLIGHT_3
  0
3DFACE
  8
GYM_ZN_1_FLR_1
 62
143
 10
       94.22400
 20
       16.27930
 30
        8.00000
 11
       95.44300
 21
       16.27930
 31
        8.00000
 12
       95.44300
 22
       17.49850
 32
        8.00000
 13
       94.22400
 23
       17.49850
 33
        8.00000
999
GYM_ZN_1_FLR_1:GYM_ZN_1_FLR_2_SKYLIGHT_30
  0
3DFACE
  8
GYM_ZN_1_FLR_1
 62
143
 10
      113.22400
 20
       39.39040
 30
        8.00000
 11
      114.44300
 21
       39.39040
 31
        8.00000
 12
      114.44300
 22
       40.60960
 32
        8.00000
 13
      113.22400
 23
       40.60960
 33
        8.00000
999
GYM_ZN_1_FLR_1:GYM_ZN_1_FLR_2_SKYLIGHT_31
  0
3DFACE
  8
GYM_ZN_1_FLR_1
 62
143
 10
       81.55700
 20
       45.16820
 30
        8.00000
 11
       82.77600
 21
       45.16820
 31
        8.00000
 12
       82.77600
 22
       46.38740
 32
        8.00000
 13
       81.55700
 23
       46.38740
 33
        8.00000
999
GYM_ZN_1_FLR_1:GYM_ZN_1_FLR_2_SKYLIGHT_32
  0
3DFACE
  8
GYM_ZN_1_FLR_1
 62
143
 10
       87.89000
 20
       45.16820
 30
        8.00000
 11
       89.11000
 21
       45.16820
 31
        8.00000
 12
       89.11000
 22
       46.38740
 32
        8.00000
 13
       87.89000
 23
       46.38740
 33
        8.00000
999
GYM_ZN_1_FLR_1:GYM_ZN_1_FLR_2_SKYLIGHT_33
  0
3DFACE
  8
GYM_ZN_1_FLR_1
 62
143
 10
       94.22400
 20
       45.16820
 30
        8.00000
 11
       95.44300
 21
       45.16820
 31
        8.00000
 12
       95.44300
 22
       46.38740
 32
        8.00000
 13
       94.22400
 23
       46.38740
 33
        8.00000
999
GYM_ZN_1_FLR_1:GYM_ZN_1_FLR_2_SKYLIGHT_34
  0
3DFACE
  8
GYM_ZN_1_FLR_1
 62
143
 10
      100.55700
 20
       45.16820
 30
        8.00000
 11
      101.77600
 21
       45.16820
 31
        8.00000
 12
      101.77600
 22
       46.38740
 32
        8.00000
 13
      100.55700
 23
       46.38740
 33
        8.00000
999
GYM_ZN_1_FLR_1:GYM_ZN_1_FLR_2_SKYLIGHT_35
  0
3DFACE
  8
GYM_ZN_1_FLR_1
 62
143
 10
      106.89000
 20
       45.16820
 30
        8.00000
 11
      108.11000
 21
       45.16820
 31
        8.00000
 12
      108.11000
 22
       46.38740
 32
        8.00000
 13
      106.89000
 23
       46.38740
 33
        8.00000
999
GYM_ZN_1_FLR_1:GYM_ZN_1_FLR_2_SKYLIGHT_36
  0
3DFACE
  8
GYM_ZN_1_FLR_1
 62
143
 10
      113.22400
 20
       45.16820
 30
        8.00000
 11
      114.44300
 21
       45.16820
 31
        8.00000
 12
      114.44300
 22
       46.38740
 32
        8.00000
 13
      113.22400
 23
       46.38740
 33
        8.00000
999
GYM_ZN_1_FLR_1:GYM_ZN_1_FLR_2_SKYLIGHT_37
  0
3DFACE
  8
GYM_ZN_1_FLR_1
 62
143
 10
       81.55700
 20
       50.94600
 30
        8.00000
 11
       82.77600
 21
       50.94600
 31
        8.00000
 12
       82.77600
 22
       52.16520
 32
        8.00000
 13
       81.55700
 23
       52.16520
 33
        8.00000
999
GYM_ZN_1_FLR_1:GYM_ZN_1_FLR_2_SKYLIGHT_38
  0
3DFACE
  8
GYM_ZN_1_FLR_1
 62
143
 10
       87.89000
 20
       50.94600
 30
        8.00000
 11
       89.11000
 21
       50.94600
 31
        8.00000
 12
       89.11000
 22
       52.16520
 32
        8.00000
 13
       87.89000
 23
       52.16520
 33
        8.00000
999
GYM_ZN_1_FLR_1:GYM_ZN_1_FLR_2_SKYLIGHT_39
  0
3DFACE
  8
GYM_ZN_1_FLR_1
 62
143
 10
       94.22400
 20
       50.94600
 30
        8.00000
 11
       95.44300
 21
       50.94600
 31
        8.00000
 12
       95.44300
 22
       52.16520
 32
        8.00000
 13
       94.22400
 23
       52.16520
 33
        8.00000
999
GYM_ZN_1_FLR_1:GYM_ZN_1_FLR_2_SKYLIGHT_4
  0
3DFACE
  8
GYM_ZN_1_FLR_1
 62
143
 10
      100.55700
 20
       16.27930
 30
        8.00000
 11
      101.77600
 21
       16.27930
 31
        8.00000
 12
      101.77600
 22
       17.49850
 32
        8.00000
 13
      100.55700
 23
       17.49850
 33
        8.00000
999
GYM_ZN_1_FLR_1:GYM_ZN_1_FLR_2_SKYLIGHT_40
  0
3DFACE
  8
GYM_ZN_1_FLR_1
 62
143
 10
      100.55700
 20
       50.94600
 30
        8.00000
 11
      101.77600
 21
       50.94600
 31
        8.00000
 12
      101.77600
 22
       52.16520
 32
        8.00000
 13
      100.55700
 23
       52.16520
 33
        8.00000
999
GYM_ZN_1_FLR_1:GYM_ZN_1_FLR_2_SKYLIGHT_41
  0
3DFACE
  8
GYM_ZN_1_FLR_1
 62
143
 10
      106.89000
 20
       50.94600
 30
        8.00000
 11
      108.11000
 21
       50.94600
 31
        8.00000
 12
      108.11000
 22
       52.16520
 32
        8.00000
 13
      106.89000
 23
       52.16520
 33
        8.00000
999
GYM_ZN_1_FLR_1:GYM_ZN_1_FLR_2_SKYLIGHT_42
  0
3DFACE
  8
GYM_ZN_1_FLR_1
 62
143
 10
      113.22400
 20
       50.94600
 30
        8.00000
 11
      114.44300
 21
       50.94600
 31
        8.00000
 12
      114.44300
 22
       52.16520
 32
        8.00000
 13
      113.22400
 23
       52.16520
 33
        8.00000
999
GYM_ZN_1_FLR_1:GYM_ZN_1_FLR_2_SKYLIGHT_43
  0
3DFACE
  8
GYM_ZN_1_FLR_1
 62
143
 10
       81.55700
 20
       56.72370
 30
        8.00000
 11
       82.77600
 21
       56.72370
 31
        8.00000
 12
       82.77600
 22
       57.94290
 32
        8.00000
 13
       81.55700
 23
       57.94290
 33
        8.00000
999
GYM_ZN_1_FLR_1:GYM_ZN_1_FLR_2_SKYLIGHT_44
  0
3DFACE
  8
GYM_ZN_1_FLR_1
 62
143
 10
       87.89000
 20
       56.72370
 30
        8.00000
 11
       89.11000
 21
       56.72370
 31
        8.00000
 12
       89.11000
 22
       57.94290
 32
        8.00000
 13
       87.89000
 23
       57.94290
 33
        8.00000
999
GYM_ZN_1_FLR_1:GYM_ZN_1_FLR_2_SKYLIGHT_45
  0
3DFACE
  8
GYM_ZN_1_FLR_1
 62
143
 10
       94.22400
 20
       56.72370
 30
        8.00000
 11
       95.44300
 21
       56.72370
 31
        8.00000
 12
       95.44300
 22
       57.94290
 32
        8.00000
 13
       94.22400
 23
       57.94290
 33
        8.00000
999
GYM_ZN_1_FLR_1:GYM_ZN_1_FLR_2_SKYLIGHT_46
  0
3DFACE
  8
GYM_ZN_1_FLR_1
 62
143
 10
      100.55700
 20
       56.72370
 30
        8.00000
 11
      101.77600
 21
       56.72370
 31
        8.00000
 12
      101.77600
 22
       57.94290
 32
        8.00000
 13
      100.55700
 23
       57.94290
 33
        8.00000
999
GYM_ZN_1_FLR_1:GYM_ZN_1_FLR_2_SKYLIGHT_47
  0
3DFACE
  8
GYM_ZN_1_FLR_1
 62
143
 10
      106.89000
 20
       56.72370
 30
        8.00000
 11
      108.11000
 21
       56.72370
 31
        8.00000
 12
      108.11000
 22
       57.94290
 32
        8.00000
 13
      106.89000
 23
       57.94290
 33
        8.00000
999
GYM_ZN_1_FLR_1:GYM_ZN_1_FLR_2_SKYLIGHT_48
  0
3DFACE
  8
GYM_ZN_1_FLR_1
 62
143
 10
      113.22400
 20
       56.72370
 30
        8.00000
 11
      114.44300
 21
       56.72370
 31
        8.00000
 12
      114.44300
 22
       57.94290
 32
        8.00000
 13
      113.22400
 23
       57.94290
 33
        8.00000
999
GYM_ZN_1_FLR_1:GYM_ZN_1_FLR_2_SKYLIGHT_49
  0
3DFACE
  8
GYM_ZN_1_FLR_1
 62
143
 10
       81.55700
 20
       62.50150
 30
        8.00000
 11
       82.77600
 21
       62.50150
 31
        8.00000
 12
       82.77600
 22
       63.72070
 32
        8.00000
 13
       81.55700
 23
       63.72070
 33
        8.00000
999
GYM_ZN_1_FLR_1:GYM_ZN_1_FLR_2_SKYLIGHT_5
  0
3DFACE
  8
GYM_ZN_1_FLR_1
 62
143
 10
      106.89000
 20
       16.27930
 30
        8.00000
 11
      108.11000
 21
       16.27930
 31
        8.00000
 12
      108.11000
 22
       17.49850
 32
        8.00000
 13
      106.89000
 23
       17.49850
 33
        8.00000
999
GYM_ZN_1_FLR_1:GYM_ZN_1_FLR_2_SKYLIGHT_50
  0
3DFACE
  8
GYM_ZN_1_FLR_1
 62
143
 10
       87.89000
 20
       62.50150
 30
        8.00000
 11
       89.11000
 21
       62.50150
 31
        8.00000
 12
       89.11000
 22
       63.72070
 32
        8.00000
 13
       87.89000
 23
       63.72070
 33
        8.00000
999
GYM_ZN_1_FLR_1:GYM_ZN_1_FLR_2_SKYLIGHT_51
  0
3DFACE
  8
GYM_ZN_1_FLR_1
 62
143
 10
       94.22400
 20
       62.50150
 30
        8.00000
 11
       95.44300
 21
       62.50150
 31
        8.00000
 12
       95.44300
 22
       63.72070
 32
        8.00000
 13
       94.22400
 23
       63.72070
 33
        8.00000
999
GYM_ZN_1_FLR_1:GYM_ZN_1_FLR_2_SKYLIGHT_52
  0
3DFACE
  8
GYM_ZN_1_FLR_1
 62
143
 10
      100.55700
 20
       62.50150
 30
        8.00000
 11
      101.77600
 21
       62.50150
 31
        8.00000
 12
      101.77600
 22
       63.72070
 32
        8.00000
 13
      100.55700
 23
       63.72070
 33
        8.00000
999
GYM_ZN_1_FLR_1:GYM_ZN_1_FLR_2_SKYLIGHT_53
  0
3DFACE
  8
GYM_ZN_1_FLR_1
 62
143
 10
      106.89000
 20
       62.50150
 30
        8.00000
 11
      108.11000
 21
       62.50150
 31
        8.00000
 12
      108.11000
 22
       63.72070
 32
        8.00000
 13
      106.89000
 23
       63.72070
 33
        8.00000
999
GYM_ZN_1_FLR_1:GYM_ZN_1_FLR_2_SKYLIGHT_54
  0
3DFACE
  8
GYM_ZN_1_FLR_1
 62
143
 10
      113.22400
 20
       62.50150
 30
        8.00000
 11
      114.44300
 21
       62.50150
 31
        8.00000
 12
      114.44300
 22
       63.72070
 32
        8.00000
 13
      113.22400
 23
       63.72070
 33
        8.00000
999
GYM_ZN_1_FLR_1:GYM_ZN_1_FLR_2_SKYLIGHT_6
  0
3DFACE
  8
GYM_ZN_1_FLR_1
 62
143
 10
      113.22400
 20
       16.27930
 30
        8.00000
 11
      114.44300
 21
       16.27930
 31
        8.00000
 12
      114.44300
 22
       17.49850
 32
        8.00000
 13
      113.22400
 23
       17.49850
 33
        8.00000
999
GYM_ZN_1_FLR_1:GYM_ZN_1_FLR_2_SKYLIGHT_7
  0
3DFACE
  8
GYM_ZN_1_FLR_1
 62
143
 10
       81.55700
 20
       22.05710
 30
        8.00000
 11
       82.77600
 21
       22.05710
 31
        8.00000
 12
       82.77600
 22
       23.27630
 32
        8.00000
 13
       81.55700
 23
       23.27630
 33
        8.00000
999
GYM_ZN_1_FLR_1:GYM_ZN_1_FLR_2_SKYLIGHT_8
  0
3DFACE
  8
GYM_ZN_1_FLR_1
 62
143
 10
       87.89000
 20
       22.05710
 30
        8.00000
 11
       89.11000
 21
       22.05710
 31
        8.00000
 12
       89.11000
 22
       23.27630
 32
        8.00000
 13
       87.89000
 23
       23.27630
 33
        8.00000
999
GYM_ZN_1_FLR_1:GYM_ZN_1_FLR_2_SKYLIGHT_9
  0
3DFACE
  8
GYM_ZN_1_FLR_1
 62
143
 10
       94.22400
 20
       22.05710
 30
        8.00000
 11
       95.44300
 21
       22.05710
 31
        8.00000
 12
       95.44300
 22
       23.27630
 32
        8.00000
 13
       94.22400
 23
       23.27630
 33
        8.00000
999
KITCHEN_ZN_1_FLR_1:KITCHEN_ZN_1_FLR_1_WALL_1
  0
3DFACE
  8
KITCHEN_ZN_1_FLR_1
 62
 43
 10
      117.00000
 20
       66.00000
 30
        4.00000
 11
      117.00000
 21
       66.00000
 31
        0.00000
 12
      141.00000
 22
       66.00000
 32
        0.00000
 13
      141.00000
 23
       66.00000
 33
        4.00000
999
KITCHEN_ZN_1_FLR_1:KITCHEN_ZN_1_FLR_1_WALL_2
  0
3DFACE
  8
KITCHEN_ZN_1_FLR_1
 62
 43
 10
      141.00000
 20
       66.00000
 30
        4.00000
 11
      141.00000
 21
       66.00000
 31
        0.00000
 12
      141.00000
 22
       75.00000
 32
        0.00000
 13
      141.00000
 23
       75.00000
 33
        4.00000
999
KITCHEN_ZN_1_FLR_1:KITCHEN_ZN_1_FLR_1_WALL_2_WINDOW_1
  0
3DFACE
  8
KITCHEN_ZN_1_FLR_1
 62
143
 10
      141.00000
 20
       66.05000
 30
        2.51570
 11
      141.00000
 21
       66.05000
 31
        1.10000
 12
      141.00000
 22
       74.95000
 32
        1.10000
 13
      141.00000
 23
       74.95000
 33
        2.51570
999
KITCHEN_ZN_1_FLR_1:KITCHEN_ZN_1_FLR_1_WALL_3
  0
3DFACE
  8
KITCHEN_ZN_1_FLR_1
 62
 43
 10
      141.00000
 20
       75.00000
 30
        4.00000
 11
      141.00000
 21
       75.00000
 31
        0.00000
 12
      117.00000
 22
       75.00000
 32
        0.00000
 13
      117.00000
 23
       75.00000
 33
        4.00000
999
KITCHEN_ZN_1_FLR_1:KITCHEN_ZN_1_FLR_1_WALL_4
  0
3DFACE
  8
KITCHEN_ZN_1_FLR_1
 62
 43
 10
      117.00000
 20
       75.00000
 30
        4.00000
 11
      117.00000
 21
       75.00000
 31
        0.00000
 12
      117.00000
 22
       66.00000
 32
        0.00000
 13
      117.00000
 23
       66.00000
 33
        4.00000
999
KITCHEN_ZN_1_FLR_1:KITCHEN_ZN_1_FLR_1_FLOOR
  0
3DFACE
  8
KITCHEN_ZN_1_FLR_1
 62
  8
 10
      117.00000
 20
       75.00000
 30
        0.00000
 11
      141.00000
 21
       75.00000
 31
        0.00000
 12
      141.00000
 22
       66.00000
 32
        0.00000
 13
      117.00000
 23
       66.00000
 33
        0.00000
999
KITCHEN_ZN_1_FLR_1:KITCHEN_ZN_1_FLR_1_CEILING
  0
3DFACE
  8
KITCHEN_ZN_1_FLR_1
 62
 15
 10
      117.00000
 20
       66.00000
 30
        4.00000
 11
      141.00000
 21
       66.00000
 31
        4.00000
 12
      141.00000
 22
       75.00000
 32
        4.00000
 13
      117.00000
 23
       75.00000
 33
        4.00000
999
LIBRARY_MEDIA_CENTER_ZN_1_FLR_2:LIBRARY_MEDIA_CENTER_WALL_1
  0
3DFACE
  8
LIBRARY_MEDIA_CENTER_ZN_1_FLR_2
 62
 43
 10
      117.00000
 20
       66.00000
 30
        8.00000
 11
      117.00000
 21
       66.00000
 31
        4.00000
 12
      141.00000
 22
       66.00000
 32
        4.00000
 13
      141.00000
 23
       66.00000
 33
        8.00000
999
LIBRARY_MEDIA_CENTER_ZN_1_FLR_2:LIBRARY_MEDIA_CENTER_WALL_2
  0
3DFACE
  8
LIBRARY_MEDIA_CENTER_ZN_1_FLR_2
 62
 43
 10
      141.00000
 20
       66.00000
 30
        8.00000
 11
      141.00000
 21
       66.00000
 31
        4.00000
 12
      141.00000
 22
      101.00000
 32
        4.00000
 13
      141.00000
 23
      101.00000
 33
        8.00000
999
LIBRARY_MEDIA_CENTER_ZN_1_FLR_2:LIBRARY_MEDIA_CENTER_WALL_2_WINDOW_1
  0
3DFACE
  8
LIBRARY_MEDIA_CENTER_ZN_1_FLR_2
 62
143
 10
      141.00000
 20
       66.05000
 30
        6.51570
 11
      141.00000
 21
       66.05000
 31
        5.10000
 12
      141.00000
 22
      100.95000
 32
        5.10000
 13
      141.00000
 23
      100.95000
 33
        6.51570
999
LIBRARY_MEDIA_CENTER_ZN_1_FLR_2:LIBRARY_MEDIA_CENTER_WALL_3
  0
3DFACE
  8
LIBRARY_MEDIA_CENTER_ZN_1_FLR_2
 62
 43
 10
      141.00000
 20
      101.00000
 30
        8.00000
 11
      141.00000
 21
      101.00000
 31
        4.00000
 12
      117.00000
 22
      101.00000
 32
        4.00000
 13
      117.00000
 23
      101.00000
 33
        8.00000
999
LIBRARY_MEDIA_CENTER_ZN_1_FLR_2:LIBRARY_MEDIA_CENTER_WALL_3_WINDOW_1
  0
3DFACE
  8
LIBRARY_MEDIA_CENTER_ZN_1_FLR_2
 62
143
 10
      140.95000
 20
      101.00000
 30
        6.50590
 11
      140.95000
 21
      101.00000
 31
        5.10000
 12
      117.05000
 22
      101.00000
 32
        5.10000
 13
      117.05000
 23
      101.00000
 33
        6.50590
999
LIBRARY_MEDIA_CENTER_ZN_1_FLR_2:LIBRARY_MEDIA_CENTER_WALL_4_A
  0
3DFACE
  8
LIBRARY_MEDIA_CENTER_ZN_1_FLR_2
 62
 43
 10
      117.00000
 20
       75.00000
 30
        8.00000
 11
      117.00000
 21
       75.00000
 31
        4.00000
 12
      117.00000
 22
       66.00000
 32
        4.00000
 13
      117.00000
 23
       66.00000
 33
        8.00000
999
LIBRARY_MEDIA_CENTER_ZN_1_FLR_2:LIBRARY_MEDIA_CENTER_WALL_4_B
  0
3DFACE
  8
LIBRARY_MEDIA_CENTER_ZN_1_FLR_2
 62
 43
 10
      117.00000
 20
      101.00000
 30
        8.00000
 11
      117.00000
 21
      101.00000
 31
        4.00000
 12
      117.00000
 22
       75.00000
 32
        4.00000
 13
      117.00000
 23
       75.00000
 33
        8.00000
999
LIBRARY_MEDIA_CENTER_ZN_1_FLR_2:LIBRARY_MEDIA_CENTER_FLOOR_A
  0
3DFACE
  8
LIBRARY_MEDIA_CENTER_ZN_1_FLR_2
 62
  8
 10
      117.00000
 20
       75.00000
 30
        4.00000
 11
      141.00000
 21
       75.00000
 31
        4.00000
 12
      141.00000
 22
       66.00000
 32
        4.00000
 13
      117.00000
 23
       66.00000
 33
        4.00000
999
LIBRARY_MEDIA_CENTER_ZN_1_FLR_2:LIBRARY_MEDIA_CENTER_FLOOR_B
  0
3DFACE
  8
LIBRARY_MEDIA_CENTER_ZN_1_FLR_2
 62
  8
 10
      117.00000
 20
      101.00000
 30
        4.00000
 11
      141.00000
 21
      101.00000
 31
        4.00000
 12
      141.00000
 22
       75.00000
 32
        4.00000
 13
      117.00000
 23
       75.00000
 33
        4.00000
999
LIBRARY_MEDIA_CENTER_ZN_1_FLR_2:LIBRARY_MEDIA_CENTER_CEILING
  0
3DFACE
  8
LIBRARY_MEDIA_CENTER_ZN_1_FLR_2
 62
 15
 10
      117.00000
 20
       66.00000
 30
        8.00000
 11
      141.00000
 21
       66.00000
 31
        8.00000
 12
      141.00000
 22
      101.00000
 32
        8.00000
 13
      117.00000
 23
      101.00000
 33
        8.00000
999
LOBBY_ZN_1_FLR_1:LOBBY_ZN_1_FLR_1_WALL_1
  0
3DFACE
  8
LOBBY_ZN_1_FLR_1
 62
 43
 10
       64.00000
 20
        0.00000
 30
        4.00000
 11
       64.00000
 21
        0.00000
 31
        0.00000
 12
       79.00000
 22
        0.00000
 32
        0.00000
 13
       79.00000
 23
        0.00000
 33
        4.00000
999
LOBBY_ZN_1_FLR_1:LOBBY_ZN_1_FLR_1_WALL_1_WINDOW_1
  0
3DFACE
  8
LOBBY_ZN_1_FLR_1
 62
143
 10
       64.05000
 20
        0.00000
 30
        2.50940
 11
       64.05000
 21
        0.00000
 31
        1.10000
 12
       78.95000
 22
        0.00000
 32
        1.10000
 13
       78.95000
 23
        0.00000
 33
        2.50940
999
LOBBY_ZN_1_FLR_1:LOBBY_ZN_1_FLR_1_WALL_2
  0
3DFACE
  8
LOBBY_ZN_1_FLR_1
 62
 43
 10
       79.00000
 20
        0.00000
 30
        4.00000
 11
       79.00000
 21
        0.00000
 31
        0.00000
 12
       79.00000
 22
       14.00000
 32
        0.00000
 13
       79.00000
 23
       14.00000
 33
        4.00000
999
LOBBY_ZN_1_FLR_1:LOBBY_ZN_1_FLR_1_WALL_3
  0
3DFACE
  8
LOBBY_ZN_1_FLR_1
 62
 43
 10
       79.00000
 20
       14.00000
 30
        4.00000
 11
       79.00000
 21
       14.00000
 31
        0.00000
 12
       64.00000
 22
       14.00000
 32
        0.00000
 13
       64.00000
 23
       14.00000
 33
        4.00000
999
LOBBY_ZN_1_FLR_1:LOBBY_ZN_1_FLR_1_WALL_4
  0
3DFACE
  8
LOBBY_ZN_1_FLR_1
 62
 43
 10
       64.00000
 20
       14.00000
 30
        4.00000
 11
       64.00000
 21
       14.00000
 31
        0.00000
 12
       64.00000
 22
        9.00000
 32
        0.00000
 13
       64.00000
 23
        9.00000
 33
        4.00000
999
LOBBY_ZN_1_FLR_1:LOBBY_ZN_1_FLR_1_WALL_5
  0
3DFACE
  8
LOBBY_ZN_1_FLR_1
 62
 43
 10
       64.00000
 20
        9.00000
 30
        4.00000
 11
       64.00000
 21
        9.00000
 31
        0.00000
 12
       64.00000
 22
        0.00000
 32
        0.00000
 13
       64.00000
 23
        0.00000
 33
        4.00000
999
LOBBY_ZN_1_FLR_1:LOBBY_ZN_1_FLR_1_FLOOR
  0
3DFACE
  8
LOBBY_ZN_1_FLR_1
 62
  8
 10
       64.00000
 20
       14.00000
 30
        0.00000
 11
       79.00000
 21
       14.00000
 31
        0.00000
 12
       79.00000
 22
        0.00000
 32
        0.00000
 13
       64.00000
 23
        0.00000
 33
        0.00000
999
LOBBY_ZN_1_FLR_1:LOBBY_ZN_1_FLR_1_CEILING
  0
3DFACE
  8
LOBBY_ZN_1_FLR_1
 62
 15
 10
       64.00000
 20
        0.00000
 30
        4.00000
 11
       79.00000
 21
        0.00000
 31
        4.00000
 12
       79.00000
 22
       14.00000
 32
        4.00000
 13
       64.00000
 23
       14.00000
 33
        4.00000
999
LOBBY_ZN_1_FLR_2:LOBBY_ZN_1_FLR_2_WALL_1
  0
3DFACE
  8
LOBBY_ZN_1_FLR_2
 62
 43
 10
       64.00000
 20
        0.00000
 30
        8.00000
 11
       64.00000
 21
        0.00000
 31
        4.00000
 12
       79.00000
 22
        0.00000
 32
        4.00000
 13
       79.00000
 23
        0.00000
 33
        8.00000
999
LOBBY_ZN_1_FLR_2:LOBBY_ZN_1_FLR_2_WALL_1_WINDOW_1
  0
3DFACE
  8
LOBBY_ZN_1_FLR_2
 62
143
 10
       64.05000
 20
        0.00000
 30
        6.50940
 11
       64.05000
 21
        0.00000
 31
        5.10000
 12
       78.95000
 22
        0.00000
 32
        5.10000
 13
       78.95000
 23
        0.00000
 33
        6.50940
999
LOBBY_ZN_1_FLR_2:LOBBY_ZN_1_FLR_2_WALL_2
  0
3DFACE
  8
LOBBY_ZN_1_FLR_2
 62
 43
 10
       79.00000
 20
        0.00000
 30
        8.00000
 11
       79.00000
 21
        0.00000
 31
        4.00000
 12
       79.00000
 22
       14.00000
 32
        4.00000
 13
       79.00000
 23
       14.00000
 33
        8.00000
999
LOBBY_ZN_1_FLR_2:LOBBY_ZN_1_FLR_2_WALL_3
  0
3DFACE
  8
LOBBY_ZN_1_FLR_2
 62
 43
 10
       79.00000
 20
       14.00000
 30
        8.00000
 11
       79.00000
 21
       14.00000
 31
        4.00000
 12
       64.00000
 22
       14.00000
 32
        4.00000
 13
       64.00000
 23
       14.00000
 33
        8.00000
999
LOBBY_ZN_1_FLR_2:LOBBY_ZN_1_FLR_2_WALL_4
  0
3DFACE
  8
LOBBY_ZN_1_FLR_2
 62
 43
 10
       64.00000
 20
       14.00000
 30
        8.00000
 11
       64.00000
 21
       14.00000
 31
        4.00000
 12
       64.00000
 22
        9.00000
 32
        4.00000
 13
       64.00000
 23
        9.00000
 33
        8.00000
999
LOBBY_ZN_1_FLR_2:LOBBY_ZN_1_FLR_2_WALL_5
  0
3DFACE
  8
LOBBY_ZN_1_FLR_2
 62
 43
 10
       64.00000
 20
        9.00000
 30
        8.00000
 11
       64.00000
 21
        9.00000
 31
        4.00000
 12
       64.00000
 22
        0.00000
 32
        4.00000
 13
       64.00000
 23
        0.00000
 33
        8.00000
999
LOBBY_ZN_1_FLR_2:LOBBY_ZN_1_FLR_2_FLOOR
  0
3DFACE
  8
LOBBY_ZN_1_FLR_2
 62
  8
 10
       64.00000
 20
       14.00000
 30
        4.00000
 11
       79.00000
 21
       14.00000
 31
        4.00000
 12
       79.00000
 22
        0.00000
 32
        4.00000
 13
       64.00000
 23
        0.00000
 33
        4.00000
999
LOBBY_ZN_1_FLR_2:LOBBY_ZN_1_FLR_2_CEILING
  0
3DFACE
  8
LOBBY_ZN_1_FLR_2
 62
 15
 10
       64.00000
 20
        0.00000
 30
        8.00000
 11
       79.00000
 21
        0.00000
 31
        8.00000
 12
       79.00000
 22
       14.00000
 32
        8.00000
 13
       64.00000
 23
       14.00000
 33
        8.00000
999
MAIN_CORRIDOR_ZN_1_FLR_1:MAIN_CORRIDOR_ZN_1_FLR_1_WALL_1
  0
3DFACE
  8
MAIN_CORRIDOR_ZN_1_FLR_1
 62
 43
 10
       64.00000
 20
       14.00000
 30
        4.00000
 11
       64.00000
 21
       14.00000
 31
        0.00000
 12
       79.00000
 22
       14.00000
 32
        0.00000
 13
       79.00000
 23
       14.00000
 33
        4.00000
999
MAIN_CORRIDOR_ZN_1_FLR_1:MAIN_CORRIDOR_ZN_1_FLR_1_WALL_10
  0
3DFACE
  8
MAIN_CORRIDOR_ZN_1_FLR_1
 62
 43
 10
       64.00000
 20
       49.00000
 30
        4.00000
 11
       64.00000
 21
       49.00000
 31
        0.00000
 12
       64.00000
 22
       40.00000
 32
        0.00000
 13
       64.00000
 23
       40.00000
 33
        4.00000
999
MAIN_CORRIDOR_ZN_1_FLR_1:MAIN_CORRIDOR_ZN_1_FLR_1_WALL_11
  0
3DFACE
  8
MAIN_CORRIDOR_ZN_1_FLR_1
 62
 43
 10
       64.00000
 20
       40.00000
 30
        4.00000
 11
       64.00000
 21
       40.00000
 31
        0.00000
 12
       64.00000
 22
       23.00000
 32
        0.00000
 13
       64.00000
 23
       23.00000
 33
        4.00000
999
MAIN_CORRIDOR_ZN_1_FLR_1:MAIN_CORRIDOR_ZN_1_FLR_1_WALL_11_WINDOW_1
  0
3DFACE
  8
MAIN_CORRIDOR_ZN_1_FLR_1
 62
143
 10
       64.00000
 20
       39.95000
 30
        2.50830
 11
       64.00000
 21
       39.95000
 31
        1.10000
 12
       64.00000
 22
       23.05000
 32
        1.10000
 13
       64.00000
 23
       23.05000
 33
        2.50830
999
MAIN_CORRIDOR_ZN_1_FLR_1:MAIN_CORRIDOR_ZN_1_FLR_1_WALL_12
  0
3DFACE
  8
MAIN_CORRIDOR_ZN_1_FLR_1
 62
 43
 10
       64.00000
 20
       23.00000
 30
        4.00000
 11
       64.00000
 21
       23.00000
 31
        0.00000
 12
       64.00000
 22
       14.00000
 32
        0.00000
 13
       64.00000
 23
       14.00000
 33
        4.00000
999
MAIN_CORRIDOR_ZN_1_FLR_1:MAIN_CORRIDOR_ZN_1_FLR_1_WALL_2
  0
3DFACE
  8
MAIN_CORRIDOR_ZN_1_FLR_1
 62
 43
 10
       79.00000
 20
       14.00000
 30
        4.00000
 11
       79.00000
 21
       14.00000
 31
        0.00000
 12
       79.00000
 22
       66.00000
 32
        0.00000
 13
       79.00000
 23
       66.00000
 33
        4.00000
999
MAIN_CORRIDOR_ZN_1_FLR_1:MAIN_CORRIDOR_ZN_1_FLR_1_WALL_3
  0
3DFACE
  8
MAIN_CORRIDOR_ZN_1_FLR_1
 62
 43
 10
       79.00000
 20
       66.00000
 30
        4.00000
 11
       79.00000
 21
       66.00000
 31
        0.00000
 12
       79.00000
 22
       75.00000
 32
        0.00000
 13
       79.00000
 23
       75.00000
 33
        4.00000
999
MAIN_CORRIDOR_ZN_1_FLR_1:MAIN_CORRIDOR_ZN_1_FLR_1_WALL_4
  0
3DFACE
  8
MAIN_CORRIDOR_ZN_1_FLR_1
 62
 43
 10
       79.00000
 20
       75.00000
 30
        4.00000
 11
       79.00000
 21
       75.00000
 31
        0.00000
 12
       79.00000
 22
       90.00000
 32
        0.00000
 13
       79.00000
 23
       90.00000
 33
        4.00000
999
MAIN_CORRIDOR_ZN_1_FLR_1:MAIN_CORRIDOR_ZN_1_FLR_1_WALL_5
  0
3DFACE
  8
MAIN_CORRIDOR_ZN_1_FLR_1
 62
 43
 10
       79.00000
 20
       90.00000
 30
        4.00000
 11
       79.00000
 21
       90.00000
 31
        0.00000
 12
       64.00000
 22
       90.00000
 32
        0.00000
 13
       64.00000
 23
       90.00000
 33
        4.00000
999
MAIN_CORRIDOR_ZN_1_FLR_1:MAIN_CORRIDOR_ZN_1_FLR_1_WALL_6
  0
3DFACE
  8
MAIN_CORRIDOR_ZN_1_FLR_1
 62
 43
 10
       64.00000
 20
       90.00000
 30
        4.00000
 11
       64.00000
 21
       90.00000
 31
        0.00000
 12
       64.00000
 22
       81.00000
 32
        0.00000
 13
       64.00000
 23
       81.00000
 33
        4.00000
999
MAIN_CORRIDOR_ZN_1_FLR_1:MAIN_CORRIDOR_ZN_1_FLR_1_WALL_7
  0
3DFACE
  8
MAIN_CORRIDOR_ZN_1_FLR_1
 62
 43
 10
       64.00000
 20
       81.00000
 30
        4.00000
 11
       64.00000
 21
       81.00000
 31
        0.00000
 12
       64.00000
 22
       63.00000
 32
        0.00000
 13
       64.00000
 23
       63.00000
 33
        4.00000
999
MAIN_CORRIDOR_ZN_1_FLR_1:MAIN_CORRIDOR_ZN_1_FLR_1_WALL_7_WINDOW_1
  0
3DFACE
  8
MAIN_CORRIDOR_ZN_1_FLR_1
 62
143
 10
       64.00000
 20
       80.95000
 30
        2.50780
 11
       64.00000
 21
       80.95000
 31
        1.10000
 12
       64.00000
 22
       63.05000
 32
        1.10000
 13
       64.00000
 23
       63.05000
 33
        2.50780
999
MAIN_CORRIDOR_ZN_1_FLR_1:MAIN_CORRIDOR_ZN_1_FLR_1_WALL_8
  0
3DFACE
  8
MAIN_CORRIDOR_ZN_1_FLR_1
 62
 43
 10
       64.00000
 20
       63.00000
 30
        4.00000
 11
       64.00000
 21
       63.00000
 31
        0.00000
 12
       64.00000
 22
       54.00000
 32
        0.00000
 13
       64.00000
 23
       54.00000
 33
        4.00000
999
MAIN_CORRIDOR_ZN_1_FLR_1:MAIN_CORRIDOR_ZN_1_FLR_1_WALL_9
  0
3DFACE
  8
MAIN_CORRIDOR_ZN_1_FLR_1
 62
 43
 10
       64.00000
 20
       54.00000
 30
        4.00000
 11
       64.00000
 21
       54.00000
 31
        0.00000
 12
       64.00000
 22
       49.00000
 32
        0.00000
 13
       64.00000
 23
       49.00000
 33
        4.00000
999
MAIN_CORRIDOR_ZN_1_FLR_1:MAIN_CORRIDOR_ZN_1_FLR_1_FLOOR
  0
3DFACE
  8
MAIN_CORRIDOR_ZN_1_FLR_1
 62
  8
 10
       64.00000
 20
       90.00000
 30
        0.00000
 11
       79.00000
 21
       90.00000
 31
        0.00000
 12
       79.00000
 22
       14.00000
 32
        0.00000
 13
       64.00000
 23
       14.00000
 33
        0.00000
999
MAIN_CORRIDOR_ZN_1_FLR_1:MAIN_CORRIDOR_ZN_1_FLR_1_CEILING
  0
3DFACE
  8
MAIN_CORRIDOR_ZN_1_FLR_1
 62
 15
 10
       64.00000
 20
       14.00000
 30
        4.00000
 11
       79.00000
 21
       14.00000
 31
        4.00000
 12
       79.00000
 22
       90.00000
 32
        4.00000
 13
       64.00000
 23
       90.00000
 33
        4.00000
999
MAIN_CORRIDOR_ZN_1_FLR_2:MAIN_CORRIDOR_ZN_1_FLR_2_WALL_1
  0
3DFACE
  8
MAIN_CORRIDOR_ZN_1_FLR_2
 62
 43
 10
       64.00000
 20
       14.00000
 30
        8.00000
 11
       64.00000
 21
       14.00000
 31
        4.00000
 12
       79.00000
 22
       14.00000
 32
        4.00000
 13
       79.00000
 23
       14.00000
 33
        8.00000
999
MAIN_CORRIDOR_ZN_1_FLR_2:MAIN_CORRIDOR_ZN_1_FLR_2_WALL_10
  0
3DFACE
  8
MAIN_CORRIDOR_ZN_1_FLR_2
 62
 43
 10
       64.00000
 20
       49.00000
 30
        8.00000
 11
       64.00000
 21
       49.00000
 31
        4.00000
 12
       64.00000
 22
       40.00000
 32
        4.00000
 13
       64.00000
 23
       40.00000
 33
        8.00000
999
MAIN_CORRIDOR_ZN_1_FLR_2:MAIN_CORRIDOR_ZN_1_FLR_2_WALL_11
  0
3DFACE
  8
MAIN_CORRIDOR_ZN_1_FLR_2
 62
 43
 10
       64.00000
 20
       40.00000
 30
        8.00000
 11
       64.00000
 21
       40.00000
 31
        4.00000
 12
       64.00000
 22
       23.00000
 32
        4.00000
 13
       64.00000
 23
       23.00000
 33
        8.00000
999
MAIN_CORRIDOR_ZN_1_FLR_2:MAIN_CORRIDOR_ZN_1_FLR_2_WALL_11_WINDOW_1
  0
3DFACE
  8
MAIN_CORRIDOR_ZN_1_FLR_2
 62
143
 10
       64.00000
 20
       39.95000
 30
        6.50830
 11
       64.00000
 21
       39.95000
 31
        5.10000
 12
       64.00000
 22
       23.05000
 32
        5.10000
 13
       64.00000
 23
       23.05000
 33
        6.50830
999
MAIN_CORRIDOR_ZN_1_FLR_2:MAIN_CORRIDOR_ZN_1_FLR_2_WALL_12
  0
3DFACE
  8
MAIN_CORRIDOR_ZN_1_FLR_2
 62
 43
 10
       64.00000
 20
       23.00000
 30
        8.00000
 11
       64.00000
 21
       23.00000
 31
        4.00000
 12
       64.00000
 22
       14.00000
 32
        4.00000
 13
       64.00000
 23
       14.00000
 33
        8.00000
999
MAIN_CORRIDOR_ZN_1_FLR_2:MAIN_CORRIDOR_ZN_1_FLR_2_WALL_2
  0
3DFACE
  8
MAIN_CORRIDOR_ZN_1_FLR_2
 62
 43
 10
       79.00000
 20
       14.00000
 30
        8.00000
 11
       79.00000
 21
       14.00000
 31
        4.00000
 12
       79.00000
 22
       66.00000
 32
        4.00000
 13
       79.00000
 23
       66.00000
 33
        8.00000
999
MAIN_CORRIDOR_ZN_1_FLR_2:MAIN_CORRIDOR_ZN_1_FLR_2_WALL_3
  0
3DFACE
  8
MAIN_CORRIDOR_ZN_1_FLR_2
 62
 43
 10
       79.00000
 20
       66.00000
 30
        8.00000
 11
       79.00000
 21
       66.00000
 31
        4.00000
 12
       79.00000
 22
       75.00000
 32
        4.00000
 13
       79.00000
 23
       75.00000
 33
        8.00000
999
MAIN_CORRIDOR_ZN_1_FLR_2:MAIN_CORRIDOR_ZN_1_FLR_2_WALL_4
  0
3DFACE
  8
MAIN_CORRIDOR_ZN_1_FLR_2
 62
 43
 10
       79.00000
 20
       75.00000
 30
        8.00000
 11
       79.00000
 21
       75.00000
 31
        4.00000
 12
       79.00000
 22
       90.00000
 32
        4.00000
 13
       79.00000
 23
       90.00000
 33
        8.00000
999
MAIN_CORRIDOR_ZN_1_FLR_2:MAIN_CORRIDOR_ZN_1_FLR_2_WALL_5
  0
3DFACE
  8
MAIN_CORRIDOR_ZN_1_FLR_2
 62
 43
 10
       79.00000
 20
       90.00000
 30
        8.00000
 11
       79.00000
 21
       90.00000
 31
        4.00000
 12
       64.00000
 22
       90.00000
 32
        4.00000
 13
       64.00000
 23
       90.00000
 33
        8.00000
999
MAIN_CORRIDOR_ZN_1_FLR_2:MAIN_CORRIDOR_ZN_1_FLR_2_WALL_6
  0
3DFACE
  8
MAIN_CORRIDOR_ZN_1_FLR_2
 62
 43
 10
       64.00000
 20
       90.00000
 30
        8.00000
 11
       64.00000
 21
       90.00000
 31
        4.00000
 12
       64.00000
 22
       81.00000
 32
        4.00000
 13
       64.00000
 23
       81.00000
 33
        8.00000
999
MAIN_CORRIDOR_ZN_1_FLR_2:MAIN_CORRIDOR_ZN_1_FLR_2_WALL_7
  0
3DFACE
  8
MAIN_CORRIDOR_ZN_1_FLR_2
 62
 43
 10
       64.00000
 20
       81.00000
 30
        8.00000
 11
       64.00000
 21
       81.00000
 31
        4.00000
 12
       64.00000
 22
       63.00000
 32
        4.00000
 13
       64.00000
 23
       63.00000
 33
        8.00000
999
MAIN_CORRIDOR_ZN_1_FLR_2:MAIN_CORRIDOR_ZN_1_FLR_2_WALL_7_WINDOW_1
  0
3DFACE
  8
MAIN_CORRIDOR_ZN_1_FLR_2
 62
143
 10
       64.00000
 20
       80.95000
 30
        6.50780
 11
       64.00000
 21
       80.95000
 31
        5.10000
 12
       64.00000
 22
       63.05000
 32
        5.10000
 13
       64.00000
 23
       63.05000
 33
        6.50780
999
MAIN_CORRIDOR_ZN_1_FLR_2:MAIN_CORRIDOR_ZN_1_FLR_2_WALL_8
  0
3DFACE
  8
MAIN_CORRIDOR_ZN_1_FLR_2
 62
 43
 10
       64.00000
 20
       63.00000
 30
        8.00000
 11
       64.00000
 21
       63.00000
 31
        4.00000
 12
       64.00000
 22
       54.00000
 32
        4.00000
 13
       64.00000
 23
       54.00000
 33
        8.00000
999
MAIN_CORRIDOR_ZN_1_FLR_2:MAIN_CORRIDOR_ZN_1_FLR_2_WALL_9
  0
3DFACE
  8
MAIN_CORRIDOR_ZN_1_FLR_2
 62
 43
 10
       64.00000
 20
       54.00000
 30
        8.00000
 11
       64.00000
 21
       54.00000
 31
        4.00000
 12
       64.00000
 22
       49.00000
 32
        4.00000
 13
       64.00000
 23
       49.00000
 33
        8.00000
999
MAIN_CORRIDOR_ZN_1_FLR_2:MAIN_CORRIDOR_ZN_1_FLR_2_FLOOR
  0
3DFACE
  8
MAIN_CORRIDOR_ZN_1_FLR_2
 62
  8
 10
       64.00000
 20
       90.00000
 30
        4.00000
 11
       79.00000
 21
       90.00000
 31
        4.00000
 12
       79.00000
 22
       14.00000
 32
        4.00000
 13
       64.00000
 23
       14.00000
 33
        4.00000
999
MAIN_CORRIDOR_ZN_1_FLR_2:MAIN_CORRIDOR_ZN_1_FLR_2_CEILING
  0
3DFACE
  8
MAIN_CORRIDOR_ZN_1_FLR_2
 62
 15
 10
       64.00000
 20
       14.00000
 30
        8.00000
 11
       79.00000
 21
       14.00000
 31
        8.00000
 12
       79.00000
 22
       90.00000
 32
        8.00000
 13
       64.00000
 23
       90.00000
 33
        8.00000
999
MECH_ZN_1_FLR_1:MECH_ZN_1_FLR_1_WALL_1
  0
3DFACE
  8
MECH_ZN_1_FLR_1
 62
 43
 10
       79.00000
 20
       66.00000
 30
        4.00000
 11
       79.00000
 21
       66.00000
 31
        0.00000
 12
      117.00000
 22
       66.00000
 32
        0.00000
 13
      117.00000
 23
       66.00000
 33
        4.00000
999
MECH_ZN_1_FLR_1:MECH_ZN_1_FLR_1_WALL_2
  0
3DFACE
  8
MECH_ZN_1_FLR_1
 62
 43
 10
      117.00000
 20
       66.00000
 30
        4.00000
 11
      117.00000
 21
       66.00000
 31
        0.00000
 12
      117.00000
 22
       75.00000
 32
        0.00000
 13
      117.00000
 23
       75.00000
 33
        4.00000
999
MECH_ZN_1_FLR_1:MECH_ZN_1_FLR_1_WALL_3
  0
3DFACE
  8
MECH_ZN_1_FLR_1
 62
 43
 10
      117.00000
 20
       75.00000
 30
        4.00000
 11
      117.00000
 21
       75.00000
 31
        0.00000
 12
       79.00000
 22
       75.00000
 32
        0.00000
 13
       79.00000
 23
       75.00000
 33
        4.00000
999
MECH_ZN_1_FLR_1:MECH_ZN_1_FLR_1_WALL_4
  0
3DFACE
  8
MECH_ZN_1_FLR_1
 62
 43
 10
       79.00000
 20
       75.00000
 30
        4.00000
 11
       79.00000
 21
       75.00000
 31
        0.00000
 12
       79.00000
 22
       66.00000
 32
        0.00000
 13
       79.00000
 23
       66.00000
 33
        4.00000
999
MECH_ZN_1_FLR_1:MECH_ZN_1_FLR_1_FLOOR
  0
3DFACE
  8
MECH_ZN_1_FLR_1
 62
  8
 10
       79.00000
 20
       75.00000
 30
        0.00000
 11
      117.00000
 21
       75.00000
 31
        0.00000
 12
      117.00000
 22
       66.00000
 32
        0.00000
 13
       79.00000
 23
       66.00000
 33
        0.00000
999
MECH_ZN_1_FLR_1:MECH_ZN_1_FLR_1_CEILING
  0
3DFACE
  8
MECH_ZN_1_FLR_1
 62
 15
 10
       79.00000
 20
       66.00000
 30
        4.00000
 11
      117.00000
 21
       66.00000
 31
        4.00000
 12
      117.00000
 22
       75.00000
 32
        4.00000
 13
       79.00000
 23
       75.00000
 33
        4.00000
999
MECH_ZN_1_FLR_2:MECH_ZN_1_FLR_2_WALL_1
  0
3DFACE
  8
MECH_ZN_1_FLR_2
 62
 43
 10
       79.00000
 20
       66.00000
 30
        8.00000
 11
       79.00000
 21
       66.00000
 31
        4.00000
 12
      117.00000
 22
       66.00000
 32
        4.00000
 13
      117.00000
 23
       66.00000
 33
        8.00000
999
MECH_ZN_1_FLR_2:MECH_ZN_1_FLR_2_WALL_2
  0
3DFACE
  8
MECH_ZN_1_FLR_2
 62
 43
 10
      117.00000
 20
       66.00000
 30
        8.00000
 11
      117.00000
 21
       66.00000
 31
        4.00000
 12
      117.00000
 22
       75.00000
 32
        4.00000
 13
      117.00000
 23
       75.00000
 33
        8.00000
999
MECH_ZN_1_FLR_2:MECH_ZN_1_FLR_2_WALL_3
  0
3DFACE
  8
MECH_ZN_1_FLR_2
 62
 43
 10
      117.00000
 20
       75.00000
 30
        8.00000
 11
      117.00000
 21
       75.00000
 31
        4.00000
 12
       79.00000
 22
       75.00000
 32
        4.00000
 13
       79.00000
 23
       75.00000
 33
        8.00000
999
MECH_ZN_1_FLR_2:MECH_ZN_1_FLR_2_WALL_4
  0
3DFACE
  8
MECH_ZN_1_FLR_2
 62
 43
 10
       79.00000
 20
       75.00000
 30
        8.00000
 11
       79.00000
 21
       75.00000
 31
        4.00000
 12
       79.00000
 22
       66.00000
 32
        4.00000
 13
       79.00000
 23
       66.00000
 33
        8.00000
999
MECH_ZN_1_FLR_2:MECH_ZN_1_FLR_2_FLOOR
  0
3DFACE
  8
MECH_ZN_1_FLR_2
 62
  8
 10
       79.00000
 20
       75.00000
 30
        4.00000
 11
      117.00000
 21
       75.00000
 31
        4.00000
 12
      117.00000
 22
       66.00000
 32
        4.00000
 13
       79.00000
 23
       66.00000
 33
        4.00000
999
MECH_ZN_1_FLR_2:MECH_ZN_1_FLR_2_CEILING
  0
3DFACE
  8
MECH_ZN_1_FLR_2
 62
 15
 10
       79.00000
 20
       66.00000
 30
        8.00000
 11
      117.00000
 21
       66.00000
 31
        8.00000
 12
      117.00000
 22
       75.00000
 32
        8.00000
 13
       79.00000
 23
       75.00000
 33
        8.00000
999
MULT_CLASS_1_POD_1_ZN_1_FLR_1:MULT_CLASS_1_POD_1_ZN_1_FLR_1_WALL_1
  0
3DFACE
  8
MULT_CLASS_1_POD_1_ZN_1_FLR_1
 62
 43
 10
       11.00000
 20
        0.00000
 30
        4.00000
 11
       11.00000
 21
        0.00000
 31
        0.00000
 12
       64.00000
 22
        0.00000
 32
        0.00000
 13
       64.00000
 23
        0.00000
 33
        4.00000
999
MULT_CLASS_1_POD_1_ZN_1_FLR_1:MULT_CLASS_1_POD_1_ZN_1_FLR_1_WALL_1_WINDOW_1
  0
3DFACE
  8
MULT_CLASS_1_POD_1_ZN_1_FLR_1
 62
143
 10
       11.05000
 20
        0.00000
 30
        2.50260
 11
       11.05000
 21
        0.00000
 31
        1.10000
 12
       63.95000
 22
        0.00000
 32
        1.10000
 13
       63.95000
 23
        0.00000
 33
        2.50260
999
MULT_CLASS_1_POD_1_ZN_1_FLR_1:MULT_CLASS_1_POD_1_ZN_1_FLR_1_WALL_2
  0
3DFACE
  8
MULT_CLASS_1_POD_1_ZN_1_FLR_1
 62
 43
 10
       64.00000
 20
        0.00000
 30
        4.00000
 11
       64.00000
 21
        0.00000
 31
        0.00000
 12
       64.00000
 22
        9.00000
 32
        0.00000
 13
       64.00000
 23
        9.00000
 33
        4.00000
999
MULT_CLASS_1_POD_1_ZN_1_FLR_1:MULT_CLASS_1_POD_1_ZN_1_FLR_1_WALL_3
  0
3DFACE
  8
MULT_CLASS_1_POD_1_ZN_1_FLR_1
 62
 43
 10
       64.00000
 20
        9.00000
 30
        4.00000
 11
       64.00000
 21
        9.00000
 31
        0.00000
 12
       11.00000
 22
        9.00000
 32
        0.00000
 13
       11.00000
 23
        9.00000
 33
        4.00000
999
MULT_CLASS_1_POD_1_ZN_1_FLR_1:MULT_CLASS_1_POD_1_ZN_1_FLR_1_WALL_4
  0
3DFACE
  8
MULT_CLASS_1_POD_1_ZN_1_FLR_1
 62
 43
 10
       11.00000
 20
        9.00000
 30
        4.00000
 11
       11.00000
 21
        9.00000
 31
        0.00000
 12
       11.00000
 22
        0.00000
 32
        0.00000
 13
       11.00000
 23
        0.00000
 33
        4.00000
999
MULT_CLASS_1_POD_1_ZN_1_FLR_1:MULT_CLASS_1_POD_1_ZN_1_FLR_1_FLOOR
  0
3DFACE
  8
MULT_CLASS_1_POD_1_ZN_1_FLR_1
 62
  8
 10
       11.00000
 20
        9.00000
 30
        0.00000
 11
       64.00000
 21
        9.00000
 31
        0.00000
 12
       64.00000
 22
        0.00000
 32
        0.00000
 13
       11.00000
 23
        0.00000
 33
        0.00000
999
MULT_CLASS_1_POD_1_ZN_1_FLR_1:MULT_CLASS_1_POD_1_ZN_1_FLR_1_CEILING
  0
3DFACE
  8
MULT_CLASS_1_POD_1_ZN_1_FLR_1
 62
 15
 10
       11.00000
 20
        0.00000
 30
        4.00000
 11
       64.00000
 21
        0.00000
 31
        4.00000
 12
       64.00000
 22
        9.00000
 32
        4.00000
 13
       11.00000
 23
        9.00000
 33
        4.00000
999
MULT_CLASS_1_POD_1_ZN_1_FLR_2:MULT_CLASS_1_POD_1_ZN_1_FLR_2_WALL_1
  0
3DFACE
  8
MULT_CLASS_1_POD_1_ZN_1_FLR_2
 62
 43
 10
       11.00000
 20
        0.00000
 30
        8.00000
 11
       11.00000
 21
        0.00000
 31
        4.00000
 12
       64.00000
 22
        0.00000
 32
        4.00000
 13
       64.00000
 23
        0.00000
 33
        8.00000
999
MULT_CLASS_1_POD_1_ZN_1_FLR_2:MULT_CLASS_1_POD_1_ZN_1_FLR_2_WALL_1_WINDOW_1
  0
3DFACE
  8
MULT_CLASS_1_POD_1_ZN_1_FLR_2
 62
143
 10
       11.05000
 20
        0.00000
 30
        6.50260
 11
       11.05000
 21
        0.00000
 31
        5.10000
 12
       63.95000
 22
        0.00000
 32
        5.10000
 13
       63.95000
 23
        0.00000
 33
        6.50260
999
MULT_CLASS_1_POD_1_ZN_1_FLR_2:MULT_CLASS_1_POD_1_ZN_1_FLR_2_WALL_2
  0
3DFACE
  8
MULT_CLASS_1_POD_1_ZN_1_FLR_2
 62
 43
 10
       64.00000
 20
        0.00000
 30
        8.00000
 11
       64.00000
 21
        0.00000
 31
        4.00000
 12
       64.00000
 22
        9.00000
 32
        4.00000
 13
       64.00000
 23
        9.00000
 33
        8.00000
999
MULT_CLASS_1_POD_1_ZN_1_FLR_2:MULT_CLASS_1_POD_1_ZN_1_FLR_2_WALL_3
  0
3DFACE
  8
MULT_CLASS_1_POD_1_ZN_1_FLR_2
 62
 43
 10
       64.00000
 20
        9.00000
 30
        8.00000
 11
       64.00000
 21
        9.00000
 31
        4.00000
 12
       11.00000
 22
        9.00000
 32
        4.00000
 13
       11.00000
 23
        9.00000
 33
        8.00000
999
MULT_CLASS_1_POD_1_ZN_1_FLR_2:MULT_CLASS_1_POD_1_ZN_1_FLR_2_WALL_4
  0
3DFACE
  8
MULT_CLASS_1_POD_1_ZN_1_FLR_2
 62
 43
 10
       11.00000
 20
        9.00000
 30
        8.00000
 11
       11.00000
 21
        9.00000
 31
        4.00000
 12
       11.00000
 22
        0.00000
 32
        4.00000
 13
       11.00000
 23
        0.00000
 33
        8.00000
999
MULT_CLASS_1_POD_1_ZN_1_FLR_2:MULT_CLASS_1_POD_1_ZN_1_FLR_2_FLOOR
  0
3DFACE
  8
MULT_CLASS_1_POD_1_ZN_1_FLR_2
 62
  8
 10
       11.00000
 20
        9.00000
 30
        4.00000
 11
       64.00000
 21
        9.00000
 31
        4.00000
 12
       64.00000
 22
        0.00000
 32
        4.00000
 13
       11.00000
 23
        0.00000
 33
        4.00000
999
MULT_CLASS_1_POD_1_ZN_1_FLR_2:MULT_CLASS_1_POD_1_ZN_1_FLR_2_CEILING
  0
3DFACE
  8
MULT_CLASS_1_POD_1_ZN_1_FLR_2
 62
 15
 10
       11.00000
 20
        0.00000
 30
        8.00000
 11
       64.00000
 21
        0.00000
 31
        8.00000
 12
       64.00000
 22
        9.00000
 32
        8.00000
 13
       11.00000
 23
        9.00000
 33
        8.00000
999
MULT_CLASS_1_POD_2_ZN_1_FLR_1:MULT_CLASS_1_POD_2_ZN_1_FLR_1_WALL_1
  0
3DFACE
  8
MULT_CLASS_1_POD_2_ZN_1_FLR_1
 62
 43
 10
       11.00000
 20
       40.00000
 30
        4.00000
 11
       11.00000
 21
       40.00000
 31
        0.00000
 12
       64.00000
 22
       40.00000
 32
        0.00000
 13
       64.00000
 23
       40.00000
 33
        4.00000
999
MULT_CLASS_1_POD_2_ZN_1_FLR_1:MULT_CLASS_1_POD_2_ZN_1_FLR_1_WALL_1_WINDOW_1
  0
3DFACE
  8
MULT_CLASS_1_POD_2_ZN_1_FLR_1
 62
143
 10
       11.05000
 20
       40.00000
 30
        2.50260
 11
       11.05000
 21
       40.00000
 31
        1.10000
 12
       63.95000
 22
       40.00000
 32
        1.10000
 13
       63.95000
 23
       40.00000
 33
        2.50260
999
MULT_CLASS_1_POD_2_ZN_1_FLR_1:MULT_CLASS_1_POD_2_ZN_1_FLR_1_WALL_2
  0
3DFACE
  8
MULT_CLASS_1_POD_2_ZN_1_FLR_1
 62
 43
 10
       64.00000
 20
       40.00000
 30
        4.00000
 11
       64.00000
 21
       40.00000
 31
        0.00000
 12
       64.00000
 22
       49.00000
 32
        0.00000
 13
       64.00000
 23
       49.00000
 33
        4.00000
999
MULT_CLASS_1_POD_2_ZN_1_FLR_1:MULT_CLASS_1_POD_2_ZN_1_FLR_1_WALL_3
  0
3DFACE
  8
MULT_CLASS_1_POD_2_ZN_1_FLR_1
 62
 43
 10
       64.00000
 20
       49.00000
 30
        4.00000
 11
       64.00000
 21
       49.00000
 31
        0.00000
 12
       11.00000
 22
       49.00000
 32
        0.00000
 13
       11.00000
 23
       49.00000
 33
        4.00000
999
MULT_CLASS_1_POD_2_ZN_1_FLR_1:MULT_CLASS_1_POD_2_ZN_1_FLR_1_WALL_4
  0
3DFACE
  8
MULT_CLASS_1_POD_2_ZN_1_FLR_1
 62
 43
 10
       11.00000
 20
       49.00000
 30
        4.00000
 11
       11.00000
 21
       49.00000
 31
        0.00000
 12
       11.00000
 22
       40.00000
 32
        0.00000
 13
       11.00000
 23
       40.00000
 33
        4.00000
999
MULT_CLASS_1_POD_2_ZN_1_FLR_1:MULT_CLASS_1_POD_2_ZN_1_FLR_1_FLOOR
  0
3DFACE
  8
MULT_CLASS_1_POD_2_ZN_1_FLR_1
 62
  8
 10
       11.00000
 20
       49.00000
 30
        0.00000
 11
       64.00000
 21
       49.00000
 31
        0.00000
 12
       64.00000
 22
       40.00000
 32
        0.00000
 13
       11.00000
 23
       40.00000
 33
        0.00000
999
MULT_CLASS_1_POD_2_ZN_1_FLR_1:MULT_CLASS_1_POD_2_ZN_1_FLR_1_CEILING
  0
3DFACE
  8
MULT_CLASS_1_POD_2_ZN_1_FLR_1
 62
 15
 10
       11.00000
 20
       40.00000
 30
        4.00000
 11
       64.00000
 21
       40.00000
 31
        4.00000
 12
       64.00000
 22
       49.00000
 32
        4.00000
 13
       11.00000
 23
       49.00000
 33
        4.00000
999
MULT_CLASS_1_POD_2_ZN_1_FLR_2:MULT_CLASS_1_POD_2_ZN_1_FLR_2_WALL_1
  0
3DFACE
  8
MULT_CLASS_1_POD_2_ZN_1_FLR_2
 62
 43
 10
       11.00000
 20
       40.00000
 30
        8.00000
 11
       11.00000
 21
       40.00000
 31
        4.00000
 12
       64.00000
 22
       40.00000
 32
        4.00000
 13
       64.00000
 23
       40.00000
 33
        8.00000
999
MULT_CLASS_1_POD_2_ZN_1_FLR_2:MULT_CLASS_1_POD_2_ZN_1_FLR_2_WALL_1_WINDOW_1
  0
3DFACE
  8
MULT_CLASS_1_POD_2_ZN_1_FLR_2
 62
143
 10
       11.05000
 20
       40.00000
 30
        6.50260
 11
       11.05000
 21
       40.00000
 31
        5.10000
 12
       63.95000
 22
       40.00000
 32
        5.10000
 13
       63.95000
 23
       40.00000
 33
        6.50260
999
MULT_CLASS_1_POD_2_ZN_1_FLR_2:MULT_CLASS_1_POD_2_ZN_1_FLR_2_WALL_2
  0
3DFACE
  8
MULT_CLASS_1_POD_2_ZN_1_FLR_2
 62
 43
 10
       64.00000
 20
       40.00000
 30
        8.00000
 11
       64.00000
 21
       40.00000
 31
        4.00000
 12
       64.00000
 22
       49.00000
 32
        4.00000
 13
       64.00000
 23
       49.00000
 33
        8.00000
999
MULT_CLASS_1_POD_2_ZN_1_FLR_2:MULT_CLASS_1_POD_2_ZN_1_FLR_2_WALL_3
  0
3DFACE
  8
MULT_CLASS_1_POD_2_ZN_1_FLR_2
 62
 43
 10
       64.00000
 20
       49.00000
 30
        8.00000
 11
       64.00000
 21
       49.00000
 31
        4.00000
 12
       11.00000
 22
       49.00000
 32
        4.00000
 13
       11.00000
 23
       49.00000
 33
        8.00000
999
MULT_CLASS_1_POD_2_ZN_1_FLR_2:MULT_CLASS_1_POD_2_ZN_1_FLR_2_WALL_4
  0
3DFACE
  8
MULT_CLASS_1_POD_2_ZN_1_FLR_2
 62
 43
 10
       11.00000
 20
       49.00000
 30
        8.00000
 11
       11.00000
 21
       49.00000
 31
        4.00000
 12
       11.00000
 22
       40.00000
 32
        4.00000
 13
       11.00000
 23
       40.00000
 33
        8.00000
999
MULT_CLASS_1_POD_2_ZN_1_FLR_2:MULT_CLASS_1_POD_2_ZN_1_FLR_2_FLOOR
  0
3DFACE
  8
MULT_CLASS_1_POD_2_ZN_1_FLR_2
 62
  8
 10
       11.00000
 20
       49.00000
 30
        4.00000
 11
       64.00000
 21
       49.00000
 31
        4.00000
 12
       64.00000
 22
       40.00000
 32
        4.00000
 13
       11.00000
 23
       40.00000
 33
        4.00000
999
MULT_CLASS_1_POD_2_ZN_1_FLR_2:MULT_CLASS_1_POD_2_ZN_1_FLR_2_CEILING
  0
3DFACE
  8
MULT_CLASS_1_POD_2_ZN_1_FLR_2
 62
 15
 10
       11.00000
 20
       40.00000
 30
        8.00000
 11
       64.00000
 21
       40.00000
 31
        8.00000
 12
       64.00000
 22
       49.00000
 32
        8.00000
 13
       11.00000
 23
       49.00000
 33
        8.00000
999
MULT_CLASS_1_POD_3_ZN_1_FLR_1:MULT_CLASS_1_POD_3_ZN_1_FLR_1_WALL_1
  0
3DFACE
  8
MULT_CLASS_1_POD_3_ZN_1_FLR_1
 62
 43
 10
       11.00000
 20
       81.00000
 30
        4.00000
 11
       11.00000
 21
       81.00000
 31
        0.00000
 12
       64.00000
 22
       81.00000
 32
        0.00000
 13
       64.00000
 23
       81.00000
 33
        4.00000
999
MULT_CLASS_1_POD_3_ZN_1_FLR_1:MULT_CLASS_1_POD_3_ZN_1_FLR_1_WALL_1_WINDOW_1
  0
3DFACE
  8
MULT_CLASS_1_POD_3_ZN_1_FLR_1
 62
143
 10
       11.05000
 20
       81.00000
 30
        2.50260
 11
       11.05000
 21
       81.00000
 31
        1.10000
 12
       63.95000
 22
       81.00000
 32
        1.10000
 13
       63.95000
 23
       81.00000
 33
        2.50260
999
MULT_CLASS_1_POD_3_ZN_1_FLR_1:MULT_CLASS_1_POD_3_ZN_1_FLR_1_WALL_2
  0
3DFACE
  8
MULT_CLASS_1_POD_3_ZN_1_FLR_1
 62
 43
 10
       64.00000
 20
       81.00000
 30
        4.00000
 11
       64.00000
 21
       81.00000
 31
        0.00000
 12
       64.00000
 22
       90.00000
 32
        0.00000
 13
       64.00000
 23
       90.00000
 33
        4.00000
999
MULT_CLASS_1_POD_3_ZN_1_FLR_1:MULT_CLASS_1_POD_3_ZN_1_FLR_1_WALL_3
  0
3DFACE
  8
MULT_CLASS_1_POD_3_ZN_1_FLR_1
 62
 43
 10
       64.00000
 20
       90.00000
 30
        4.00000
 11
       64.00000
 21
       90.00000
 31
        0.00000
 12
       11.00000
 22
       90.00000
 32
        0.00000
 13
       11.00000
 23
       90.00000
 33
        4.00000
999
MULT_CLASS_1_POD_3_ZN_1_FLR_1:MULT_CLASS_1_POD_3_ZN_1_FLR_1_WALL_4
  0
3DFACE
  8
MULT_CLASS_1_POD_3_ZN_1_FLR_1
 62
 43
 10
       11.00000
 20
       90.00000
 30
        4.00000
 11
       11.00000
 21
       90.00000
 31
        0.00000
 12
       11.00000
 22
       81.00000
 32
        0.00000
 13
       11.00000
 23
       81.00000
 33
        4.00000
999
MULT_CLASS_1_POD_3_ZN_1_FLR_1:MULT_CLASS_1_POD_3_ZN_1_FLR_1_FLOOR
  0
3DFACE
  8
MULT_CLASS_1_POD_3_ZN_1_FLR_1
 62
  8
 10
       11.00000
 20
       90.00000
 30
        0.00000
 11
       64.00000
 21
       90.00000
 31
        0.00000
 12
       64.00000
 22
       81.00000
 32
        0.00000
 13
       11.00000
 23
       81.00000
 33
        0.00000
999
MULT_CLASS_1_POD_3_ZN_1_FLR_1:MULT_CLASS_1_POD_3_ZN_1_FLR_1_CEILING
  0
3DFACE
  8
MULT_CLASS_1_POD_3_ZN_1_FLR_1
 62
 15
 10
       11.00000
 20
       81.00000
 30
        4.00000
 11
       64.00000
 21
       81.00000
 31
        4.00000
 12
       64.00000
 22
       90.00000
 32
        4.00000
 13
       11.00000
 23
       90.00000
 33
        4.00000
999
MULT_CLASS_1_POD_3_ZN_1_FLR_2:MULT_CLASS_1_POD_3_ZN_1_FLR_2_WALL_1
  0
3DFACE
  8
MULT_CLASS_1_POD_3_ZN_1_FLR_2
 62
 43
 10
       11.00000
 20
       81.00000
 30
        8.00000
 11
       11.00000
 21
       81.00000
 31
        4.00000
 12
       64.00000
 22
       81.00000
 32
        4.00000
 13
       64.00000
 23
       81.00000
 33
        8.00000
999
MULT_CLASS_1_POD_3_ZN_1_FLR_2:MULT_CLASS_1_POD_3_ZN_1_FLR_2_WALL_1_WINDOW_1
  0
3DFACE
  8
MULT_CLASS_1_POD_3_ZN_1_FLR_2
 62
143
 10
       11.05000
 20
       81.00000
 30
        6.50260
 11
       11.05000
 21
       81.00000
 31
        5.10000
 12
       63.95000
 22
       81.00000
 32
        5.10000
 13
       63.95000
 23
       81.00000
 33
        6.50260
999
MULT_CLASS_1_POD_3_ZN_1_FLR_2:MULT_CLASS_1_POD_3_ZN_1_FLR_2_WALL_2
  0
3DFACE
  8
MULT_CLASS_1_POD_3_ZN_1_FLR_2
 62
 43
 10
       64.00000
 20
       81.00000
 30
        8.00000
 11
       64.00000
 21
       81.00000
 31
        4.00000
 12
       64.00000
 22
       90.00000
 32
        4.00000
 13
       64.00000
 23
       90.00000
 33
        8.00000
999
MULT_CLASS_1_POD_3_ZN_1_FLR_2:MULT_CLASS_1_POD_3_ZN_1_FLR_2_WALL_3
  0
3DFACE
  8
MULT_CLASS_1_POD_3_ZN_1_FLR_2
 62
 43
 10
       64.00000
 20
       90.00000
 30
        8.00000
 11
       64.00000
 21
       90.00000
 31
        4.00000
 12
       11.00000
 22
       90.00000
 32
        4.00000
 13
       11.00000
 23
       90.00000
 33
        8.00000
999
MULT_CLASS_1_POD_3_ZN_1_FLR_2:MULT_CLASS_1_POD_3_ZN_1_FLR_2_WALL_4
  0
3DFACE
  8
MULT_CLASS_1_POD_3_ZN_1_FLR_2
 62
 43
 10
       11.00000
 20
       90.00000
 30
        8.00000
 11
       11.00000
 21
       90.00000
 31
        4.00000
 12
       11.00000
 22
       81.00000
 32
        4.00000
 13
       11.00000
 23
       81.00000
 33
        8.00000
999
MULT_CLASS_1_POD_3_ZN_1_FLR_2:MULT_CLASS_1_POD_3_ZN_1_FLR_2_FLOOR
  0
3DFACE
  8
MULT_CLASS_1_POD_3_ZN_1_FLR_2
 62
  8
 10
       11.00000
 20
       90.00000
 30
        4.00000
 11
       64.00000
 21
       90.00000
 31
        4.00000
 12
       64.00000
 22
       81.00000
 32
        4.00000
 13
       11.00000
 23
       81.00000
 33
        4.00000
999
MULT_CLASS_1_POD_3_ZN_1_FLR_2:MULT_CLASS_1_POD_3_ZN_1_FLR_2_CEILING
  0
3DFACE
  8
MULT_CLASS_1_POD_3_ZN_1_FLR_2
 62
 15
 10
       11.00000
 20
       81.00000
 30
        8.00000
 11
       64.00000
 21
       81.00000
 31
        8.00000
 12
       64.00000
 22
       90.00000
 32
        8.00000
 13
       11.00000
 23
       90.00000
 33
        8.00000
999
MULT_CLASS_2_POD_1_ZN_1_FLR_1:MULT_CLASS_2_POD_1_ZN_1_FLR_1_WALL_1
  0
3DFACE
  8
MULT_CLASS_2_POD_1_ZN_1_FLR_1
 62
 43
 10
       11.00000
 20
       14.00000
 30
        4.00000
 11
       11.00000
 21
       14.00000
 31
        0.00000
 12
       64.00000
 22
       14.00000
 32
        0.00000
 13
       64.00000
 23
       14.00000
 33
        4.00000
999
MULT_CLASS_2_POD_1_ZN_1_FLR_1:MULT_CLASS_2_POD_1_ZN_1_FLR_1_WALL_2
  0
3DFACE
  8
MULT_CLASS_2_POD_1_ZN_1_FLR_1
 62
 43
 10
       64.00000
 20
       14.00000
 30
        4.00000
 11
       64.00000
 21
       14.00000
 31
        0.00000
 12
       64.00000
 22
       23.00000
 32
        0.00000
 13
       64.00000
 23
       23.00000
 33
        4.00000
999
MULT_CLASS_2_POD_1_ZN_1_FLR_1:MULT_CLASS_2_POD_1_ZN_1_FLR_1_WALL_3
  0
3DFACE
  8
MULT_CLASS_2_POD_1_ZN_1_FLR_1
 62
 43
 10
       64.00000
 20
       23.00000
 30
        4.00000
 11
       64.00000
 21
       23.00000
 31
        0.00000
 12
       11.00000
 22
       23.00000
 32
        0.00000
 13
       11.00000
 23
       23.00000
 33
        4.00000
999
MULT_CLASS_2_POD_1_ZN_1_FLR_1:MULT_CLASS_2_POD_1_ZN_1_FLR_1_WALL_3_WINDOW_1
  0
3DFACE
  8
MULT_CLASS_2_POD_1_ZN_1_FLR_1
 62
143
 10
       63.95000
 20
       23.00000
 30
        2.50260
 11
       63.95000
 21
       23.00000
 31
        1.10000
 12
       11.05000
 22
       23.00000
 32
        1.10000
 13
       11.05000
 23
       23.00000
 33
        2.50260
999
MULT_CLASS_2_POD_1_ZN_1_FLR_1:MULT_CLASS_2_POD_1_ZN_1_FLR_1_WALL_4
  0
3DFACE
  8
MULT_CLASS_2_POD_1_ZN_1_FLR_1
 62
 43
 10
       11.00000
 20
       23.00000
 30
        4.00000
 11
       11.00000
 21
       23.00000
 31
        0.00000
 12
       11.00000
 22
       14.00000
 32
        0.00000
 13
       11.00000
 23
       14.00000
 33
        4.00000
999
MULT_CLASS_2_POD_1_ZN_1_FLR_1:MULT_CLASS_2_POD_1_ZN_1_FLR_1_FLOOR
  0
3DFACE
  8
MULT_CLASS_2_POD_1_ZN_1_FLR_1
 62
  8
 10
       11.00000
 20
       23.00000
 30
        0.00000
 11
       64.00000
 21
       23.00000
 31
        0.00000
 12
       64.00000
 22
       14.00000
 32
        0.00000
 13
       11.00000
 23
       14.00000
 33
        0.00000
999
MULT_CLASS_2_POD_1_ZN_1_FLR_1:MULT_CLASS_2_POD_1_ZN_1_FLR_1_CEILING
  0
3DFACE
  8
MULT_CLASS_2_POD_1_ZN_1_FLR_1
 62
 15
 10
       11.00000
 20
       14.00000
 30
        4.00000
 11
       64.00000
 21
       14.00000
 31
        4.00000
 12
       64.00000
 22
       23.00000
 32
        4.00000
 13
       11.00000
 23
       23.00000
 33
        4.00000
999
MULT_CLASS_2_POD_1_ZN_1_FLR_2:MULT_CLASS_2_POD_1_ZN_1_FLR_2_WALL_1
  0
3DFACE
  8
MULT_CLASS_2_POD_1_ZN_1_FLR_2
 62
 43
 10
       11.00000
 20
       14.00000
 30
        8.00000
 11
       11.00000
 21
       14.00000
 31
        4.00000
 12
       64.00000
 22
       14.00000
 32
        4.00000
 13
       64.00000
 23
       14.00000
 33
        8.00000
999
MULT_CLASS_2_POD_1_ZN_1_FLR_2:MULT_CLASS_2_POD_1_ZN_1_FLR_2_WALL_2
  0
3DFACE
  8
MULT_CLASS_2_POD_1_ZN_1_FLR_2
 62
 43
 10
       64.00000
 20
       14.00000
 30
        8.00000
 11
       64.00000
 21
       14.00000
 31
        4.00000
 12
       64.00000
 22
       23.00000
 32
        4.00000
 13
       64.00000
 23
       23.00000
 33
        8.00000
999
MULT_CLASS_2_POD_1_ZN_1_FLR_2:MULT_CLASS_2_POD_1_ZN_1_FLR_2_WALL_3
  0
3DFACE
  8
MULT_CLASS_2_POD_1_ZN_1_FLR_2
 62
 43
 10
       64.00000
 20
       23.00000
 30
        8.00000
 11
       64.00000
 21
       23.00000
 31
        4.00000
 12
       11.00000
 22
       23.00000
 32
        4.00000
 13
       11.00000
 23
       23.00000
 33
        8.00000
999
MULT_CLASS_2_POD_1_ZN_1_FLR_2:MULT_CLASS_2_POD_1_ZN_1_FLR_2_WALL_3_WINDOW_1
  0
3DFACE
  8
MULT_CLASS_2_POD_1_ZN_1_FLR_2
 62
143
 10
       63.95000
 20
       23.00000
 30
        6.50260
 11
       63.95000
 21
       23.00000
 31
        5.10000
 12
       11.05000
 22
       23.00000
 32
        5.10000
 13
       11.05000
 23
       23.00000
 33
        6.50260
999
MULT_CLASS_2_POD_1_ZN_1_FLR_2:MULT_CLASS_2_POD_1_ZN_1_FLR_2_WALL_4
  0
3DFACE
  8
MULT_CLASS_2_POD_1_ZN_1_FLR_2
 62
 43
 10
       11.00000
 20
       23.00000
 30
        8.00000
 11
       11.00000
 21
       23.00000
 31
        4.00000
 12
       11.00000
 22
       14.00000
 32
        4.00000
 13
       11.00000
 23
       14.00000
 33
        8.00000
999
MULT_CLASS_2_POD_1_ZN_1_FLR_2:MULT_CLASS_2_POD_1_ZN_1_FLR_2_FLOOR
  0
3DFACE
  8
MULT_CLASS_2_POD_1_ZN_1_FLR_2
 62
  8
 10
       11.00000
 20
       23.00000
 30
        4.00000
 11
       64.00000
 21
       23.00000
 31
        4.00000
 12
       64.00000
 22
       14.00000
 32
        4.00000
 13
       11.00000
 23
       14.00000
 33
        4.00000
999
MULT_CLASS_2_POD_1_ZN_1_FLR_2:MULT_CLASS_2_POD_1_ZN_1_FLR_2_CEILING
  0
3DFACE
  8
MULT_CLASS_2_POD_1_ZN_1_FLR_2
 62
 15
 10
       11.00000
 20
       14.00000
 30
        8.00000
 11
       64.00000
 21
       14.00000
 31
        8.00000
 12
       64.00000
 22
       23.00000
 32
        8.00000
 13
       11.00000
 23
       23.00000
 33
        8.00000
999
MULT_CLASS_2_POD_2_ZN_1_FLR_1:MULT_CLASS_2_POD_2_ZN_1_FLR_1_WALL_1
  0
3DFACE
  8
MULT_CLASS_2_POD_2_ZN_1_FLR_1
 62
 43
 10
       11.00000
 20
       54.00000
 30
        4.00000
 11
       11.00000
 21
       54.00000
 31
        0.00000
 12
       64.00000
 22
       54.00000
 32
        0.00000
 13
       64.00000
 23
       54.00000
 33
        4.00000
999
MULT_CLASS_2_POD_2_ZN_1_FLR_1:MULT_CLASS_2_POD_2_ZN_1_FLR_1_WALL_2
  0
3DFACE
  8
MULT_CLASS_2_POD_2_ZN_1_FLR_1
 62
 43
 10
       64.00000
 20
       54.00000
 30
        4.00000
 11
       64.00000
 21
       54.00000
 31
        0.00000
 12
       64.00000
 22
       63.00000
 32
        0.00000
 13
       64.00000
 23
       63.00000
 33
        4.00000
999
MULT_CLASS_2_POD_2_ZN_1_FLR_1:MULT_CLASS_2_POD_2_ZN_1_FLR_1_WALL_3
  0
3DFACE
  8
MULT_CLASS_2_POD_2_ZN_1_FLR_1
 62
 43
 10
       64.00000
 20
       63.00000
 30
        4.00000
 11
       64.00000
 21
       63.00000
 31
        0.00000
 12
       11.00000
 22
       63.00000
 32
        0.00000
 13
       11.00000
 23
       63.00000
 33
        4.00000
999
MULT_CLASS_2_POD_2_ZN_1_FLR_1:MULT_CLASS_2_POD_2_ZN_1_FLR_1_WALL_3_WINDOW_1
  0
3DFACE
  8
MULT_CLASS_2_POD_2_ZN_1_FLR_1
 62
143
 10
       63.95000
 20
       63.00000
 30
        2.50260
 11
       63.95000
 21
       63.00000
 31
        1.10000
 12
       11.05000
 22
       63.00000
 32
        1.10000
 13
       11.05000
 23
       63.00000
 33
        2.50260
999
MULT_CLASS_2_POD_2_ZN_1_FLR_1:MULT_CLASS_2_POD_2_ZN_1_FLR_1_WALL_4
  0
3DFACE
  8
MULT_CLASS_2_POD_2_ZN_1_FLR_1
 62
 43
 10
       11.00000
 20
       63.00000
 30
        4.00000
 11
       11.00000
 21
       63.00000
 31
        0.00000
 12
       11.00000
 22
       54.00000
 32
        0.00000
 13
       11.00000
 23
       54.00000
 33
        4.00000
999
MULT_CLASS_2_POD_2_ZN_1_FLR_1:MULT_CLASS_2_POD_2_ZN_1_FLR_1_FLOOR
  0
3DFACE
  8
MULT_CLASS_2_POD_2_ZN_1_FLR_1
 62
  8
 10
       11.00000
 20
       63.00000
 30
        0.00000
 11
       64.00000
 21
       63.00000
 31
        0.00000
 12
       64.00000
 22
       54.00000
 32
        0.00000
 13
       11.00000
 23
       54.00000
 33
        0.00000
999
MULT_CLASS_2_POD_2_ZN_1_FLR_1:MULT_CLASS_2_POD_2_ZN_1_FLR_1_CEILING
  0
3DFACE
  8
MULT_CLASS_2_POD_2_ZN_1_FLR_1
 62
 15
 10
       11.00000
 20
       54.00000
 30
        4.00000
 11
       64.00000
 21
       54.00000
 31
        4.00000
 12
       64.00000
 22
       63.00000
 32
        4.00000
 13
       11.00000
 23
       63.00000
 33
        4.00000
999
MULT_CLASS_2_POD_2_ZN_1_FLR_2:MULT_CLASS_2_POD_2_ZN_1_FLR_2_WALL_1
  0
3DFACE
  8
MULT_CLASS_2_POD_2_ZN_1_FLR_2
 62
 43
 10
       11.00000
 20
       54.00000
 30
        8.00000
 11
       11.00000
 21
       54.00000
 31
        4.00000
 12
       64.00000
 22
       54.00000
 32
        4.00000
 13
       64.00000
 23
       54.00000
 33
        8.00000
999
MULT_CLASS_2_POD_2_ZN_1_FLR_2:MULT_CLASS_2_POD_2_ZN_1_FLR_2_WALL_2
  0
3DFACE
  8
MULT_CLASS_2_POD_2_ZN_1_FLR_2
 62
 43
 10
       64.00000
 20
       54.00000
 30
        8.00000
 11
       64.00000
 21
       54.00000
 31
        4.00000
 12
       64.00000
 22
       63.00000
 32
        4.00000
 13
       64.00000
 23
       63.00000
 33
        8.00000
999
MULT_CLASS_2_POD_2_ZN_1_FLR_2:MULT_CLASS_2_POD_2_ZN_1_FLR_2_WALL_3
  0
3DFACE
  8
MULT_CLASS_2_POD_2_ZN_1_FLR_2
 62
 43
 10
       64.00000
 20
       63.00000
 30
        8.00000
 11
       64.00000
 21
       63.00000
 31
        4.00000
 12
       11.00000
 22
       63.00000
 32
        4.00000
 13
       11.00000
 23
       63.00000
 33
        8.00000
999
MULT_CLASS_2_POD_2_ZN_1_FLR_2:MULT_CLASS_2_POD_2_ZN_1_FLR_2_WALL_3_WINDOW_1
  0
3DFACE
  8
MULT_CLASS_2_POD_2_ZN_1_FLR_2
 62
143
 10
       63.95000
 20
       63.00000
 30
        6.50260
 11
       63.95000
 21
       63.00000
 31
        5.10000
 12
       11.05000
 22
       63.00000
 32
        5.10000
 13
       11.05000
 23
       63.00000
 33
        6.50260
999
MULT_CLASS_2_POD_2_ZN_1_FLR_2:MULT_CLASS_2_POD_2_ZN_1_FLR_2_WALL_4
  0
3DFACE
  8
MULT_CLASS_2_POD_2_ZN_1_FLR_2
 62
 43
 10
       11.00000
 20
       63.00000
 30
        8.00000
 11
       11.00000
 21
       63.00000
 31
        4.00000
 12
       11.00000
 22
       54.00000
 32
        4.00000
 13
       11.00000
 23
       54.00000
 33
        8.00000
999
MULT_CLASS_2_POD_2_ZN_1_FLR_2:MULT_CLASS_2_POD_2_ZN_1_FLR_2_FLOOR
  0
3DFACE
  8
MULT_CLASS_2_POD_2_ZN_1_FLR_2
 62
  8
 10
       11.00000
 20
       63.00000
 30
        4.00000
 11
       64.00000
 21
       63.00000
 31
        4.00000
 12
       64.00000
 22
       54.00000
 32
        4.00000
 13
       11.00000
 23
       54.00000
 33
        4.00000
999
MULT_CLASS_2_POD_2_ZN_1_FLR_2:MULT_CLASS_2_POD_2_ZN_1_FLR_2_CEILING
  0
3DFACE
  8
MULT_CLASS_2_POD_2_ZN_1_FLR_2
 62
 15
 10
       11.00000
 20
       54.00000
 30
        8.00000
 11
       64.00000
 21
       54.00000
 31
        8.00000
 12
       64.00000
 22
       63.00000
 32
        8.00000
 13
       11.00000
 23
       63.00000
 33
        8.00000
999
MULT_CLASS_2_POD_3_ZN_1_FLR_1:MULT_CLASS_2_POD_3_ZN_1_FLR_1_WALL_1
  0
3DFACE
  8
MULT_CLASS_2_POD_3_ZN_1_FLR_1
 62
 43
 10
       11.00000
 20
       95.00000
 30
        4.00000
 11
       11.00000
 21
       95.00000
 31
        0.00000
 12
       64.00000
 22
       95.00000
 32
        0.00000
 13
       64.00000
 23
       95.00000
 33
        4.00000
999
MULT_CLASS_2_POD_3_ZN_1_FLR_1:MULT_CLASS_2_POD_3_ZN_1_FLR_1_WALL_2
  0
3DFACE
  8
MULT_CLASS_2_POD_3_ZN_1_FLR_1
 62
 43
 10
       64.00000
 20
       95.00000
 30
        4.00000
 11
       64.00000
 21
       95.00000
 31
        0.00000
 12
       64.00000
 22
      104.00000
 32
        0.00000
 13
       64.00000
 23
      104.00000
 33
        4.00000
999
MULT_CLASS_2_POD_3_ZN_1_FLR_1:MULT_CLASS_2_POD_3_ZN_1_FLR_1_WALL_3
  0
3DFACE
  8
MULT_CLASS_2_POD_3_ZN_1_FLR_1
 62
 43
 10
       64.00000
 20
      104.00000
 30
        4.00000
 11
       64.00000
 21
      104.00000
 31
        0.00000
 12
       11.00000
 22
      104.00000
 32
        0.00000
 13
       11.00000
 23
      104.00000
 33
        4.00000
999
MULT_CLASS_2_POD_3_ZN_1_FLR_1:MULT_CLASS_2_POD_3_ZN_1_FLR_1_WALL_3_WINDOW_1
  0
3DFACE
  8
MULT_CLASS_2_POD_3_ZN_1_FLR_1
 62
143
 10
       63.95000
 20
      104.00000
 30
        2.50260
 11
       63.95000
 21
      104.00000
 31
        1.10000
 12
       11.05000
 22
      104.00000
 32
        1.10000
 13
       11.05000
 23
      104.00000
 33
        2.50260
999
MULT_CLASS_2_POD_3_ZN_1_FLR_1:MULT_CLASS_2_POD_3_ZN_1_FLR_1_WALL_4
  0
3DFACE
  8
MULT_CLASS_2_POD_3_ZN_1_FLR_1
 62
 43
 10
       11.00000
 20
      104.00000
 30
        4.00000
 11
       11.00000
 21
      104.00000
 31
        0.00000
 12
       11.00000
 22
       95.00000
 32
        0.00000
 13
       11.00000
 23
       95.00000
 33
        4.00000
999
MULT_CLASS_2_POD_3_ZN_1_FLR_1:MULT_CLASS_2_POD_3_ZN_1_FLR_1_FLOOR
  0
3DFACE
  8
MULT_CLASS_2_POD_3_ZN_1_FLR_1
 62
  8
 10
       11.00000
 20
      104.00000
 30
        0.00000
 11
       64.00000
 21
      104.00000
 31
        0.00000
 12
       64.00000
 22
       95.00000
 32
        0.00000
 13
       11.00000
 23
       95.00000
 33
        0.00000
999
MULT_CLASS_2_POD_3_ZN_1_FLR_1:MULT_CLASS_2_POD_3_ZN_1_FLR_1_CEILING
  0
3DFACE
  8
MULT_CLASS_2_POD_3_ZN_1_FLR_1
 62
 15
 10
       11.00000
 20
       95.00000
 30
        4.00000
 11
       64.00000
 21
       95.00000
 31
        4.00000
 12
       64.00000
 22
      104.00000
 32
        4.00000
 13
       11.00000
 23
      104.00000
 33
        4.00000
999
MULT_CLASS_2_POD_3_ZN_1_FLR_2:MULT_CLASS_2_POD_3_ZN_1_FLR_2_WALL_1
  0
3DFACE
  8
MULT_CLASS_2_POD_3_ZN_1_FLR_2
 62
 43
 10
       11.00000
 20
       95.00000
 30
        8.00000
 11
       11.00000
 21
       95.00000
 31
        4.00000
 12
       64.00000
 22
       95.00000
 32
        4.00000
 13
       64.00000
 23
       95.00000
 33
        8.00000
999
MULT_CLASS_2_POD_3_ZN_1_FLR_2:MULT_CLASS_2_POD_3_ZN_1_FLR_2_WALL_2
  0
3DFACE
  8
MULT_CLASS_2_POD_3_ZN_1_FLR_2
 62
 43
 10
       64.00000
 20
       95.00000
 30
        8.00000
 11
       64.00000
 21
       95.00000
 31
        4.00000
 12
       64.00000
 22
      104.00000
 32
        4.00000
 13
       64.00000
 23
      104.00000
 33
        8.00000
999
MULT_CLASS_2_POD_3_ZN_1_FLR_2:MULT_CLASS_2_POD_3_ZN_1_FLR_2_WALL_3
  0
3DFACE
  8
MULT_CLASS_2_POD_3_ZN_1_FLR_2
 62
 43
 10
       64.00000
 20
      104.00000
 30
        8.00000
 11
       64.00000
 21
      104.00000
 31
        4.00000
 12
       11.00000
 22
      104.00000
 32
        4.00000
 13
       11.00000
 23
      104.00000
 33
        8.00000
999
MULT_CLASS_2_POD_3_ZN_1_FLR_2:MULT_CLASS_2_POD_3_ZN_1_FLR_2_WALL_3_WINDOW_1
  0
3DFACE
  8
MULT_CLASS_2_POD_3_ZN_1_FLR_2
 62
143
 10
       63.95000
 20
      104.00000
 30
        6.50260
 11
       63.95000
 21
      104.00000
 31
        5.10000
 12
       11.05000
 22
      104.00000
 32
        5.10000
 13
       11.05000
 23
      104.00000
 33
        6.50260
999
MULT_CLASS_2_POD_3_ZN_1_FLR_2:MULT_CLASS_2_POD_3_ZN_1_FLR_2_WALL_4
  0
3DFACE
  8
MULT_CLASS_2_POD_3_ZN_1_FLR_2
 62
 43
 10
       11.00000
 20
      104.00000
 30
        8.00000
 11
       11.00000
 21
      104.00000
 31
        4.00000
 12
       11.00000
 22
       95.00000
 32
        4.00000
 13
       11.00000
 23
       95.00000
 33
        8.00000
999
MULT_CLASS_2_POD_3_ZN_1_FLR_2:MULT_CLASS_2_POD_3_ZN_1_FLR_2_FLOOR
  0
3DFACE
  8
MULT_CLASS_2_POD_3_ZN_1_FLR_2
 62
  8
 10
       11.00000
 20
      104.00000
 30
        4.00000
 11
       64.00000
 21
      104.00000
 31
        4.00000
 12
       64.00000
 22
       95.00000
 32
        4.00000
 13
       11.00000
 23
       95.00000
 33
        4.00000
999
MULT_CLASS_2_POD_3_ZN_1_FLR_2:MULT_CLASS_2_POD_3_ZN_1_FLR_2_CEILING
  0
3DFACE
  8
MULT_CLASS_2_POD_3_ZN_1_FLR_2
 62
 15
 10
       11.00000
 20
       95.00000
 30
        8.00000
 11
       64.00000
 21
       95.00000
 31
        8.00000
 12
       64.00000
 22
      104.00000
 32
        8.00000
 13
       11.00000
 23
      104.00000
 33
        8.00000
999
OFFICES_ZN_1_FLR_1:OFFICES_ZN_1_FLR_1_WALL_1
  0
3DFACE
  8
OFFICES_ZN_1_FLR_1
 62
 43
 10
       79.00000
 20
        0.00000
 30
        4.00000
 11
       79.00000
 21
        0.00000
 31
        0.00000
 12
      117.00000
 22
        0.00000
 32
        0.00000
 13
      117.00000
 23
        0.00000
 33
        4.00000
999
OFFICES_ZN_1_FLR_1:OFFICES_ZN_1_FLR_1_WALL_1_WINDOW_1
  0
3DFACE
  8
OFFICES_ZN_1_FLR_1
 62
143
 10
       79.05000
 20
        0.00000
 30
        2.50370
 11
       79.05000
 21
        0.00000
 31
        1.10000
 12
      116.95000
 22
        0.00000
 32
        1.10000
 13
      116.95000
 23
        0.00000
 33
        2.50370
999
OFFICES_ZN_1_FLR_1:OFFICES_ZN_1_FLR_1_WALL_2
  0
3DFACE
  8
OFFICES_ZN_1_FLR_1
 62
 43
 10
      117.00000
 20
        0.00000
 30
        4.00000
 11
      117.00000
 21
        0.00000
 31
        0.00000
 12
      117.00000
 22
       14.00000
 32
        0.00000
 13
      117.00000
 23
       14.00000
 33
        4.00000
999
OFFICES_ZN_1_FLR_1:OFFICES_ZN_1_FLR_1_WALL_2_WINDOW_1
  0
3DFACE
  8
OFFICES_ZN_1_FLR_1
 62
143
 10
      117.00000
 20
        0.05000
 30
        2.51010
 11
      117.00000
 21
        0.05000
 31
        1.10000
 12
      117.00000
 22
       13.95000
 32
        1.10000
 13
      117.00000
 23
       13.95000
 33
        2.51010
999
OFFICES_ZN_1_FLR_1:OFFICES_ZN_1_FLR_1_WALL_3
  0
3DFACE
  8
OFFICES_ZN_1_FLR_1
 62
 43
 10
      117.00000
 20
       14.00000
 30
        4.00000
 11
      117.00000
 21
       14.00000
 31
        0.00000
 12
       79.00000
 22
       14.00000
 32
        0.00000
 13
       79.00000
 23
       14.00000
 33
        4.00000
999
OFFICES_ZN_1_FLR_1:OFFICES_ZN_1_FLR_1_WALL_4
  0
3DFACE
  8
OFFICES_ZN_1_FLR_1
 62
 43
 10
       79.00000
 20
       14.00000
 30
        4.00000
 11
       79.00000
 21
       14.00000
 31
        0.00000
 12
       79.00000
 22
        0.00000
 32
        0.00000
 13
       79.00000
 23
        0.00000
 33
        4.00000
999
OFFICES_ZN_1_FLR_1:OFFICES_ZN_1_FLR_1_FLOOR
  0
3DFACE
  8
OFFICES_ZN_1_FLR_1
 62
  8
 10
       79.00000
 20
       14.00000
 30
        0.00000
 11
      117.00000
 21
       14.00000
 31
        0.00000
 12
      117.00000
 22
        0.00000
 32
        0.00000
 13
       79.00000
 23
        0.00000
 33
        0.00000
999
OFFICES_ZN_1_FLR_1:OFFICES_ZN_1_FLR_1_CEILING
  0
3DFACE
  8
OFFICES_ZN_1_FLR_1
 62
 15
 10
       79.00000
 20
        0.00000
 30
        4.00000
 11
      117.00000
 21
        0.00000
 31
        4.00000
 12
      117.00000
 22
       14.00000
 32
        4.00000
 13
       79.00000
 23
       14.00000
 33
        4.00000
999
OFFICES_ZN_1_FLR_2:OFFICES_ZN_1_FLR_2_WALL_1
  0
3DFACE
  8
OFFICES_ZN_1_FLR_2
 62
 43
 10
       79.00000
 20
        0.00000
 30
        8.00000
 11
       79.00000
 21
        0.00000
 31
        4.00000
 12
      117.00000
 22
        0.00000
 32
        4.00000
 13
      117.00000
 23
        0.00000
 33
        8.00000
999
OFFICES_ZN_1_FLR_2:OFFICES_ZN_1_FLR_2_WALL_1_WINDOW_1
  0
3DFACE
  8
OFFICES_ZN_1_FLR_2
 62
143
 10
       79.05000
 20
        0.00000
 30
        6.50370
 11
       79.05000
 21
        0.00000
 31
        5.10000
 12
      116.95000
 22
        0.00000
 32
        5.10000
 13
      116.95000
 23
        0.00000
 33
        6.50370
999
OFFICES_ZN_1_FLR_2:OFFICES_ZN_1_FLR_2_WALL_2
  0
3DFACE
  8
OFFICES_ZN_1_FLR_2
 62
 43
 10
      117.00000
 20
        0.00000
 30
        8.00000
 11
      117.00000
 21
        0.00000
 31
        4.00000
 12
      117.00000
 22
       14.00000
 32
        4.00000
 13
      117.00000
 23
       14.00000
 33
        8.00000
999
OFFICES_ZN_1_FLR_2:OFFICES_ZN_1_FLR_2_WALL_2_WINDOW_1
  0
3DFACE
  8
OFFICES_ZN_1_FLR_2
 62
143
 10
      117.00000
 20
        0.05000
 30
        6.51010
 11
      117.00000
 21
        0.05000
 31
        5.10000
 12
      117.00000
 22
       13.95000
 32
        5.10000
 13
      117.00000
 23
       13.95000
 33
        6.51010
999
OFFICES_ZN_1_FLR_2:OFFICES_ZN_1_FLR_2_WALL_3
  0
3DFACE
  8
OFFICES_ZN_1_FLR_2
 62
 43
 10
      117.00000
 20
       14.00000
 30
        8.00000
 11
      117.00000
 21
       14.00000
 31
        4.00000
 12
       79.00000
 22
       14.00000
 32
        4.00000
 13
       79.00000
 23
       14.00000
 33
        8.00000
999
OFFICES_ZN_1_FLR_2:OFFICES_ZN_1_FLR_2_WALL_4
  0
3DFACE
  8
OFFICES_ZN_1_FLR_2
 62
 43
 10
       79.00000
 20
       14.00000
 30
        8.00000
 11
       79.00000
 21
       14.00000
 31
        4.00000
 12
       79.00000
 22
        0.00000
 32
        4.00000
 13
       79.00000
 23
        0.00000
 33
        8.00000
999
OFFICES_ZN_1_FLR_2:OFFICES_ZN_1_FLR_2_FLOOR
  0
3DFACE
  8
OFFICES_ZN_1_FLR_2
 62
  8
 10
       79.00000
 20
       14.00000
 30
        4.00000
 11
      117.00000
 21
       14.00000
 31
        4.00000
 12
      117.00000
 22
        0.00000
 32
        4.00000
 13
       79.00000
 23
        0.00000
 33
        4.00000
999
OFFICES_ZN_1_FLR_2:OFFICES_ZN_1_FLR_2_CEILING
  0
3DFACE
  8
OFFICES_ZN_1_FLR_2
 62
 15
 10
       79.00000
 20
        0.00000
 30
        8.00000
 11
      117.00000
 21
        0.00000
 31
        8.00000
 12
      117.00000
 22
       14.00000
 32
        8.00000
 13
       79.00000
 23
       14.00000
 33
        8.00000
  0
ENDSEC
  0
EOF
